<svg id="af929e81-768c-45d2-84a1-6fe906eb98fe" data-name="Слой 1" xmlns="http://www.w3.org/2000/svg" xmlns:xlink="http://www.w3.org/1999/xlink" viewBox="0 0 274.78 357.71"><defs><style>.ff165346-33ef-45a5-bf01-27dd234fabaf{fill:url(#bc022b65-441e-4fe3-9328-d94f5e78aedd);}.b8b2249e-4484-412f-b287-5858c6abbea6{fill:url(#b257474a-8891-4a6b-8bb8-4a7f429486b5);}.e73f168f-9cfb-443b-84ec-3f0b57d8f7a2{fill:#3e3d44;}.bc08fc1f-55fb-438d-9bf4-6f510ff32066{fill:url(#a8033415-abe5-4e26-8328-dc037b4e4348);}.fcc07a03-4371-47bf-abbc-1216efcc5513{fill:#24126a;}.f0494594-8567-4404-a785-eadf521a8080{opacity:0.51;}.aeb6fa45-8865-4d1d-b239-f8991f18d166{fill:#453c9e;}.ad933bdc-e12c-47f8-a511-d4b396bdbfda{fill:url(#b2cee81a-24b9-48a7-a0cd-13ad1d600db7);}.be70ff70-32b0-4b17-8981-02889d2c7785{fill:#302f35;}.a344d2a7-f72e-40f5-a113-e358d305abbd{fill:url(#b4df1ea8-5890-4dbd-8d1c-d2841abc53ad);}.f011b4f1-2996-4bde-998b-0ae571509b8a{fill:url(#f60ba28e-0415-4aee-924e-b90b1021c5ba);}.b90617b4-bd21-4f5b-bb3d-028e91287343{fill:url(#a5fa1ddf-d741-4cca-99cc-c7cdbae9f823);}.a3a580af-8cb4-4d7e-9699-a6577218b7f3{fill:url(#ba51f787-dc72-4e16-bdd9-11a9dc6bc145);}.ae86abc9-c132-4fbf-9a21-9538140f2a97{fill:url(#efd90501-7932-460b-9908-97cb4747121e);}.b8435d3c-84db-4a3f-9a8a-5666c3d38f69{fill:url(#a1b6e451-c06d-4887-82d9-4885f8fdc6e4);}.e436e7b8-11b9-43a6-9091-63e6d15af59d{fill:url(#eb502f22-93b1-4df8-b464-01c46510d65b);}.a107f322-ff9b-4878-90d7-55bdfa66ce50,.b320d710-517d-46bf-b422-efcc516cd407,.b5938b71-3ecd-4d2e-b9f8-671701f2c154,.b86684bf-f439-4ef3-8058-85e89e09b5b0,.bfc5bbbb-fd80-4fbe-8fd0-bd2175734bce,.e379104c-a5df-4cce-adab-e4019d357958,.eab80b5a-7eed-4ef9-b7de-09501328e364,.f0834cf7-c5ba-4575-810e-2bc9410e7ad6{opacity:0.1;}.bfc5bbbb-fd80-4fbe-8fd0-bd2175734bce{fill:url(#ab9f6cb0-3eeb-4e78-b8f0-3566e6e06db8);}.a213da98-c644-41b3-a9f5-3ad7d0c1a7f9,.a8a132ea-e74b-412f-804f-846456f5dd5f,.aaecb780-b06e-4ff5-a495-2a3c98587c67,.aee4db15-e3b6-43ab-9446-36502c68a9f5,.af151724-0b08-4dab-ae03-cf0b8f96522b,.b41367e5-d550-4a40-b722-842c6c2ce7f6,.b900d55f-ff76-49ea-8867-90ebc22da076,.bb0cfa7c-0cb8-46e0-9009-7dae4b48b572,.e2899ca3-eb61-4855-86a9-dbd76e15dc44,.e93196f1-5a8e-4ce0-9450-45c78fd5df73,.eecac03a-3f91-4631-98a7-0a1121237d7e,.f26330c4-9fe3-4874-8b64-03fe34f5c987,.fa8ffe1b-d7f6-40ad-81f9-36a989263354{opacity:0.4;}.af151724-0b08-4dab-ae03-cf0b8f96522b{fill:url(#a656bf5a-65fa-42e9-9950-a3dc9d2f85a8);}.baa40ba5-4cd1-41e8-a290-87c0f8a182e4{fill:url(#e09d660f-7dd0-4642-9475-82da39a31ef9);}.fa8ffe1b-d7f6-40ad-81f9-36a989263354{fill:url(#b8c9066b-e606-4034-bb5e-e38ba13d8add);}.b4110232-0ba4-46b8-882a-a83bdad77a8b{fill:url(#a9b192e9-be3c-42bb-a43e-5e03dbb1a190);}.b7f31583-9d87-4c10-8159-8333d9fa2757{fill:url(#abe26206-a548-4b98-ba9c-ac693f828711);}.a3df14ab-2fef-4959-ba52-cae7195628fc{fill:url(#e745b6f5-9315-4dc9-9c1a-a7f242f65120);}.e379104c-a5df-4cce-adab-e4019d357958{fill:url(#a02868a8-fd29-488d-9a82-6cf5a58a611f);}.bded6f6c-5267-434f-9592-d4acbbdad1a9{fill:url(#a041e61e-7965-4a6b-b2af-c956966c2fea);}.b031afea-9e89-4539-b523-7a78438dbed4{fill:url(#ad423cae-99be-49bc-9f42-2c5ec5a18657);}.e6193845-c58d-4323-b194-e6d02fb68cdd{fill:url(#a1fca4a9-ed50-4f0c-b786-25929534eaba);}.a5cd8a23-6637-492c-ba29-5c4db1bf1779{fill:url(#be5b9ed6-ce60-418b-b3cc-c7d2f7285ad6);}.ba5ef848-45c2-45bc-a38d-6b42c32bf3d5{fill:url(#a7ae04be-425c-4638-9548-5d909be856ca);}.b9f5e544-f2a3-4d37-a155-04a54e326054{fill:url(#b74161d5-6f56-45c2-b680-ea02f142a0f0);}.f0744636-ab7b-4e51-8edf-14c0d9c74aa6{fill:url(#f063ad6c-caab-439c-9859-a43973f6676b);}.b5267124-4526-4142-b6d7-62b7ba598763{fill:url(#ab718f72-624b-40ec-9822-8543f3df9b52);}.ab323fd6-ae49-45a2-a6be-0562274fa5df{fill:url(#ed440a1f-40d8-4db1-bd65-9fb0a8068c26);}.f1512728-7b4f-4728-b043-065354b741e2{fill:url(#a312d500-2581-43b5-b085-7ca3fbc9c484);}.be0b99e9-e6c1-4367-bc0d-e8e90f101e5f{fill:url(#a5d9f5d9-e412-45d9-9071-3f63a463d71e);}.bc773785-b975-40cc-bd7c-d0dedc219af2{fill:url(#b4c1ca66-8628-47eb-ae39-cec599474155);}.eab80b5a-7eed-4ef9-b7de-09501328e364{fill:url(#bb62f7ad-63e4-4f78-83f3-0843ed62f2ba);}.f26330c4-9fe3-4874-8b64-03fe34f5c987{fill:url(#f748c160-ba80-4788-ba28-703a48631ab3);}.e93196f1-5a8e-4ce0-9450-45c78fd5df73{fill:url(#fe070956-af82-454f-b76d-9b26d2fa08ef);}.f2554fa0-e99e-45fb-a51b-048f10502f00{fill:url(#a0d8fcfd-c1ab-4256-ae25-9fccab6e1799);}.ac8e5491-1b8e-4e01-b8a6-690a7fed89e3{fill:url(#eb669b39-30be-4b4d-b423-de150090b771);}.e9bf1f31-65cf-438e-8300-685b27c12163{fill:url(#ad4f9a0f-0305-42a9-bf13-24ad5452537a);}.e2899ca3-eb61-4855-86a9-dbd76e15dc44{fill:url(#a9cfc9ad-ed2b-4cee-a463-64fd12cb6aa0);}.b900d55f-ff76-49ea-8867-90ebc22da076{fill:url(#f04ccce5-41dd-4ea3-89dd-03e4aa493e8b);}.b86684bf-f439-4ef3-8058-85e89e09b5b0{fill:url(#e976fc3d-55b0-45e7-9440-a35972d1bea4);}.b9b54726-9cbb-4467-9016-800bf9458dca{fill:url(#b12be546-b5cc-486f-900b-a85621e57cea);}.b4e3c313-7a90-4af2-aa8d-d69e2a616fc5{fill:url(#fe443b0e-b462-4613-992d-58313f157b78);}.b8444053-07a8-48d8-a750-ca94b22e359c{fill:url(#ed38c4f0-9f38-4773-a503-75313e82d155);}.eecac03a-3f91-4631-98a7-0a1121237d7e{fill:url(#fd61ebd5-a3c9-45fa-aeef-81cc422503f9);}.b6e41c60-ef4e-406b-be1a-5eb6b3351244{fill:url(#b8f1aac7-3d50-4d27-a698-ccadeb8778fc);}.fef906cc-dedc-49f6-9113-dcef7c67f48c{fill:url(#b0247133-e76b-479f-a80e-8f55a4701d09);}.b7d26193-edff-4e7f-bfd0-46dc9c05659b{fill:url(#b288dd62-6e7f-40ea-b1fe-0bdc184fa2a7);}.a32846b1-ea61-45c9-99f6-a5f097d4236e{fill:url(#b3b071d8-499d-4a3d-8a3c-a35a6eb53a48);}.a20004fb-8f04-4ea5-a82a-dae17af2ff49{fill:url(#bd0fd957-d2b5-47fe-aff1-bb80160784a5);}.b2e41f35-ebbf-4eb4-883a-3413173b04d2{fill:url(#b5bc0fc8-fe98-482e-993e-d611eccf888c);}.be2aa984-9ce6-4d17-b531-2b5edab07c73{fill:url(#aac130c5-baeb-420c-9983-e5bad15fc664);}.a72a74b9-109d-4879-9218-e418debdcc5d{fill:url(#ac111b5d-f4bd-4294-828c-9fe5cb06bf67);}.a7da7e9f-24c3-4996-87d8-c5c30fead8a0{fill:url(#b7297e78-b601-4e23-a67d-8349aab9614b);}.e6fcdf36-0d03-4290-ba59-7e57e15a88f4{fill:url(#e9179fe8-4b37-4b43-8559-6e82a50bf79d);}.e32d7590-0d68-4b12-a16f-75c640145be8{fill:url(#b158c344-f407-49c7-af95-5bf3c3a23f3c);}.a1d752da-df3f-4d82-af47-ad39dd255f13{fill:url(#e3fb08ad-29fe-44aa-8088-ab876049eb37);}.bcc276f4-6bb3-47ce-9d3e-2599d9a8e72c{fill:url(#a24a5535-a255-4875-9ad4-fa7fb7b64063);}.a213da98-c644-41b3-a9f5-3ad7d0c1a7f9{fill:url(#e793b39e-8ccf-466e-a66b-0b7ceea2910f);}.e8282333-bb9a-4b83-aeda-4f419ef77d68{fill:url(#ed063162-4ead-4e74-92a2-f6ec183179b0);}.a107f322-ff9b-4878-90d7-55bdfa66ce50{fill:url(#a4309c45-3851-42d0-a4b1-c2b355ce1a60);}.abe4b73a-91bd-4b5d-8316-0b6f3db4bf6c{fill:url(#bae771ac-b136-4f3d-be60-64c31d731ba2);}.e7676f33-86c9-43c9-9592-729a3f00127b{fill:url(#a1d5de38-20a2-41ee-908f-23567fdd1854);}.af889294-1f80-4ed9-99c5-b0e781fc02ab{fill:url(#a6bb9dd0-7587-4970-a632-feba8c7139f9);}.fa0df1d6-7413-44b9-bad2-f00e0734be7c{fill:url(#b353291b-d302-4396-9f28-0e9015ba4270);}.a67f3ac3-5562-45a4-9d22-421ea9012962{fill:url(#b3037d8a-dd53-4541-829d-ec789286b2db);}.ae2ca7a9-0626-489f-8521-4715052e3010{fill:url(#b9bda194-50cb-4fed-b814-57235df62a3c);}.b41367e5-d550-4a40-b722-842c6c2ce7f6{fill:url(#a197b582-8c97-4678-8505-6429ebed2c9c);}.a4181aa3-001b-4d6f-a6c5-1aaa36fb34e4{fill:url(#af01de59-1929-4cf1-877e-06bbb540cbb1);}.a982cd09-61e6-44a4-8266-7522fd94240e{fill:url(#b8707b7d-736c-4144-b813-0cfd489b76ab);}.b5938b71-3ecd-4d2e-b9f8-671701f2c154{fill:url(#eb576ed9-d775-46ee-a3e5-ff87dfdeb2f4);}.bb0cfa7c-0cb8-46e0-9009-7dae4b48b572{fill:url(#b661d1dc-3c8c-4c2e-84fa-05e78b36d449);}.a127481f-30d3-462a-8f2b-dd495617a96b{fill:url(#ac5d287c-2385-48a4-a8be-815b924109ae);}.b320d710-517d-46bf-b422-efcc516cd407{fill:url(#b519cbbc-d741-4ea8-b545-db276462b0b9);}.ace63da5-3326-4160-a583-1fc3b37cdb6f{fill:url(#a2bc0614-e28a-4ffe-a642-728f74edd8d9);}.aee4db15-e3b6-43ab-9446-36502c68a9f5{fill:url(#e3a69114-ea48-49c0-bcc3-208f64949381);}.ade37239-2b79-43ae-bf0a-46b5cfb4664f{fill:url(#e80815b1-8be2-4e1b-8678-6ac521a9941a);}.a5622f37-e4a2-4ad6-81f2-b3ceda7431cc{fill:url(#bd9da936-c325-4903-aa25-ef8a75d8b8e4);}.f74c546b-2111-4737-b693-9423057ddc35{fill:url(#a42ec7fa-de8d-4ce4-a977-fda036df917e);}.bf48aaab-03d3-4a41-92cb-66986350ed9d{fill:url(#aa54e09a-2430-4445-b0b4-5e92375f60e8);}.e9d62319-65e8-4569-a3cc-c8aca46ccb2b{fill:url(#acc73f7e-9815-4d56-8b32-c18da6e123d0);}.aaecb780-b06e-4ff5-a495-2a3c98587c67{fill:url(#a0c222d6-10c2-4c92-823b-38063f51db7c);}.b4c617ae-33ff-4445-8a3b-446723eff788{fill:url(#e0b09414-8349-4bd0-a6cf-450ed214be5f);}.f4b30811-9388-45ae-96ef-68ecad1e3e59{fill:url(#ac4fe5b3-24e0-409e-99a0-813077f69c75);}.f0834cf7-c5ba-4575-810e-2bc9410e7ad6{fill:url(#a3f2c6ba-dce5-40bc-a619-526852d062d7);}.b2cf32c9-8b89-4743-b242-4116fef95c8f{fill:url(#fa165acd-3ce5-4f5d-b751-a78bb9824864);}.b31b82f0-1c58-4646-806d-167ba853000a{fill:url(#fd8234d3-0dd2-4827-8fce-21c0e0045378);}.a5847472-c4fe-4dff-867f-02a3a03a6d9d{fill:url(#ec7e5ba7-03d8-4a77-bae5-bdbe8d364e38);}.f1535726-acb5-4541-8e60-120a2e14f418{fill:url(#b4aa7eb4-5103-4bb7-9554-a1d62cd459f8);}.a8a132ea-e74b-412f-804f-846456f5dd5f{fill:url(#ad438704-9364-4e0a-af5d-ad6e80507b4c);}.f251ec26-e3d4-4a06-967d-a25570d6cb1f{fill:url(#ea5d6656-f60b-4de6-8562-711127a43d62);}.b1367ad0-8236-438c-973e-4ad47b2dd8ac{fill:url(#abf83176-3e85-4cd2-9b8f-6b1f8a3adc4e);}.a68af247-9b58-419a-9540-d63aacaf80c8{fill:url(#ae8edaf9-dfb8-4d47-a362-5d43f19bd2c9);}.be5b4df7-71b5-47a2-a242-23bcf27f8096{fill:url(#a692f2a5-4b37-4d81-a58c-778d31b58417);}.b27e9476-663e-43fb-a06f-15212ceb3e4e{fill:#2b2b30;}.af91ede9-6abf-4e49-8fb1-5086a73abea9{fill:#1a1d25;}.fac7c7d6-afb7-44e0-95c6-601c0db10b37{fill:url(#e3ed3841-a1ff-4b07-a61b-e437c9d7fb3c);}.aa471594-855e-4905-8cef-fdd80fe3c228{fill:url(#a76f5e99-3eea-4855-b719-1395175142be);}.ab11b83a-6d88-4fe5-8a46-4bf2ad4e018e{fill:url(#f37b3bf3-9270-41bc-989f-60008a12bfb5);}.b98a310e-5cb8-4a5b-b56b-db229cbcab11{fill:#47464f;}.ba3bc8ab-8031-4b35-a5d8-ed2e40ea68d9{fill:#5f5f6b;}.bdea91d8-0af6-4048-9233-f8750529ba8d{fill:#4e4d54;}.a3a7d669-242c-4143-959a-ccab831a9b0c{opacity:0.9;}.af993f07-05d5-445a-b3f3-7a4370a304ee{fill:url(#a37e296d-a0d2-4c37-8c4e-5ce603624789);}.ed960cdf-d3ae-471c-847c-255aca3f7b15{fill:url(#e33b418b-5c19-4d8b-a098-3a5f91a44788);}.bcdd5914-d787-4e08-a7a8-11b7a955357b{fill:url(#a3778f88-cd87-4af7-b9eb-bc7c4808b11f);}.a8eedf50-5ad6-4887-bc28-c79dd738b50e{fill:url(#ade1f3c7-b35f-4444-b7d1-4c785a300ec4);}.f2e275a6-f61a-4c55-8afb-68eb2c205e46{fill:url(#a430e524-7475-4587-9358-16717aa79d71);}.f88df5ad-b159-40fd-a033-caa736cf7dc1{fill:url(#a475573e-8783-4f25-9cee-2e9e712f2b07);}.af0372df-6490-4a6c-8ebb-3cd5963f0a83{fill:url(#ab677182-bd25-4479-9041-2f6fd5659752);}.bc8b9e67-68a6-4e8c-8232-a642f4eea435{fill:url(#e5939a61-d444-4497-adcc-b674f12f08e5);}.fd7553e3-6bbb-49b1-ac09-7fd343376db4{fill:url(#b59cae7e-e17e-409c-9173-bd870f275fe2);}.adb699de-6f7f-4716-9ab2-5d69f83ec587{fill:url(#b35843f3-c2fb-4045-b631-4da4d71b88cf);}.ae827248-2d3c-43c0-9c97-58d2fe53db16{fill:url(#abc163e0-5858-4250-b664-740c4d16414f);}.a336fc37-6f20-4152-ac6a-f3a5f1dcaa1b{fill:url(#b1a664bf-0ee1-4588-8d6a-b4dba4956afa);}</style><linearGradient id="bc022b65-441e-4fe3-9328-d94f5e78aedd" x1="142.71" y1="143.96" x2="141.07" y2="453.24" gradientUnits="userSpaceOnUse"><stop offset="0" stop-color="#5f5f6b"/><stop offset="0.28" stop-color="#5b5a66"/><stop offset="0.61" stop-color="#4e4d58"/><stop offset="0.96" stop-color="#393840"/><stop offset="1" stop-color="#36353d"/></linearGradient><linearGradient id="b257474a-8891-4a6b-8bb8-4a7f429486b5" x1="139.23" y1="178.55" x2="146.6" y2="325.01" gradientUnits="userSpaceOnUse"><stop offset="0" stop-color="#e9c77d"/><stop offset="1" stop-color="#a37a29"/></linearGradient><linearGradient id="a8033415-abe5-4e26-8328-dc037b4e4348" x1="142.08" y1="341.79" x2="295.9" y2="239.79" xlink:href="#bc022b65-441e-4fe3-9328-d94f5e78aedd"/><linearGradient id="b2cee81a-24b9-48a7-a0cd-13ad1d600db7" x1="-3.52" y1="266.18" x2="434.62" y2="285.41" xlink:href="#b257474a-8891-4a6b-8bb8-4a7f429486b5"/><linearGradient id="b4df1ea8-5890-4dbd-8d1c-d2841abc53ad" x1="8.55" y1="287.58" x2="125.14" y2="305.17" xlink:href="#bc022b65-441e-4fe3-9328-d94f5e78aedd"/><linearGradient id="f60ba28e-0415-4aee-924e-b90b1021c5ba" x1="23.04" y1="278.18" x2="131.25" y2="322.97" xlink:href="#b257474a-8891-4a6b-8bb8-4a7f429486b5"/><linearGradient id="a5fa1ddf-d741-4cca-99cc-c7cdbae9f823" x1="24.11" y1="275.59" x2="132.32" y2="320.39" xlink:href="#b257474a-8891-4a6b-8bb8-4a7f429486b5"/><linearGradient id="ba51f787-dc72-4e16-bdd9-11a9dc6bc145" x1="26.07" y1="270.87" x2="134.27" y2="315.67" xlink:href="#b257474a-8891-4a6b-8bb8-4a7f429486b5"/><linearGradient id="efd90501-7932-460b-9908-97cb4747121e" x1="25.26" y1="272.82" x2="133.47" y2="317.62" xlink:href="#b257474a-8891-4a6b-8bb8-4a7f429486b5"/><linearGradient id="a1b6e451-c06d-4887-82d9-4885f8fdc6e4" x1="24.65" y1="274.3" x2="132.85" y2="319.1" xlink:href="#b257474a-8891-4a6b-8bb8-4a7f429486b5"/><linearGradient id="eb502f22-93b1-4df8-b464-01c46510d65b" x1="174.22" y1="250.46" x2="279.76" y2="421.46" xlink:href="#b257474a-8891-4a6b-8bb8-4a7f429486b5"/><linearGradient id="ab9f6cb0-3eeb-4e78-b8f0-3566e6e06db8" x1="178.14" y1="248.03" x2="283.69" y2="419.03" xlink:href="#b257474a-8891-4a6b-8bb8-4a7f429486b5"/><linearGradient id="a656bf5a-65fa-42e9-9950-a3dc9d2f85a8" x1="182.07" y1="245.61" x2="287.61" y2="416.61" xlink:href="#b257474a-8891-4a6b-8bb8-4a7f429486b5"/><linearGradient id="e09d660f-7dd0-4642-9475-82da39a31ef9" x1="185.99" y1="243.19" x2="291.53" y2="414.19" xlink:href="#b257474a-8891-4a6b-8bb8-4a7f429486b5"/><linearGradient id="b8c9066b-e606-4034-bb5e-e38ba13d8add" x1="189.91" y1="240.77" x2="295.46" y2="411.77" xlink:href="#b257474a-8891-4a6b-8bb8-4a7f429486b5"/><linearGradient id="a9b192e9-be3c-42bb-a43e-5e03dbb1a190" x1="193.84" y1="238.35" x2="299.38" y2="409.35" xlink:href="#b257474a-8891-4a6b-8bb8-4a7f429486b5"/><linearGradient id="abe26206-a548-4b98-ba9c-ac693f828711" x1="197.76" y1="235.92" x2="303.31" y2="406.92" xlink:href="#b257474a-8891-4a6b-8bb8-4a7f429486b5"/><linearGradient id="e745b6f5-9315-4dc9-9c1a-a7f242f65120" x1="201.69" y1="233.5" x2="307.23" y2="404.5" xlink:href="#b257474a-8891-4a6b-8bb8-4a7f429486b5"/><linearGradient id="a02868a8-fd29-488d-9a82-6cf5a58a611f" x1="205.61" y1="231.08" x2="311.16" y2="402.08" xlink:href="#b257474a-8891-4a6b-8bb8-4a7f429486b5"/><linearGradient id="a041e61e-7965-4a6b-b2af-c956966c2fea" x1="165.91" y1="255.58" x2="271.46" y2="426.58" xlink:href="#b257474a-8891-4a6b-8bb8-4a7f429486b5"/><linearGradient id="ad423cae-99be-49bc-9f42-2c5ec5a18657" x1="169.84" y1="253.16" x2="275.38" y2="424.16" xlink:href="#b257474a-8891-4a6b-8bb8-4a7f429486b5"/><linearGradient id="a1fca4a9-ed50-4f0c-b786-25929534eaba" x1="173.76" y1="250.74" x2="279.31" y2="421.74" xlink:href="#b257474a-8891-4a6b-8bb8-4a7f429486b5"/><linearGradient id="be5b9ed6-ce60-418b-b3cc-c7d2f7285ad6" x1="177.69" y1="248.31" x2="283.23" y2="419.31" xlink:href="#b257474a-8891-4a6b-8bb8-4a7f429486b5"/><linearGradient id="a7ae04be-425c-4638-9548-5d909be856ca" x1="181.61" y1="245.89" x2="287.16" y2="416.89" xlink:href="#b257474a-8891-4a6b-8bb8-4a7f429486b5"/><linearGradient id="b74161d5-6f56-45c2-b680-ea02f142a0f0" x1="185.53" y1="243.47" x2="291.08" y2="414.47" xlink:href="#b257474a-8891-4a6b-8bb8-4a7f429486b5"/><linearGradient id="f063ad6c-caab-439c-9859-a43973f6676b" x1="189.46" y1="241.05" x2="295" y2="412.05" xlink:href="#b257474a-8891-4a6b-8bb8-4a7f429486b5"/><linearGradient id="ab718f72-624b-40ec-9822-8543f3df9b52" x1="193.38" y1="238.63" x2="298.93" y2="409.63" xlink:href="#b257474a-8891-4a6b-8bb8-4a7f429486b5"/><linearGradient id="ed440a1f-40d8-4db1-bd65-9fb0a8068c26" x1="197.31" y1="236.2" x2="302.85" y2="407.2" xlink:href="#b257474a-8891-4a6b-8bb8-4a7f429486b5"/><linearGradient id="a312d500-2581-43b5-b085-7ca3fbc9c484" x1="157.61" y1="260.7" x2="263.16" y2="431.7" xlink:href="#b257474a-8891-4a6b-8bb8-4a7f429486b5"/><linearGradient id="a5d9f5d9-e412-45d9-9071-3f63a463d71e" x1="161.54" y1="258.28" x2="267.08" y2="429.28" xlink:href="#b257474a-8891-4a6b-8bb8-4a7f429486b5"/><linearGradient id="b4c1ca66-8628-47eb-ae39-cec599474155" x1="165.46" y1="255.86" x2="271.01" y2="426.86" xlink:href="#b257474a-8891-4a6b-8bb8-4a7f429486b5"/><linearGradient id="bb62f7ad-63e4-4f78-83f3-0843ed62f2ba" x1="169.38" y1="253.44" x2="274.93" y2="424.44" xlink:href="#b257474a-8891-4a6b-8bb8-4a7f429486b5"/><linearGradient id="f748c160-ba80-4788-ba28-703a48631ab3" x1="173.31" y1="251.02" x2="278.85" y2="422.02" xlink:href="#b257474a-8891-4a6b-8bb8-4a7f429486b5"/><linearGradient id="fe070956-af82-454f-b76d-9b26d2fa08ef" x1="177.23" y1="248.59" x2="282.78" y2="419.59" xlink:href="#b257474a-8891-4a6b-8bb8-4a7f429486b5"/><linearGradient id="a0d8fcfd-c1ab-4256-ae25-9fccab6e1799" x1="181.16" y1="246.17" x2="286.7" y2="417.17" xlink:href="#b257474a-8891-4a6b-8bb8-4a7f429486b5"/><linearGradient id="eb669b39-30be-4b4d-b423-de150090b771" x1="185.08" y1="243.75" x2="290.63" y2="414.75" xlink:href="#b257474a-8891-4a6b-8bb8-4a7f429486b5"/><linearGradient id="ad4f9a0f-0305-42a9-bf13-24ad5452537a" x1="189" y1="241.33" x2="294.55" y2="412.33" xlink:href="#b257474a-8891-4a6b-8bb8-4a7f429486b5"/><linearGradient id="a9cfc9ad-ed2b-4cee-a463-64fd12cb6aa0" x1="149.31" y1="265.83" x2="254.86" y2="436.83" xlink:href="#b257474a-8891-4a6b-8bb8-4a7f429486b5"/><linearGradient id="f04ccce5-41dd-4ea3-89dd-03e4aa493e8b" x1="153.23" y1="263.41" x2="258.78" y2="434.41" xlink:href="#b257474a-8891-4a6b-8bb8-4a7f429486b5"/><linearGradient id="e976fc3d-55b0-45e7-9440-a35972d1bea4" x1="157.16" y1="260.98" x2="262.7" y2="431.98" xlink:href="#b257474a-8891-4a6b-8bb8-4a7f429486b5"/><linearGradient id="b12be546-b5cc-486f-900b-a85621e57cea" x1="161.08" y1="258.56" x2="266.63" y2="429.56" xlink:href="#b257474a-8891-4a6b-8bb8-4a7f429486b5"/><linearGradient id="fe443b0e-b462-4613-992d-58313f157b78" x1="165.01" y1="256.14" x2="270.55" y2="427.14" xlink:href="#b257474a-8891-4a6b-8bb8-4a7f429486b5"/><linearGradient id="ed38c4f0-9f38-4773-a503-75313e82d155" x1="168.93" y1="253.72" x2="274.48" y2="424.72" xlink:href="#b257474a-8891-4a6b-8bb8-4a7f429486b5"/><linearGradient id="fd61ebd5-a3c9-45fa-aeef-81cc422503f9" x1="172.85" y1="251.3" x2="278.4" y2="422.3" xlink:href="#b257474a-8891-4a6b-8bb8-4a7f429486b5"/><linearGradient id="b8f1aac7-3d50-4d27-a698-ccadeb8778fc" x1="176.78" y1="248.87" x2="282.32" y2="419.87" xlink:href="#b257474a-8891-4a6b-8bb8-4a7f429486b5"/><linearGradient id="b0247133-e76b-479f-a80e-8f55a4701d09" x1="180.7" y1="246.45" x2="286.25" y2="417.45" xlink:href="#b257474a-8891-4a6b-8bb8-4a7f429486b5"/><linearGradient id="b288dd62-6e7f-40ea-b1fe-0bdc184fa2a7" x1="141.01" y1="270.95" x2="246.55" y2="441.95" xlink:href="#b257474a-8891-4a6b-8bb8-4a7f429486b5"/><linearGradient id="b3b071d8-499d-4a3d-8a3c-a35a6eb53a48" x1="144.93" y1="268.53" x2="250.48" y2="439.53" xlink:href="#b257474a-8891-4a6b-8bb8-4a7f429486b5"/><linearGradient id="bd0fd957-d2b5-47fe-aff1-bb80160784a5" x1="148.86" y1="266.11" x2="254.4" y2="437.11" xlink:href="#b257474a-8891-4a6b-8bb8-4a7f429486b5"/><linearGradient id="b5bc0fc8-fe98-482e-993e-d611eccf888c" x1="152.78" y1="263.69" x2="258.32" y2="434.69" xlink:href="#b257474a-8891-4a6b-8bb8-4a7f429486b5"/><linearGradient id="aac130c5-baeb-420c-9983-e5bad15fc664" x1="156.7" y1="261.27" x2="262.25" y2="432.27" xlink:href="#b257474a-8891-4a6b-8bb8-4a7f429486b5"/><linearGradient id="ac111b5d-f4bd-4294-828c-9fe5cb06bf67" x1="160.63" y1="258.84" x2="266.17" y2="429.84" xlink:href="#b257474a-8891-4a6b-8bb8-4a7f429486b5"/><linearGradient id="b7297e78-b601-4e23-a67d-8349aab9614b" x1="164.55" y1="256.42" x2="270.1" y2="427.42" xlink:href="#b257474a-8891-4a6b-8bb8-4a7f429486b5"/><linearGradient id="e9179fe8-4b37-4b43-8559-6e82a50bf79d" x1="168.48" y1="254" x2="274.02" y2="425" xlink:href="#b257474a-8891-4a6b-8bb8-4a7f429486b5"/><linearGradient id="b158c344-f407-49c7-af95-5bf3c3a23f3c" x1="172.4" y1="251.58" x2="277.94" y2="422.58" xlink:href="#b257474a-8891-4a6b-8bb8-4a7f429486b5"/><linearGradient id="e3fb08ad-29fe-44aa-8088-ab876049eb37" x1="132.7" y1="276.08" x2="238.25" y2="447.08" xlink:href="#b257474a-8891-4a6b-8bb8-4a7f429486b5"/><linearGradient id="a24a5535-a255-4875-9ad4-fa7fb7b64063" x1="136.63" y1="273.66" x2="242.17" y2="444.66" xlink:href="#b257474a-8891-4a6b-8bb8-4a7f429486b5"/><linearGradient id="e793b39e-8ccf-466e-a66b-0b7ceea2910f" x1="140.55" y1="271.23" x2="246.1" y2="442.23" xlink:href="#b257474a-8891-4a6b-8bb8-4a7f429486b5"/><linearGradient id="ed063162-4ead-4e74-92a2-f6ec183179b0" x1="144.48" y1="268.81" x2="250.02" y2="439.81" xlink:href="#b257474a-8891-4a6b-8bb8-4a7f429486b5"/><linearGradient id="a4309c45-3851-42d0-a4b1-c2b355ce1a60" x1="148.4" y1="266.39" x2="253.95" y2="437.39" xlink:href="#b257474a-8891-4a6b-8bb8-4a7f429486b5"/><linearGradient id="bae771ac-b136-4f3d-be60-64c31d731ba2" x1="152.32" y1="263.97" x2="257.87" y2="434.97" xlink:href="#b257474a-8891-4a6b-8bb8-4a7f429486b5"/><linearGradient id="a1d5de38-20a2-41ee-908f-23567fdd1854" x1="156.25" y1="261.55" x2="261.79" y2="432.55" xlink:href="#b257474a-8891-4a6b-8bb8-4a7f429486b5"/><linearGradient id="a6bb9dd0-7587-4970-a632-feba8c7139f9" x1="160.17" y1="259.12" x2="265.72" y2="430.12" xlink:href="#b257474a-8891-4a6b-8bb8-4a7f429486b5"/><linearGradient id="b353291b-d302-4396-9f28-0e9015ba4270" x1="164.1" y1="256.7" x2="269.64" y2="427.7" xlink:href="#b257474a-8891-4a6b-8bb8-4a7f429486b5"/><linearGradient id="b3037d8a-dd53-4541-829d-ec789286b2db" x1="124.4" y1="281.2" x2="229.95" y2="452.2" xlink:href="#b257474a-8891-4a6b-8bb8-4a7f429486b5"/><linearGradient id="b9bda194-50cb-4fed-b814-57235df62a3c" x1="128.33" y1="278.78" x2="233.87" y2="449.78" xlink:href="#b257474a-8891-4a6b-8bb8-4a7f429486b5"/><linearGradient id="a197b582-8c97-4678-8505-6429ebed2c9c" x1="132.25" y1="276.36" x2="237.8" y2="447.36" xlink:href="#b257474a-8891-4a6b-8bb8-4a7f429486b5"/><linearGradient id="af01de59-1929-4cf1-877e-06bbb540cbb1" x1="136.17" y1="273.94" x2="241.72" y2="444.94" xlink:href="#b257474a-8891-4a6b-8bb8-4a7f429486b5"/><linearGradient id="b8707b7d-736c-4144-b813-0cfd489b76ab" x1="140.1" y1="271.51" x2="245.64" y2="442.51" xlink:href="#b257474a-8891-4a6b-8bb8-4a7f429486b5"/><linearGradient id="eb576ed9-d775-46ee-a3e5-ff87dfdeb2f4" x1="144.02" y1="269.09" x2="249.57" y2="440.09" xlink:href="#b257474a-8891-4a6b-8bb8-4a7f429486b5"/><linearGradient id="b661d1dc-3c8c-4c2e-84fa-05e78b36d449" x1="147.95" y1="266.67" x2="253.49" y2="437.67" xlink:href="#b257474a-8891-4a6b-8bb8-4a7f429486b5"/><linearGradient id="ac5d287c-2385-48a4-a8be-815b924109ae" x1="151.87" y1="264.25" x2="257.42" y2="435.25" xlink:href="#b257474a-8891-4a6b-8bb8-4a7f429486b5"/><linearGradient id="b519cbbc-d741-4ea8-b545-db276462b0b9" x1="155.79" y1="261.83" x2="261.34" y2="432.83" xlink:href="#b257474a-8891-4a6b-8bb8-4a7f429486b5"/><linearGradient id="a2bc0614-e28a-4ffe-a642-728f74edd8d9" x1="116.1" y1="286.33" x2="221.64" y2="457.33" xlink:href="#b257474a-8891-4a6b-8bb8-4a7f429486b5"/><linearGradient id="e3a69114-ea48-49c0-bcc3-208f64949381" x1="120.02" y1="283.9" x2="225.57" y2="454.9" xlink:href="#b257474a-8891-4a6b-8bb8-4a7f429486b5"/><linearGradient id="e80815b1-8be2-4e1b-8678-6ac521a9941a" x1="123.95" y1="281.48" x2="229.49" y2="452.48" xlink:href="#b257474a-8891-4a6b-8bb8-4a7f429486b5"/><linearGradient id="bd9da936-c325-4903-aa25-ef8a75d8b8e4" x1="127.87" y1="279.06" x2="233.42" y2="450.06" xlink:href="#b257474a-8891-4a6b-8bb8-4a7f429486b5"/><linearGradient id="a42ec7fa-de8d-4ce4-a977-fda036df917e" x1="131.8" y1="276.64" x2="237.34" y2="447.64" xlink:href="#b257474a-8891-4a6b-8bb8-4a7f429486b5"/><linearGradient id="aa54e09a-2430-4445-b0b4-5e92375f60e8" x1="135.72" y1="274.22" x2="241.27" y2="445.22" xlink:href="#b257474a-8891-4a6b-8bb8-4a7f429486b5"/><linearGradient id="acc73f7e-9815-4d56-8b32-c18da6e123d0" x1="139.64" y1="271.79" x2="245.19" y2="442.79" xlink:href="#b257474a-8891-4a6b-8bb8-4a7f429486b5"/><linearGradient id="a0c222d6-10c2-4c92-823b-38063f51db7c" x1="143.57" y1="269.37" x2="249.11" y2="440.37" xlink:href="#b257474a-8891-4a6b-8bb8-4a7f429486b5"/><linearGradient id="e0b09414-8349-4bd0-a6cf-450ed214be5f" x1="147.49" y1="266.95" x2="253.04" y2="437.95" xlink:href="#b257474a-8891-4a6b-8bb8-4a7f429486b5"/><linearGradient id="ac4fe5b3-24e0-409e-99a0-813077f69c75" x1="107.8" y1="291.45" x2="213.34" y2="462.45" xlink:href="#b257474a-8891-4a6b-8bb8-4a7f429486b5"/><linearGradient id="a3f2c6ba-dce5-40bc-a619-526852d062d7" x1="111.72" y1="289.03" x2="217.27" y2="460.03" xlink:href="#b257474a-8891-4a6b-8bb8-4a7f429486b5"/><linearGradient id="fa165acd-3ce5-4f5d-b751-a78bb9824864" x1="115.65" y1="286.61" x2="221.19" y2="457.61" xlink:href="#b257474a-8891-4a6b-8bb8-4a7f429486b5"/><linearGradient id="fd8234d3-0dd2-4827-8fce-21c0e0045378" x1="119.57" y1="284.19" x2="225.11" y2="455.19" xlink:href="#b257474a-8891-4a6b-8bb8-4a7f429486b5"/><linearGradient id="ec7e5ba7-03d8-4a77-bae5-bdbe8d364e38" x1="123.49" y1="281.76" x2="229.04" y2="452.76" xlink:href="#b257474a-8891-4a6b-8bb8-4a7f429486b5"/><linearGradient id="b4aa7eb4-5103-4bb7-9554-a1d62cd459f8" x1="127.42" y1="279.34" x2="232.96" y2="450.34" xlink:href="#b257474a-8891-4a6b-8bb8-4a7f429486b5"/><linearGradient id="ad438704-9364-4e0a-af5d-ad6e80507b4c" x1="131.34" y1="276.92" x2="236.89" y2="447.92" xlink:href="#b257474a-8891-4a6b-8bb8-4a7f429486b5"/><linearGradient id="ea5d6656-f60b-4de6-8562-711127a43d62" x1="135.27" y1="274.5" x2="240.81" y2="445.5" xlink:href="#b257474a-8891-4a6b-8bb8-4a7f429486b5"/><linearGradient id="abf83176-3e85-4cd2-9b8f-6b1f8a3adc4e" x1="139.19" y1="272.08" x2="244.73" y2="443.08" xlink:href="#b257474a-8891-4a6b-8bb8-4a7f429486b5"/><linearGradient id="ae8edaf9-dfb8-4d47-a362-5d43f19bd2c9" x1="33.23" y1="167.85" x2="146.55" y2="12.4" xlink:href="#bc022b65-441e-4fe3-9328-d94f5e78aedd"/><linearGradient id="a692f2a5-4b37-4d81-a58c-778d31b58417" x1="-3.3" y1="27.9" x2="23.7" y2="198.9" xlink:href="#bc022b65-441e-4fe3-9328-d94f5e78aedd"/><linearGradient id="e3ed3841-a1ff-4b07-a61b-e437c9d7fb3c" x1="247.78" y1="157.59" x2="67.78" y2="212.68" xlink:href="#bc022b65-441e-4fe3-9328-d94f5e78aedd"/><linearGradient id="a76f5e99-3eea-4855-b719-1395175142be" x1="238.11" y1="117.14" x2="49.38" y2="243.68" xlink:href="#bc022b65-441e-4fe3-9328-d94f5e78aedd"/><linearGradient id="f37b3bf3-9270-41bc-989f-60008a12bfb5" x1="234.99" y1="148.35" x2="91.27" y2="214.07" xlink:href="#b257474a-8891-4a6b-8bb8-4a7f429486b5"/><linearGradient id="a37e296d-a0d2-4c37-8c4e-5ce603624789" x1="81.18" y1="80" x2="89.51" y2="80" xlink:href="#b257474a-8891-4a6b-8bb8-4a7f429486b5"/><linearGradient id="e33b418b-5c19-4d8b-a098-3a5f91a44788" x1="48.31" y1="89.63" x2="60.87" y2="89.63" xlink:href="#b257474a-8891-4a6b-8bb8-4a7f429486b5"/><linearGradient id="a3778f88-cd87-4af7-b9eb-bc7c4808b11f" x1="108.39" y1="70.7" x2="119.07" y2="70.7" xlink:href="#b257474a-8891-4a6b-8bb8-4a7f429486b5"/><linearGradient id="ade1f3c7-b35f-4444-b7d1-4c785a300ec4" x1="62.96" y1="84.56" x2="79.03" y2="84.56" xlink:href="#b257474a-8891-4a6b-8bb8-4a7f429486b5"/><linearGradient id="a430e524-7475-4587-9358-16717aa79d71" x1="91.97" y1="76.43" x2="106.94" y2="76.43" xlink:href="#b257474a-8891-4a6b-8bb8-4a7f429486b5"/><linearGradient id="a475573e-8783-4f25-9cee-2e9e712f2b07" x1="69.53" y1="112.54" x2="77.04" y2="112.54" xlink:href="#b257474a-8891-4a6b-8bb8-4a7f429486b5"/><linearGradient id="ab677182-bd25-4479-9041-2f6fd5659752" x1="84.36" y1="128.58" x2="96.97" y2="128.58" xlink:href="#b257474a-8891-4a6b-8bb8-4a7f429486b5"/><linearGradient id="e5939a61-d444-4497-adcc-b674f12f08e5" x1="76.02" y1="121.05" x2="84.83" y2="121.05" xlink:href="#b257474a-8891-4a6b-8bb8-4a7f429486b5"/><linearGradient id="b59cae7e-e17e-409c-9173-bd870f275fe2" x1="58.88" y1="102.85" x2="70.24" y2="102.85" xlink:href="#b257474a-8891-4a6b-8bb8-4a7f429486b5"/><linearGradient id="b35843f3-c2fb-4045-b631-4da4d71b88cf" x1="99.72" y1="102.23" x2="106.64" y2="102.23" xlink:href="#b257474a-8891-4a6b-8bb8-4a7f429486b5"/><linearGradient id="abc163e0-5858-4250-b664-740c4d16414f" x1="95.83" y1="114.69" x2="101.79" y2="114.69" xlink:href="#b257474a-8891-4a6b-8bb8-4a7f429486b5"/><linearGradient id="b1a664bf-0ee1-4588-8d6a-b4dba4956afa" x1="104.33" y1="87.96" x2="111.55" y2="87.96" xlink:href="#b257474a-8891-4a6b-8bb8-4a7f429486b5"/></defs><title>footer notebook</title><polygon class="ff165346-33ef-45a5-bf01-27dd234fabaf" points="142.22 314.33 9.65 237.79 142.21 161.25 274.78 237.79 142.22 314.33"/><polygon class="b8b2249e-4484-412f-b287-5858c6abbea6" points="142.22 293.43 45.84 237.79 142.21 182.15 238.58 237.79 142.22 293.43"/><polygon class="e73f168f-9cfb-443b-84ec-3f0b57d8f7a2" points="142.21 185.92 235.32 239.67 238.58 237.79 142.21 182.15 45.84 237.79 49.11 239.67 142.21 185.92"/><polygon class="bc08fc1f-55fb-438d-9bf4-6f510ff32066" points="274.78 237.79 274.78 281.18 142.22 357.71 142.22 314.33 274.78 237.79"/><polygon class="fcc07a03-4371-47bf-abbc-1216efcc5513" points="9.65 237.79 9.65 281.17 142.22 357.71 142.22 314.33 9.65 237.79"/><g class="f0494594-8567-4404-a785-eadf521a8080"><polygon class="aeb6fa45-8865-4d1d-b239-f8991f18d166" points="18.63 257.28 18.63 270.94 133.24 337.11 133.24 323.45 18.63 257.28"/></g><polygon class="ad933bdc-e12c-47f8-a511-d4b396bdbfda" points="142.22 311.84 11.8 236.54 9.65 237.79 142.22 314.33 274.78 237.79 272.63 236.55 142.22 311.84"/><polygon class="be70ff70-32b0-4b17-8981-02889d2c7785" points="254.9 268.19 254.9 275.96 162.1 329.53 162.1 321.77 254.9 268.19"/><polygon class="a344d2a7-f72e-40f5-a113-e358d305abbd" points="9.65 237.79 9.65 281.17 142.22 357.71 142.22 314.33 9.65 237.79"/><polygon class="f011b4f1-2996-4bde-998b-0ae571509b8a" points="103.52 312.02 79.51 298.16 79.51 301.02 103.51 314.88 103.52 312.02"/><polygon class="b90617b4-bd21-4f5b-bb3d-028e91287343" points="76.05 296.19 69.55 292.44 69.54 295.3 76.05 299.06 76.05 296.19"/><polygon class="a3a580af-8cb4-4d7e-9699-a6577218b7f3" points="45.58 278.6 32.27 270.92 32.27 273.78 45.58 281.47 45.58 278.6"/><polygon class="ae86abc9-c132-4fbf-9a21-9538140f2a97" points="57.72 285.62 48.1 280.06 48.1 282.92 57.72 288.48 57.72 285.62"/><polygon class="b8435d3c-84db-4a3f-9a8a-5666c3d38f69" points="66.75 290.83 60.24 287.07 60.24 289.94 66.75 293.69 66.75 290.83"/><polygon class="e436e7b8-11b9-43a6-9091-63e6d15af59d" points="142.35 201.25 138.14 198.82 142.35 196.39 146.56 198.82 142.35 201.25"/><polygon class="bfc5bbbb-fd80-4fbe-8fd0-bd2175734bce" points="150.77 206.12 146.56 203.69 150.77 201.25 154.98 203.69 150.77 206.12"/><polygon class="af151724-0b08-4dab-ae03-cf0b8f96522b" points="159.19 210.98 154.98 208.55 159.19 206.12 163.4 208.55 159.19 210.98"/><polygon class="baa40ba5-4cd1-41e8-a290-87c0f8a182e4" points="167.61 215.84 163.4 213.41 167.61 210.98 171.82 213.41 167.61 215.84"/><polygon class="fa8ffe1b-d7f6-40ad-81f9-36a989263354" points="176.03 220.7 171.82 218.27 176.03 215.84 180.24 218.27 176.03 220.7"/><polygon class="b4110232-0ba4-46b8-882a-a83bdad77a8b" points="184.44 225.56 180.24 223.13 184.44 220.7 188.66 223.13 184.44 225.56"/><polygon class="b7f31583-9d87-4c10-8159-8333d9fa2757" points="192.87 230.42 188.66 227.99 192.86 225.56 197.07 227.99 192.87 230.42"/><polygon class="a3df14ab-2fef-4959-ba52-cae7195628fc" points="201.28 235.28 197.07 232.85 201.28 230.42 205.49 232.85 201.28 235.28"/><polygon class="e379104c-a5df-4cce-adab-e4019d357958" points="209.7 240.14 205.49 237.71 209.7 235.28 213.91 237.71 209.7 240.14"/><polygon class="bded6f6c-5267-434f-9592-d4acbbdad1a9" points="133.9 206.13 129.69 203.71 133.9 201.28 138.11 203.71 133.9 206.13"/><polygon class="b031afea-9e89-4539-b523-7a78438dbed4" points="142.32 211 138.11 208.57 142.32 206.13 146.53 208.57 142.32 211"/><polygon class="e6193845-c58d-4323-b194-e6d02fb68cdd" points="150.74 215.86 146.53 213.43 150.74 211 154.94 213.43 150.74 215.86"/><polygon class="a5cd8a23-6637-492c-ba29-5c4db1bf1779" points="159.15 220.72 154.94 218.29 159.15 215.86 163.36 218.29 159.15 220.72"/><polygon class="ba5ef848-45c2-45bc-a38d-6b42c32bf3d5" points="167.57 225.58 163.36 223.15 167.57 220.72 171.78 223.15 167.57 225.58"/><polygon class="b9f5e544-f2a3-4d37-a155-04a54e326054" points="175.99 230.44 171.78 228.01 175.99 225.58 180.2 228.01 175.99 230.44"/><polygon class="f0744636-ab7b-4e51-8edf-14c0d9c74aa6" points="184.41 235.3 180.2 232.87 184.41 230.44 188.62 232.87 184.41 235.3"/><polygon class="b5267124-4526-4142-b6d7-62b7ba598763" points="192.83 240.16 188.62 237.73 192.83 235.3 197.04 237.73 192.83 240.16"/><polygon class="ab323fd6-ae49-45a2-a6be-0562274fa5df" points="201.25 245.02 197.04 242.59 201.25 240.16 205.46 242.59 201.25 245.02"/><polygon class="f1512728-7b4f-4728-b043-065354b741e2" points="125.44 211.02 121.23 208.59 125.44 206.16 129.65 208.59 125.44 211.02"/><polygon class="be0b99e9-e6c1-4367-bc0d-e8e90f101e5f" points="133.86 215.88 129.65 213.45 133.86 211.02 138.07 213.45 133.86 215.88"/><polygon class="bc773785-b975-40cc-bd7c-d0dedc219af2" points="142.28 220.74 138.07 218.31 142.28 215.88 146.49 218.31 142.28 220.74"/><polygon class="eab80b5a-7eed-4ef9-b7de-09501328e364" points="150.7 225.6 146.49 223.17 150.7 220.74 154.91 223.17 150.7 225.6"/><polygon class="f26330c4-9fe3-4874-8b64-03fe34f5c987" points="159.12 230.46 154.91 228.03 159.12 225.6 163.33 228.03 159.12 230.46"/><polygon class="e93196f1-5a8e-4ce0-9450-45c78fd5df73" points="167.54 235.32 163.33 232.89 167.54 230.46 171.75 232.89 167.54 235.32"/><polygon class="f2554fa0-e99e-45fb-a51b-048f10502f00" points="175.96 240.18 171.75 237.75 175.96 235.32 180.17 237.75 175.96 240.18"/><polygon class="ac8e5491-1b8e-4e01-b8a6-690a7fed89e3" points="184.38 245.04 180.17 242.61 184.38 240.18 188.59 242.61 184.38 245.04"/><polygon class="e9bf1f31-65cf-438e-8300-685b27c12163" points="192.8 249.9 188.59 247.47 192.8 245.04 197.01 247.47 192.8 249.9"/><polygon class="e2899ca3-eb61-4855-86a9-dbd76e15dc44" points="116.99 215.9 112.78 213.47 116.99 211.03 121.2 213.47 116.99 215.9"/><polygon class="b900d55f-ff76-49ea-8867-90ebc22da076" points="125.41 220.76 121.2 218.33 125.41 215.9 129.62 218.33 125.41 220.76"/><polygon class="b86684bf-f439-4ef3-8058-85e89e09b5b0" points="133.83 225.62 129.62 223.19 133.83 220.76 138.04 223.19 133.83 225.62"/><polygon class="b9b54726-9cbb-4467-9016-800bf9458dca" points="142.25 230.48 138.04 228.05 142.25 225.62 146.46 228.05 142.25 230.48"/><polygon class="b4e3c313-7a90-4af2-aa8d-d69e2a616fc5" points="150.67 235.34 146.46 232.91 150.67 230.48 154.88 232.91 150.67 235.34"/><polygon class="b8444053-07a8-48d8-a750-ca94b22e359c" points="159.09 240.2 154.88 237.77 159.09 235.34 163.29 237.77 159.09 240.2"/><polygon class="eecac03a-3f91-4631-98a7-0a1121237d7e" points="167.5 245.06 163.29 242.63 167.5 240.2 171.71 242.63 167.5 245.06"/><polygon class="b6e41c60-ef4e-406b-be1a-5eb6b3351244" points="175.92 249.92 171.71 247.49 175.92 245.06 180.13 247.49 175.92 249.92"/><polygon class="fef906cc-dedc-49f6-9113-dcef7c67f48c" points="184.34 254.78 180.13 252.35 184.34 249.92 188.55 252.35 184.34 254.78"/><polygon class="b7d26193-edff-4e7f-bfd0-46dc9c05659b" points="108.54 220.78 104.33 218.35 108.54 215.92 112.75 218.35 108.54 220.78"/><polygon class="a32846b1-ea61-45c9-99f6-a5f097d4236e" points="116.96 225.64 112.75 223.21 116.96 220.78 121.17 223.21 116.96 225.64"/><polygon class="a20004fb-8f04-4ea5-a82a-dae17af2ff49" points="125.38 230.5 121.17 228.07 125.38 225.64 129.59 228.07 125.38 230.5"/><polygon class="b2e41f35-ebbf-4eb4-883a-3413173b04d2" points="133.79 235.36 129.59 232.93 133.79 230.5 138 232.93 133.79 235.36"/><polygon class="be2aa984-9ce6-4d17-b531-2b5edab07c73" points="142.21 240.22 138 237.79 142.21 235.36 146.42 237.79 142.21 240.22"/><polygon class="a72a74b9-109d-4879-9218-e418debdcc5d" points="150.63 245.08 146.42 242.65 150.63 240.22 154.84 242.65 150.63 245.08"/><polygon class="a7da7e9f-24c3-4996-87d8-c5c30fead8a0" points="159.05 249.94 154.84 247.51 159.05 245.08 163.26 247.51 159.05 249.94"/><polygon class="e6fcdf36-0d03-4290-ba59-7e57e15a88f4" points="167.47 254.8 163.26 252.37 167.47 249.94 171.68 252.37 167.47 254.8"/><polygon class="e32d7590-0d68-4b12-a16f-75c640145be8" points="175.89 259.66 171.68 257.23 175.89 254.8 180.1 257.23 175.89 259.66"/><polygon class="a1d752da-df3f-4d82-af47-ad39dd255f13" points="100.08 225.66 95.87 223.23 100.08 220.8 104.29 223.23 100.08 225.66"/><polygon class="bcc276f4-6bb3-47ce-9d3e-2599d9a8e72c" points="108.5 230.52 104.29 228.09 108.5 225.66 112.71 228.09 108.5 230.52"/><polygon class="a213da98-c644-41b3-a9f5-3ad7d0c1a7f9" points="116.92 235.38 112.71 232.95 116.92 230.52 121.13 232.95 116.92 235.38"/><polygon class="e8282333-bb9a-4b83-aeda-4f419ef77d68" points="125.34 240.24 121.13 237.81 125.34 235.38 129.55 237.81 125.34 240.24"/><polygon class="a107f322-ff9b-4878-90d7-55bdfa66ce50" points="133.76 245.1 129.55 242.67 133.76 240.24 137.97 242.67 133.76 245.1"/><polygon class="abe4b73a-91bd-4b5d-8316-0b6f3db4bf6c" points="142.18 249.96 137.97 247.53 142.18 245.1 146.39 247.53 142.18 249.96"/><polygon class="e7676f33-86c9-43c9-9592-729a3f00127b" points="150.6 254.82 146.39 252.39 150.6 249.96 154.81 252.39 150.6 254.82"/><polygon class="af889294-1f80-4ed9-99c5-b0e781fc02ab" points="159.02 259.68 154.81 257.25 159.02 254.82 163.23 257.25 159.02 259.68"/><polygon class="fa0df1d6-7413-44b9-bad2-f00e0734be7c" points="167.44 264.54 163.23 262.11 167.44 259.68 171.65 262.11 167.44 264.54"/><polygon class="a67f3ac3-5562-45a4-9d22-421ea9012962" points="91.63 230.54 87.42 228.11 91.63 225.68 95.84 228.11 91.63 230.54"/><polygon class="ae2ca7a9-0626-489f-8521-4715052e3010" points="100.05 235.4 95.84 232.97 100.05 230.54 104.26 232.97 100.05 235.4"/><polygon class="b41367e5-d550-4a40-b722-842c6c2ce7f6" points="108.47 240.26 104.26 237.83 108.47 235.4 112.68 237.83 108.47 240.26"/><polygon class="a4181aa3-001b-4d6f-a6c5-1aaa36fb34e4" points="116.89 245.12 112.68 242.69 116.89 240.26 121.1 242.69 116.89 245.12"/><polygon class="a982cd09-61e6-44a4-8266-7522fd94240e" points="125.31 249.98 121.1 247.55 125.31 245.12 129.52 247.55 125.31 249.98"/><polygon class="b5938b71-3ecd-4d2e-b9f8-671701f2c154" points="133.73 254.84 129.52 252.41 133.73 249.98 137.94 252.41 133.73 254.84"/><polygon class="bb0cfa7c-0cb8-46e0-9009-7dae4b48b572" points="142.15 259.7 137.94 257.27 142.15 254.84 146.35 257.27 142.15 259.7"/><polygon class="a127481f-30d3-462a-8f2b-dd495617a96b" points="150.56 264.56 146.35 262.13 150.56 259.7 154.77 262.13 150.56 264.56"/><polygon class="b320d710-517d-46bf-b422-efcc516cd407" points="158.98 269.42 154.77 266.99 158.98 264.56 163.19 266.99 158.98 269.42"/><polygon class="ace63da5-3326-4160-a583-1fc3b37cdb6f" points="83.18 235.42 78.97 232.99 83.18 230.56 87.39 232.99 83.18 235.42"/><polygon class="aee4db15-e3b6-43ab-9446-36502c68a9f5" points="91.6 240.28 87.39 237.85 91.6 235.42 95.81 237.85 91.6 240.28"/><polygon class="ade37239-2b79-43ae-bf0a-46b5cfb4664f" points="100.02 245.14 95.81 242.71 100.02 240.28 104.22 242.71 100.02 245.14"/><polygon class="a5622f37-e4a2-4ad6-81f2-b3ceda7431cc" points="108.44 250 104.22 247.57 108.44 245.14 112.64 247.57 108.44 250"/><polygon class="f74c546b-2111-4737-b693-9423057ddc35" points="116.85 254.86 112.64 252.43 116.85 250 121.06 252.43 116.85 254.86"/><polygon class="bf48aaab-03d3-4a41-92cb-66986350ed9d" points="125.27 259.72 121.06 257.29 125.27 254.86 129.48 257.29 125.27 259.72"/><polygon class="e9d62319-65e8-4569-a3cc-c8aca46ccb2b" points="133.69 264.58 129.48 262.15 133.69 259.72 137.9 262.15 133.69 264.58"/><polygon class="aaecb780-b06e-4ff5-a495-2a3c98587c67" points="142.11 269.44 137.9 267.01 142.11 264.58 146.32 267.01 142.11 269.44"/><polygon class="b4c617ae-33ff-4445-8a3b-446723eff788" points="150.53 274.3 146.32 271.87 150.53 269.44 154.74 271.87 150.53 274.3"/><polygon class="f4b30811-9388-45ae-96ef-68ecad1e3e59" points="74.72 240.3 70.52 237.87 74.72 235.44 78.93 237.87 74.72 240.3"/><polygon class="f0834cf7-c5ba-4575-810e-2bc9410e7ad6" points="83.14 245.16 78.93 242.73 83.14 240.3 87.35 242.73 83.14 245.16"/><polygon class="b2cf32c9-8b89-4743-b242-4116fef95c8f" points="91.56 250.02 87.35 247.59 91.56 245.16 95.77 247.59 91.56 250.02"/><polygon class="b31b82f0-1c58-4646-806d-167ba853000a" points="99.98 254.88 95.77 252.45 99.98 250.02 104.19 252.45 99.98 254.88"/><polygon class="a5847472-c4fe-4dff-867f-02a3a03a6d9d" points="108.4 259.74 104.19 257.31 108.4 254.88 112.61 257.31 108.4 259.74"/><polygon class="f1535726-acb5-4541-8e60-120a2e14f418" points="116.82 264.6 112.61 262.17 116.82 259.74 121.03 262.17 116.82 264.6"/><polygon class="a8a132ea-e74b-412f-804f-846456f5dd5f" points="125.24 269.46 121.03 267.03 125.24 264.6 129.45 267.03 125.24 269.46"/><polygon class="f251ec26-e3d4-4a06-967d-a25570d6cb1f" points="133.66 274.32 129.45 271.89 133.66 269.46 137.87 271.89 133.66 274.32"/><polygon class="b1367ad0-8236-438c-973e-4ad47b2dd8ac" points="142.08 279.19 137.87 276.75 142.08 274.32 146.29 276.75 142.08 279.19"/><path class="a68af247-9b58-419a-9540-d63aacaf80c8" d="M167.35,109.61,149.22,2.05l1.46-.61L148.49.18h0a1.59,1.59,0,0,0-1.69.12L1.91,84A4.09,4.09,0,0,0,0,87.64L18.3,196.06a1.37,1.37,0,0,0,.77,1.1h0l2.14,1.24.37-2-.13,0,144-83.15A4.09,4.09,0,0,0,167.35,109.61Z"/><path class="be5b4df7-71b5-47a2-a242-23bcf27f8096" d="M2.72,86.9.34,85.85A3.26,3.26,0,0,0,0,87.64L18.3,196.06a1.37,1.37,0,0,0,.77,1.1h0l2.14,1.24.37-2-.13,0,7.29-4.21Z"/><path class="b27e9476-663e-43fb-a06f-15212ceb3e4e" d="M167.74,114.59,22.85,198.25c-1.12.64-2.08.27-2.27-.89L2.3,89a4.08,4.08,0,0,1,1.88-3.68L149.08,1.61c1.12-.64,2.07-.27,2.27.89l18.27,108.41A4.07,4.07,0,0,1,167.74,114.59Z"/><polygon class="af91ede9-6abf-4e49-8fb1-5086a73abea9" points="147.18 8.53 7.52 89.17 24.84 191.27 164.41 110.69 147.18 8.53"/><path class="fac7c7d6-afb7-44e0-95c6-601c0db10b37" d="M258.82,165.92l-7.91,4.13-79.28-45.77a5.76,5.76,0,0,0-5.18.21l-136.75,79c-1.31-.73-7.27-3.6-7.27-3.6l2.89,7.54h0a1.72,1.72,0,0,0,.81.9l83.51,48.21a5.74,5.74,0,0,0,5.17-.21l139.94-80.79a2.54,2.54,0,0,0,1.17-1.25h0Z"/><path class="aa471594-855e-4905-8cef-fdd80fe3c228" d="M257.6,167.22,114.18,250a5.89,5.89,0,0,1-5.3.21L23.29,200.83c-1.36-.78-1.19-2.15.38-3.06L167.09,115a5.88,5.88,0,0,1,5.31-.22L258,164.16C259.34,165,259.17,166.32,257.6,167.22Z"/><path class="ab11b83a-6d88-4fe5-8a46-4bf2ad4e018e" d="M257.6,166.4,114.18,249.2a5.92,5.92,0,0,1-5.3.22L23.29,200a1.78,1.78,0,0,1-.83-.93,1.44,1.44,0,0,0,.83,1.75l85.59,49.41a5.89,5.89,0,0,0,5.3-.21L257.6,167.22c1-.61,1.46-1.42,1.21-2.13A2.56,2.56,0,0,1,257.6,166.4Z"/><path class="be70ff70-32b0-4b17-8981-02889d2c7785" d="M70.92,232.11v-1.57c0-.15.09-.22.2-.15l5.55,3.2a.49.49,0,0,1,.2.39v1.57c0,.15-.09.22-.2.15l-5.55-3.2A.49.49,0,0,1,70.92,232.11Z"/><path class="be70ff70-32b0-4b17-8981-02889d2c7785" d="M79.22,236.9v-1.57c0-.15.09-.22.2-.15l5.55,3.2a.49.49,0,0,1,.2.39v1.57c0,.15-.09.22-.2.15l-5.55-3.2A.49.49,0,0,1,79.22,236.9Z"/><path class="b98a310e-5cb8-4a5b-b56b-db229cbcab11" d="M45.61,196.21,164.79,127.4a2.55,2.55,0,0,1,2.56,0L209.79,152a.92.92,0,0,1,0,1.59L90.67,222.31a2.57,2.57,0,0,1-2.57,0L45.61,197.79A.91.91,0,0,1,45.61,196.21Z"/><path class="e73f168f-9cfb-443b-84ec-3f0b57d8f7a2" d="M45.61,197.79,46,198l118.76-68.57a2.57,2.57,0,0,1,2.56,0l42,24.3.42-.24a.92.92,0,0,0,0-1.59L167.35,127.4a2.55,2.55,0,0,0-2.56,0L45.61,196.21A.91.91,0,0,0,45.61,197.79Z"/><polygon class="be70ff70-32b0-4b17-8981-02889d2c7785" points="170.56 133.62 67.03 193.39 62.43 190.73 165.95 130.96 170.56 133.62"/><polygon class="be70ff70-32b0-4b17-8981-02889d2c7785" points="181.84 140.13 84.74 196.19 80.14 193.54 177.24 137.47 181.84 140.13"/><polygon class="be70ff70-32b0-4b17-8981-02889d2c7785" points="189.19 144.38 74.86 210.38 70.26 207.72 184.59 141.72 189.19 144.38"/><polygon class="be70ff70-32b0-4b17-8981-02889d2c7785" points="196.54 148.62 82.21 214.63 77.61 211.97 191.94 145.96 196.54 148.62"/><polygon class="be70ff70-32b0-4b17-8981-02889d2c7785" points="203.89 152.86 89.56 218.87 84.96 216.21 199.29 150.21 203.89 152.86"/><polygon class="be70ff70-32b0-4b17-8981-02889d2c7785" points="60.78 197 56.17 199.66 51.57 197 56.17 194.34 60.78 197"/><polygon class="be70ff70-32b0-4b17-8981-02889d2c7785" points="77.01 200.66 67.46 206.17 62.85 203.51 72.41 198 77.01 200.66"/><path class="ba3bc8ab-8031-4b35-a5d8-ed2e40ea68d9" d="M169.37,212.86l32.14-18.56a1.38,1.38,0,0,0,0-2.62l-22-12.69a5.06,5.06,0,0,0-4.55,0l-32.14,18.55a1.39,1.39,0,0,0,0,2.63l22,12.69A5,5,0,0,0,169.37,212.86Z"/><path class="bdea91d8-0af6-4048-9233-f8750529ba8d" d="M142.85,198.62,175,180.07a5,5,0,0,1,4.55,0l22,12.68a2,2,0,0,1,.79.78c.33-.64.08-1.35-.79-1.85l-22-12.69a5.06,5.06,0,0,0-4.55,0l-32.14,18.55c-.87.51-1.12,1.22-.79,1.85A2,2,0,0,1,142.85,198.62Z"/><g class="a3a7d669-242c-4143-959a-ccab831a9b0c"><path class="af993f07-05d5-445a-b3f3-7a4370a304ee" d="M87.49,84.06A6.37,6.37,0,0,0,89,76.87c-1.17-2.31-3.78-2.73-5.79-.88a6.29,6.29,0,0,0-1.33,7.34C83.06,85.47,85.57,85.78,87.49,84.06Z"/><path class="ed960cdf-d3ae-471c-847c-255aca3f7b15" d="M59.5,85.34a5.88,5.88,0,0,0-9-1,7.55,7.55,0,0,0-.5,10,5.87,5.87,0,0,0,8.68.75A7.55,7.55,0,0,0,59.5,85.34Z"/><path class="bcdd5914-d787-4e08-a7a8-11b7a955357b" d="M118.75,66.51c-1-3.28-4.2-4-7-1.44s-4.07,7.1-2.88,10.18,4.18,3.45,6.83,1.15S119.75,69.69,118.75,66.51Z"/><path class="a8eedf50-5ad6-4887-bc28-c79dd738b50e" d="M64.62,87.92l13.26-3.6A1.77,1.77,0,0,0,79,82.42a1.22,1.22,0,0,0-1.48-1.21l-13.47,3.6A1.66,1.66,0,0,0,63,86.74,1.35,1.35,0,0,0,64.62,87.92Z"/><path class="f2e275a6-f61a-4c55-8afb-68eb2c205e46" d="M93.29,79.67l12.39-3.35a2,2,0,0,0,1.25-1.89c0-.86-.5-1.43-1.18-1.25L93.19,76.53A1.93,1.93,0,0,0,92,78.45C92,79.31,92.6,79.85,93.29,79.67Z"/><path class="f88df5ad-b159-40fd-a033-caa736cf7dc1" d="M74.93,108.82a4.19,4.19,0,0,0-5.07,2.62,3.52,3.52,0,0,0,1.89,4.87,4.23,4.23,0,0,0,4.91-2.55C77.56,111.71,76.8,109.49,74.93,108.82Z"/><path class="af0372df-6490-4a6c-8ebb-3cd5963f0a83" d="M94,122.55c-3.07-1-7.1,1.09-8.86,4.61s-.57,6.77,2.44,7.54,6.63-1.19,8.4-4.39S97,123.52,94,122.55Z"/><path class="bc8b9e67-68a6-4e8c-8232-a642f4eea435" d="M84.65,124.18,78,116.43a1.08,1.08,0,0,0-1.56.07,1.17,1.17,0,0,0-.19,1.6L83,125.72a1,1,0,0,0,1.42-.1A1.07,1.07,0,0,0,84.65,124.18Z"/><path class="fd7553e3-6bbb-49b1-ac09-7fd343376db4" d="M70,107.09,61.18,96.86a1.24,1.24,0,0,0-1.87,0,1.53,1.53,0,0,0-.07,2l8.88,10a1.16,1.16,0,0,0,1.69,0A1.33,1.33,0,0,0,70,107.09Z"/><path class="adb699de-6f7f-4716-9ab2-5d69f83ec587" d="M103,98.46a5.46,5.46,0,0,0-3.27,5.17,2.55,2.55,0,0,0,3.65,2.37,5.5,5.5,0,0,0,3.26-5A2.56,2.56,0,0,0,103,98.46Z"/><path class="ae827248-2d3c-43c0-9c97-58d2fe53db16" d="M101.15,107.83a1.42,1.42,0,0,0-1.35,1l-3.91,11.6c-.19.56.07,1.06.58,1.1a1.39,1.39,0,0,0,1.27-1l4-11.51C101.93,108.47,101.68,107.9,101.15,107.83Z"/><path class="a336fc37-6f20-4152-ac6a-f3a5f1dcaa1b" d="M110.89,79.3c-.57-.14-1.27.41-1.54,1.22l-4.93,14.64c-.24.71,0,1.37.56,1.46a1.46,1.46,0,0,0,1.43-1.1l5-14.51C111.71,80.21,111.47,79.44,110.89,79.3Z"/></g></svg>