<svg id="b7e1f04a-a48c-4316-aa4d-09444f2602d4" data-name="Слой 1" xmlns="http://www.w3.org/2000/svg" viewBox="0 0 235.69 68.54"><defs><style>.b37b51a8-0c9f-4c6d-9107-7fbd86fb9efc{fill:#fff;}</style></defs><title>footer_logo</title><circle class="b37b51a8-0c9f-4c6d-9107-7fbd86fb9efc" cx="29.81" cy="16.56" r="3.81"/><circle class="b37b51a8-0c9f-4c6d-9107-7fbd86fb9efc" cx="54.79" cy="5.21" r="5.21"/><circle class="b37b51a8-0c9f-4c6d-9107-7fbd86fb9efc" cx="5.21" cy="27.57" r="5.21"/><rect class="b37b51a8-0c9f-4c6d-9107-7fbd86fb9efc" x="34.48" y="9.95" width="14.24" height="2.37" rx="1.18" transform="translate(-0.57 19.87) rotate(-26.69)"/><rect class="b37b51a8-0c9f-4c6d-9107-7fbd86fb9efc" x="10.91" y="21.39" width="14.24" height="2.37" rx="1.18" transform="translate(-8.22 10.5) rotate(-26.69)"/><circle class="b37b51a8-0c9f-4c6d-9107-7fbd86fb9efc" cx="54.03" cy="31.91" r="3.81"/><circle class="b37b51a8-0c9f-4c6d-9107-7fbd86fb9efc" cx="49.7" cy="60.93" r="7.61"/><rect class="b37b51a8-0c9f-4c6d-9107-7fbd86fb9efc" x="46.12" y="43.56" width="14.75" height="2.34" rx="1.17" transform="translate(5.89 95.69) rotate(-86.85)"/><rect class="b37b51a8-0c9f-4c6d-9107-7fbd86fb9efc" x="47.53" y="18.09" width="14.75" height="2.34" rx="1.17" transform="translate(32.65 73.02) rotate(-86.85)"/><circle class="b37b51a8-0c9f-4c6d-9107-7fbd86fb9efc" cx="25.04" cy="45.13" r="3.81"/><rect class="b37b51a8-0c9f-4c6d-9107-7fbd86fb9efc" x="27.44" y="52.28" width="14.75" height="2.34" rx="1.17" transform="translate(25.85 116.59) rotate(-138.85)"/><rect class="b37b51a8-0c9f-4c6d-9107-7fbd86fb9efc" x="8.23" y="35.49" width="14.75" height="2.34" rx="1.17" transform="translate(3.23 74.53) rotate(-138.85)"/><polygon class="b37b51a8-0c9f-4c6d-9107-7fbd86fb9efc" points="90.61 16.56 88.35 16.56 88.35 33.36 82.27 16.57 81.3 16.57 81.3 16.56 79.51 16.56 79.51 43.48 80.48 43.48 80.48 43.5 82.73 43.5 82.73 26.34 88.95 43.48 89.92 43.48 89.92 43.5 91.57 43.5 91.57 16.57 90.61 16.57 90.61 16.56"/><polygon class="b37b51a8-0c9f-4c6d-9107-7fbd86fb9efc" points="123.72 16.56 112.97 16.56 112.97 18.68 113.94 18.68 113.94 18.69 117.17 18.69 117.17 43.48 118.14 43.48 118.14 43.5 120.53 43.5 120.53 18.69 124.69 18.69 124.69 16.57 123.72 16.57 123.72 16.56"/><path class="b37b51a8-0c9f-4c6d-9107-7fbd86fb9efc" d="M128.18,43.48H129l.18,0h5.5a1.71,1.71,0,0,0,1.93-2v-3h-3.19v3.06h-3.95v-6h6.36l.78-.81v-6a1.71,1.71,0,0,0-1.93-1.94h-.79l-.17,0h-5.51a1.72,1.72,0,0,0-1.93,2V41.54A1.71,1.71,0,0,0,128.18,43.48Zm5.21-9.78h-3.95v-5h3.95Z"/><path class="b37b51a8-0c9f-4c6d-9107-7fbd86fb9efc" d="M141.32,43.48h.79l.18,0h5.44a1.71,1.71,0,0,0,1.92-2v-3.8h-3.22v3.73h-3.78V28.77h3.78V32h3.22V28.7a1.7,1.7,0,0,0-1.92-1.94h-.79l-.18,0h-5.44a1.71,1.71,0,0,0-1.92,2V41.54A1.7,1.7,0,0,0,141.32,43.48Z"/><path class="b37b51a8-0c9f-4c6d-9107-7fbd86fb9efc" d="M201.38,43.48l.18,0h5.74a1.72,1.72,0,0,0,1.95-2V28.7a1.72,1.72,0,0,0-1.95-1.94h-.78l-.18,0h-5.75a1.72,1.72,0,0,0-1.93,2V41.54a1.71,1.71,0,0,0,1.93,1.94Zm4.61-2h-4.07V28.77H206Z"/><path class="b37b51a8-0c9f-4c6d-9107-7fbd86fb9efc" d="M221.53,26.74h-2.27v.33c-1.85-.28-2.89-.42-3.11-.42s-.3,0-.44,0l-.53-.05a3,3,0,0,0-2.36,1,3.57,3.57,0,0,0-.89,2.47v9.79a3.52,3.52,0,0,0,1,2.57,3.46,3.46,0,0,0,2.55,1h.83l.14,0h2.8v4.39h-3.82V45.68h-3.22c0,.17,0,.45,0,.83s0,.68,0,.87q0,2.46,2,2.46h6.4a1.72,1.72,0,0,0,1.95-1.94V26.76h-1Zm-6.36,12.82v-9a1.65,1.65,0,0,1,1.65-1.91l2.44.15V41.47h-2.38A1.65,1.65,0,0,1,215.17,39.56Z"/><path class="b37b51a8-0c9f-4c6d-9107-7fbd86fb9efc" d="M104.61,38.39a2.22,2.22,0,0,0-.84-1.83l-6-4.9V28.74h3.66V32h3.19V28.7a1.72,1.72,0,0,0-2-1.94h-.78l-.18,0H96.49a1.72,1.72,0,0,0-1.94,2v2.79a2.17,2.17,0,0,0,.86,1.79l6,4.9v3.34H97.73V37.75H94.51v3.8a1.72,1.72,0,0,0,1.95,1.94h.78l.18,0h5.25a1.72,1.72,0,0,0,1.94-2Z"/><path class="b37b51a8-0c9f-4c6d-9107-7fbd86fb9efc" d="M153.37,43.5h2.29V28.94l4.07-.11V43.48h1v0H163v-15a1.68,1.68,0,0,0-1.91-1.88l-.56,0a2.63,2.63,0,0,0-.41,0,22.43,22.43,0,0,0-2.7.23l-1.75.22V16.57H152.4V43.48h1Z"/><path class="b37b51a8-0c9f-4c6d-9107-7fbd86fb9efc" d="M166.69,43.5H169V28.94l4.08-.11V43.48h1v0h2.29v-15a1.67,1.67,0,0,0-1.91-1.88l-.58,0a2.34,2.34,0,0,0-.38,0,22.39,22.39,0,0,0-2.72.21l-1.74.23v-.32h-1v0h-2.29V43.48h1Z"/><path class="b37b51a8-0c9f-4c6d-9107-7fbd86fb9efc" d="M187.67,43.5a1.72,1.72,0,0,0,2-2V28.7a1.72,1.72,0,0,0-2-1.94h-.78l-.18,0H181a1.72,1.72,0,0,0-1.93,2V41.54A1.71,1.71,0,0,0,181,43.48h.79l.18,0Zm-5.38-14.73h4.07v12.7h-4.07Z"/><polygon class="b37b51a8-0c9f-4c6d-9107-7fbd86fb9efc" points="193.49 43.5 195.74 43.5 195.74 16.57 194.78 16.57 194.78 16.56 192.52 16.56 192.52 43.48 193.49 43.48 193.49 43.5"/><polygon class="b37b51a8-0c9f-4c6d-9107-7fbd86fb9efc" points="234.72 26.76 234.72 26.75 232.44 26.75 230.03 37.71 227.66 26.76 226.69 26.76 226.69 26.75 224.33 26.75 228.46 43.35 226.78 49.83 227.75 49.83 227.74 49.84 230 49.84 231.66 43.36 235.69 26.76 234.72 26.76"/><path class="b37b51a8-0c9f-4c6d-9107-7fbd86fb9efc" d="M81.16,53.27a4.9,4.9,0,0,0-2,.46l.24.79a4.05,4.05,0,0,1,1.7-.4,2.71,2.71,0,0,1,2.71,2.74H80.13v.82h3.7A2.8,2.8,0,0,1,81,60.59a4.42,4.42,0,0,1-1.71-.36L79,61a5,5,0,0,0,2.07.41,3.75,3.75,0,0,0,3.81-4.08C84.92,55.07,83.66,53.27,81.16,53.27Z"/><path class="b37b51a8-0c9f-4c6d-9107-7fbd86fb9efc" d="M89.34,58.3v0A1.35,1.35,0,0,0,90.53,57c0-1.27-1.58-1.42-2.53-1.42a12.37,12.37,0,0,0-1.81.12v5.62c.31,0,1,.07,1.6.07,1.11,0,3-.19,3-1.68C90.78,58.89,90.17,58.42,89.34,58.3Zm-2.16-2c.24,0,.46-.05.8-.05,1,0,1.52.27,1.52.84S88.72,58,88,58h-.77ZM88,60.69a7.12,7.12,0,0,1-.83,0V58.7h.75c1,0,1.81.18,1.81,1S88.69,60.69,88,60.69Z"/><path class="b37b51a8-0c9f-4c6d-9107-7fbd86fb9efc" d="M94.5,55.5a2.78,2.78,0,0,0-2.82,3,2.7,2.7,0,0,0,2.72,2.93,2.78,2.78,0,0,0,2.83-3A2.69,2.69,0,0,0,94.5,55.5Zm0,5.17c-1,0-1.73-.94-1.73-2.18,0-1.08.53-2.21,1.75-2.21s1.71,1.22,1.71,2.19C96.18,59.75,95.44,60.67,94.45,60.67Z"/><path class="b37b51a8-0c9f-4c6d-9107-7fbd86fb9efc" d="M98.9,57.92c0,1.27-.06,2.07-.59,2.46a1.29,1.29,0,0,1-.56.24l.1.81A1.63,1.63,0,0,0,99,61.07c.74-.48.89-1.55.89-3.15V56.44h1.95v4.88h1V55.63H98.9Z"/><path class="b37b51a8-0c9f-4c6d-9107-7fbd86fb9efc" d="M109,55.5A2.59,2.59,0,0,0,106.5,58h-1v-2.4h-1v5.69h1v-2.5h1A2.53,2.53,0,0,0,109,61.45c1.44,0,2.56-1.18,2.56-3S110.5,55.5,109,55.5ZM109,60.69c-1,0-1.5-1.07-1.5-2.18s.53-2.23,1.53-2.23,1.49,1.1,1.49,2.17S110,60.69,109,60.69Z"/><polygon class="b37b51a8-0c9f-4c6d-9107-7fbd86fb9efc" points="117.46 55.63 116.43 55.63 116.43 60.51 113.81 60.51 113.81 55.63 112.79 55.63 112.79 61.32 117.14 61.32 117.19 63.13 117.98 63.13 118.04 60.56 117.46 60.55 117.46 55.63"/><path class="b37b51a8-0c9f-4c6d-9107-7fbd86fb9efc" d="M121.12,58.57c-.38.66-.58,1.06-.92,1.75h0c0-.81.06-1.38.06-2.28v-2.4h-1v5.69h1.19c.61-1,1.23-2.09,1.77-3,.33-.58.58-1,.94-1.76h0c0,.91-.07,1.39-.07,2.32v2.41h1V55.63h-1.21Z"/><path class="b37b51a8-0c9f-4c6d-9107-7fbd86fb9efc" d="M126.24,56a1.37,1.37,0,0,0-.75,1.23,1.51,1.51,0,0,0,1.5,1.41v0a1.35,1.35,0,0,0-.64.33,4.34,4.34,0,0,0-.9,1.71,3.32,3.32,0,0,1-.35.65h1.1a2.58,2.58,0,0,0,.24-.47,3.83,3.83,0,0,1,.8-1.6,1.32,1.32,0,0,1,1-.32H129v2.39h1V55.68a15.76,15.76,0,0,0-1.84-.12A4,4,0,0,0,126.24,56ZM129,58.23h-.88c-.61,0-1.51-.26-1.51-1s.83-1,1.54-1a5.13,5.13,0,0,1,.85.06Z"/><path class="b37b51a8-0c9f-4c6d-9107-7fbd86fb9efc" d="M136.27,53.4l-2.69,7.92h1.06l.82-2.49h2.81l.84,2.49h1.1L137.5,53.4Zm-.6,4.63.78-2.29c.15-.48.28-1,.4-1.43h0c.12.45.23.92.41,1.44l.78,2.28Z"/><path class="b37b51a8-0c9f-4c6d-9107-7fbd86fb9efc" d="M144.46,58.3v0A1.35,1.35,0,0,0,145.64,57c0-1.27-1.57-1.42-2.52-1.42a12.37,12.37,0,0,0-1.81.12v5.62c.3,0,1,.07,1.6.07,1.11,0,3-.19,3-1.68C145.9,58.89,145.29,58.42,144.46,58.3Zm-2.17-2c.25,0,.46-.05.8-.05,1,0,1.53.27,1.53.84s-.79.89-1.55.89h-.78Zm.83,4.35a7.44,7.44,0,0,1-.84,0V58.7H143c1,0,1.81.18,1.81,1S143.81,60.69,143.12,60.69Z"/><polygon class="b37b51a8-0c9f-4c6d-9107-7fbd86fb9efc" points="146.36 56.46 148.13 56.46 148.13 61.32 149.15 61.32 149.15 56.46 150.93 56.46 150.93 55.63 146.36 55.63 146.36 56.46"/><path class="b37b51a8-0c9f-4c6d-9107-7fbd86fb9efc" d="M154.09,55.5a2.78,2.78,0,0,0-2.82,3A2.7,2.7,0,0,0,154,61.45a2.78,2.78,0,0,0,2.83-3A2.69,2.69,0,0,0,154.09,55.5ZM154,60.67c-1,0-1.73-.94-1.73-2.18,0-1.08.53-2.21,1.75-2.21s1.71,1.22,1.71,2.19C155.77,59.75,155,60.67,154,60.67Z"/><path class="b37b51a8-0c9f-4c6d-9107-7fbd86fb9efc" d="M162.61,55.63l-.91,2.48c-.23.63-.54,1.53-.67,2h0c-.13-.44-.37-1.14-.51-1.56l-1-2.87h-1.27l-.42,5.69h1l.14-2.69c0-.62.07-1.37.1-2H159c.14.52.38,1.35.56,1.89l1,2.8h.75l1.09-2.86c.32-.87.47-1.33.63-1.85h0c0,.7.07,1.43.11,2l.13,2.71h1l-.4-5.69Z"/><path class="b37b51a8-0c9f-4c6d-9107-7fbd86fb9efc" d="M169.62,57.83c0-1.14-.42-2.33-2.16-2.33a3.48,3.48,0,0,0-1.86.51l.23.68a2.81,2.81,0,0,1,1.48-.42,1.17,1.17,0,0,1,1.29,1.31v.12c-2.19,0-3.42.74-3.42,2.12a1.62,1.62,0,0,0,1.74,1.63,2.12,2.12,0,0,0,1.74-.85h0l.08.72h.94a8,8,0,0,1-.1-1.36Zm-1,1.58a1.2,1.2,0,0,1-.06.32,1.42,1.42,0,0,1-1.38,1,.91.91,0,0,1-1-1c0-1.11,1.28-1.31,2.41-1.28Z"/><polygon class="b37b51a8-0c9f-4c6d-9107-7fbd86fb9efc" points="170.48 56.46 172.25 56.46 172.25 61.32 173.28 61.32 173.28 56.46 175.05 56.46 175.05 55.63 170.48 55.63 170.48 56.46"/><path class="b37b51a8-0c9f-4c6d-9107-7fbd86fb9efc" d="M177.8,58.57c-.38.66-.58,1.06-.92,1.75h0c0-.81.06-1.38.06-2.28v-2.4h-1v5.69h1.19c.61-1,1.23-2.09,1.77-3,.33-.58.58-1,.94-1.76h0c-.05.91-.07,1.39-.07,2.32v2.41h1V55.63h-1.21Z"/><path class="b37b51a8-0c9f-4c6d-9107-7fbd86fb9efc" d="M184.68,58.32v0A1.45,1.45,0,0,0,186,57c0-1.11-1.06-1.49-1.93-1.49a3.65,3.65,0,0,0-1.89.51l.26.64a2.73,2.73,0,0,1,1.38-.4c.64,0,1.1.32,1.1.82s-.59.93-1.46.93h-.49v.7h.52c.85,0,1.65.21,1.65,1,0,.56-.54,1-1.39,1a3.34,3.34,0,0,1-1.51-.38l-.27.69a4,4,0,0,0,1.85.46c1.19,0,2.45-.46,2.45-1.69A1.51,1.51,0,0,0,184.68,58.32Z"/><path class="b37b51a8-0c9f-4c6d-9107-7fbd86fb9efc" d="M191.52,57.83c0-1.14-.43-2.33-2.16-2.33a3.49,3.49,0,0,0-1.87.51l.23.68a2.81,2.81,0,0,1,1.48-.42,1.16,1.16,0,0,1,1.29,1.31v.12c-2.19,0-3.41.74-3.41,2.12a1.61,1.61,0,0,0,1.73,1.63,2.09,2.09,0,0,0,1.74-.85h0l.08.72h.94a8.09,8.09,0,0,1-.09-1.36Zm-1,1.58a1.2,1.2,0,0,1-.06.32,1.41,1.41,0,0,1-1.37,1,.92.92,0,0,1-1-1c0-1.11,1.28-1.31,2.41-1.28Z"/><polygon class="b37b51a8-0c9f-4c6d-9107-7fbd86fb9efc" points="197.82 55.63 196.8 55.63 196.8 60.51 194.18 60.51 194.18 55.63 193.16 55.63 193.16 61.32 197.51 61.32 197.55 63.13 198.35 63.13 198.41 60.56 197.82 60.55 197.82 55.63"/><path class="b37b51a8-0c9f-4c6d-9107-7fbd86fb9efc" d="M201.49,58.57c-.38.66-.58,1.06-.92,1.75h0c0-.81.05-1.38.05-2.28v-2.4h-1v5.69h1.19c.61-1,1.23-2.09,1.77-3,.33-.58.58-1,.94-1.76h0c0,.91-.07,1.39-.07,2.32v2.41h1V55.63h-1.21Z"/><path class="b37b51a8-0c9f-4c6d-9107-7fbd86fb9efc" d="M208,58.57c-.37.66-.57,1.06-.91,1.75h0c.05-.81.06-1.38.06-2.28v-2.4h-1v5.69h1.18c.61-1,1.24-2.09,1.78-3,.33-.58.57-1,.94-1.76h0C210,57.5,210,58,210,58.91v2.41h1V55.63h-1.21Z"/></svg>