<svg id="e08060fc-c8b9-41e5-b62d-44ff2d380720" data-name="Слой 1" xmlns="http://www.w3.org/2000/svg" viewBox="0 0 552 134.09"><defs><style>.a14fa612-52f0-4990-a78a-67472e9e6a64,.b6227d29-7d82-41b3-9a0e-508feb7eba69,.b7337c55-3fe1-4511-8e05-8c9f9129df9f,.bc5d7649-4dda-4f0b-88fd-e8cce4c18ebb{fill:#fff;}.a14fa612-52f0-4990-a78a-67472e9e6a64{opacity:0.83;}.b6227d29-7d82-41b3-9a0e-508feb7eba69{opacity:0.14;}.bc5d7649-4dda-4f0b-88fd-e8cce4c18ebb{opacity:0.25;}</style></defs><title>left lines</title><path class="a14fa612-52f0-4990-a78a-67472e9e6a64" d="M366.41,79a9.84,9.84,0,0,0-9.62,7.82H13.63C9,86.86,4.46,85.13,0,82.39V87a28.4,28.4,0,0,0,13.63,3.84H356.79A9.82,9.82,0,1,0,366.41,79Z"/><path class="b6227d29-7d82-41b3-9a0e-508feb7eba69" d="M108.72,114.46a9.83,9.83,0,0,0-9.62,7.81H0v4H99.1a9.82,9.82,0,1,0,9.62-11.81Z"/><path class="bc5d7649-4dda-4f0b-88fd-e8cce4c18ebb" d="M542.18,55.93a9.82,9.82,0,0,0-9.61,7.82H189.41c-11.55,0-22.48-10.72-33-21.09-11.17-10.95-22.72-22.27-36-22.27H0v4H120.41c11.6,0,22.55,10.74,33.15,21.13,11.14,10.93,22.66,22.23,35.85,22.23H532.57a9.82,9.82,0,1,0,9.61-11.82Z"/><path class="b7337c55-3fe1-4511-8e05-8c9f9129df9f" d="M445.29,35.55a9.81,9.81,0,0,0-9.61,7.81H92.52C81,43.36,70,32.64,59.47,22.28,48.3,11.32,36.75,0,23.52,0H0V4H23.52c11.6,0,22.55,10.74,33.15,21.13C67.81,36.06,79.33,47.36,92.52,47.36H435.68a9.82,9.82,0,1,0,9.61-11.81Z"/></svg>