<svg id="a2037154-f878-4112-8087-1d8625effd8b" data-name="Слой 1" xmlns="http://www.w3.org/2000/svg" viewBox="0 0 546.58 531.89"><defs><style>.acf31bbd-b1bb-467c-8945-bb74c64a5ae2{opacity:0.03;}.b6b10bec-0e74-4b11-bf20-046b7bbdaf75{fill:#fff;}</style></defs><title>logo_for_bg</title><g class="acf31bbd-b1bb-467c-8945-bb74c64a5ae2"><circle class="b6b10bec-0e74-4b11-bf20-046b7bbdaf75" cx="271.22" cy="57.69" r="32.15"/><circle class="b6b10bec-0e74-4b11-bf20-046b7bbdaf75" cx="502.55" cy="70.33" r="44.02"/><circle class="b6b10bec-0e74-4b11-bf20-046b7bbdaf75" cx="44.03" cy="44.03" r="44.02"/><rect class="b6b10bec-0e74-4b11-bf20-046b7bbdaf75" x="320.55" y="53.1" width="120.28" height="19.98" rx="1.18" transform="translate(1.01 -5.8) rotate(0.87)"/><rect class="b6b10bec-0e74-4b11-bf20-046b7bbdaf75" x="99.39" y="46.65" width="120.28" height="19.98" rx="1.18" transform="translate(0.88 -2.43) rotate(0.87)"/><circle class="b6b10bec-0e74-4b11-bf20-046b7bbdaf75" cx="392.53" cy="267.25" r="32.15"/><circle class="b6b10bec-0e74-4b11-bf20-046b7bbdaf75" cx="246.76" cy="467.59" r="64.29"/><rect class="b6b10bec-0e74-4b11-bf20-046b7bbdaf75" x="276.21" y="351.29" width="124.53" height="19.73" rx="1.17" transform="translate(-144.89 467.7) rotate(-59.29)"/><rect class="b6b10bec-0e74-4b11-bf20-046b7bbdaf75" x="386.23" y="166.08" width="124.53" height="19.73" rx="1.17" transform="translate(68.17 471.67) rotate(-59.29)"/><circle class="b6b10bec-0e74-4b11-bf20-046b7bbdaf75" cx="123.83" cy="252.96" r="32.15"/><rect class="b6b10bec-0e74-4b11-bf20-046b7bbdaf75" x="102.28" y="343.51" width="124.53" height="19.73" rx="1.17" transform="translate(-105 634.97) rotate(-111.28)"/><rect class="b6b10bec-0e74-4b11-bf20-046b7bbdaf75" x="24.08" y="142.78" width="124.53" height="19.73" rx="1.17" transform="translate(-24.55 288.51) rotate(-111.28)"/></g></svg>