<svg id="b59b7994-ffa0-43f4-b9af-b90333ab7198" data-name="a2037154-f878-4112-8087-1d8625effd8b" xmlns="http://www.w3.org/2000/svg" viewBox="0 0 577.44 534.56"><defs><style>.b8a01a55-4767-46f7-85be-32e09e1eb33b{opacity:0.03;}.a3ebc519-2eec-4616-aa5a-e6aa0ba53786{fill:#fff;}</style></defs><title>logo_for_bg2</title><g class="b8a01a55-4767-46f7-85be-32e09e1eb33b"><circle class="a3ebc519-2eec-4616-aa5a-e6aa0ba53786" cx="395.65" cy="227.74" r="32.15"/><circle class="a3ebc519-2eec-4616-aa5a-e6aa0ba53786" cx="533.42" cy="414" r="44.02"/><circle class="a3ebc519-2eec-4616-aa5a-e6aa0ba53786" cx="261.3" cy="44.02" r="44.02"/><rect class="a3ebc519-2eec-4616-aa5a-e6aa0ba53786" x="451.33" y="255.36" width="19.98" height="120.28" rx="1.18" transform="translate(-95.94 358.16) rotate(-38.75)"/><rect class="a3ebc519-2eec-4616-aa5a-e6aa0ba53786" x="315.26" y="80.89" width="19.98" height="120.28" rx="1.18" transform="translate(-16.69 234.6) rotate(-38.75)"/><circle class="a3ebc519-2eec-4616-aa5a-e6aa0ba53786" cx="311.57" cy="454.82" r="32.15"/><circle class="a3ebc519-2eec-4616-aa5a-e6aa0ba53786" cx="64.29" cy="470.27" r="64.29" transform="translate(-313.7 183.2) rotate(-45)"/><rect class="a3ebc519-2eec-4616-aa5a-e6aa0ba53786" x="142.52" y="463.17" width="124.53" height="19.73" rx="1.17" transform="translate(-70.77 37.41) rotate(-8.91)"/><rect class="a3ebc519-2eec-4616-aa5a-e6aa0ba53786" x="355.33" y="429.82" width="124.53" height="19.73" rx="1.17" transform="translate(-63.04 69.96) rotate(-8.91)"/><circle class="a3ebc519-2eec-4616-aa5a-e6aa0ba53786" cx="151.24" cy="238.72" r="32.15"/><rect class="a3ebc519-2eec-4616-aa5a-e6aa0ba53786" x="37.58" y="324.27" width="124.53" height="19.73" rx="1.17" transform="translate(-240.67 258.86) rotate(-60.9)"/><rect class="a3ebc519-2eec-4616-aa5a-e6aa0ba53786" x="142.35" y="136.02" width="124.53" height="19.73" rx="1.17" transform="translate(-22.37 253.71) rotate(-60.9)"/></g></svg>