<svg id="b68cead4-2d5a-47a4-a7e7-aaf452060295" data-name="a2037154-f878-4112-8087-1d8625effd8b" xmlns="http://www.w3.org/2000/svg" viewBox="0 0 547.1 526.25"><defs><style>.bddf468a-60ee-4ca2-8518-8cf2e96eeca5{opacity:0.03;}.a86912ff-0b5f-4edf-bf6d-4d919d69de28{fill:#fff;}</style></defs><title>logo_for_bg3</title><g class="bddf468a-60ee-4ca2-8518-8cf2e96eeca5"><circle class="a86912ff-0b5f-4edf-bf6d-4d919d69de28" cx="275.61" cy="474.7" r="32.15"/><circle class="a86912ff-0b5f-4edf-bf6d-4d919d69de28" cx="44.02" cy="468.3" r="44.02"/><circle class="a86912ff-0b5f-4edf-bf6d-4d919d69de28" cx="503.08" cy="482.23" r="44.02"/><rect class="a86912ff-0b5f-4edf-bf6d-4d919d69de28" x="105.88" y="462.29" width="120.28" height="19.98" rx="1.18" transform="translate(-5.55 1.99) rotate(-0.68)"/><rect class="a86912ff-0b5f-4edf-bf6d-4d919d69de28" x="327.14" y="462.76" width="120.28" height="19.98" rx="1.18" transform="translate(-5.54 4.6) rotate(-0.68)"/><circle class="a86912ff-0b5f-4edf-bf6d-4d919d69de28" cx="148.69" cy="268.49" r="32.15"/><circle class="a86912ff-0b5f-4edf-bf6d-4d919d69de28" cx="289" cy="64.29" r="64.29"/><rect class="a86912ff-0b5f-4edf-bf6d-4d919d69de28" x="137.93" y="163.32" width="124.53" height="19.73" rx="1.17" transform="translate(-48.59 263.6) rotate(-60.84)"/><rect class="a86912ff-0b5f-4edf-bf6d-4d919d69de28" x="32.95" y="351.42" width="124.53" height="19.73" rx="1.17" transform="translate(-266.67 268.37) rotate(-60.84)"/><circle class="a86912ff-0b5f-4edf-bf6d-4d919d69de28" cx="417.68" cy="275.53" r="32.15"/><rect class="a86912ff-0b5f-4edf-bf6d-4d919d69de28" x="364.39" y="113.96" width="19.73" height="124.53" rx="1.17" transform="translate(-39.06 158.98) rotate(-22.83)"/><rect class="a86912ff-0b5f-4edf-bf6d-4d919d69de28" x="447.98" y="312.52" width="19.73" height="124.53" rx="1.17" transform="translate(-109.53 206.96) rotate(-22.83)"/></g></svg>