<svg id="b48dc349-7597-4450-863f-59bef0efa16d" data-name="Слой 1" xmlns="http://www.w3.org/2000/svg" viewBox="0 0 60 68.54"><defs><style>.ed0ffe83-07b5-42d9-a46b-d1bace40a46d{fill:#fff;}</style></defs><title>logo_navbar</title><circle class="ed0ffe83-07b5-42d9-a46b-d1bace40a46d" cx="29.81" cy="16.56" r="3.81"/><circle class="ed0ffe83-07b5-42d9-a46b-d1bace40a46d" cx="54.79" cy="5.21" r="5.21"/><circle class="ed0ffe83-07b5-42d9-a46b-d1bace40a46d" cx="5.21" cy="27.57" r="5.21"/><rect class="ed0ffe83-07b5-42d9-a46b-d1bace40a46d" x="34.48" y="9.95" width="14.24" height="2.37" rx="1.18" transform="translate(-0.57 19.87) rotate(-26.69)"/><rect class="ed0ffe83-07b5-42d9-a46b-d1bace40a46d" x="10.91" y="21.39" width="14.24" height="2.37" rx="1.18" transform="translate(-8.22 10.5) rotate(-26.69)"/><circle class="ed0ffe83-07b5-42d9-a46b-d1bace40a46d" cx="54.03" cy="31.91" r="3.81"/><circle class="ed0ffe83-07b5-42d9-a46b-d1bace40a46d" cx="49.7" cy="60.93" r="7.61"/><rect class="ed0ffe83-07b5-42d9-a46b-d1bace40a46d" x="46.12" y="43.56" width="14.75" height="2.34" rx="1.17" transform="translate(5.89 95.69) rotate(-86.85)"/><rect class="ed0ffe83-07b5-42d9-a46b-d1bace40a46d" x="47.53" y="18.09" width="14.75" height="2.34" rx="1.17" transform="translate(32.65 73.02) rotate(-86.85)"/><circle class="ed0ffe83-07b5-42d9-a46b-d1bace40a46d" cx="25.04" cy="45.13" r="3.81"/><rect class="ed0ffe83-07b5-42d9-a46b-d1bace40a46d" x="27.44" y="52.28" width="14.75" height="2.34" rx="1.17" transform="translate(25.85 116.59) rotate(-138.85)"/><rect class="ed0ffe83-07b5-42d9-a46b-d1bace40a46d" x="8.23" y="35.49" width="14.75" height="2.34" rx="1.17" transform="translate(3.23 74.53) rotate(-138.85)"/></svg>