<svg id="aa7e8c68-2692-44d4-9e29-4b5c291cb29a" data-name="a715e554-ed12-4160-ac2b-2bf033d3451c" xmlns="http://www.w3.org/2000/svg" xmlns:xlink="http://www.w3.org/1999/xlink" viewBox="0 0 406.53 504.65"><defs><style>.ba60c4a4-157e-4e78-bc3a-fe07e03e9a43{fill:url(#ee854199-860a-4581-8f98-6b55dfe98deb);}.a214b1a7-71bd-4c3b-ba35-ceff04d4a15d{fill:url(#aa92f73b-76e2-4dd6-8fea-854097ab11b1);}.bec1bbd0-a138-4034-a7f5-2b3fbd74085e{fill:#3e3d44;}.fa51bed4-f0ca-4814-90ab-8604c161b3fd{fill:url(#bde22dca-70f8-4c3e-a63d-eb41970c154d);}.a017a571-a297-404d-8619-5d49f65b89cc{fill:#24126a;}.b8338405-2944-4fe0-8a7b-98e7b826fecc{opacity:0.51;}.b9651de2-624f-4fb5-b725-0970354e59bf{fill:#453c9e;}.f4a7f0d6-8b93-4d2b-b468-e18e6f16aaea{fill:url(#b240aa11-1a20-480b-81ce-068d704b8b3c);}.ffc8f233-d215-473b-8313-3c98c2f6b96b{fill:#302f35;}.bfc041f4-8ec1-42ba-84fd-de48395bdfc5{fill:url(#f681df52-0d3e-4b92-b916-274581416487);}.be64556a-83d6-48e5-907a-b28317dfb539{fill:url(#b79362b9-a2cb-4706-8a76-0d3284cb3d54);}.ebc9eafb-56a2-4432-ba25-ee7ec9184117{fill:url(#bfef10c2-3ee1-484d-b737-b0b0e8873856);}.a5c1bb04-b37e-44cf-9f5b-038c668ca522{fill:url(#bafe3172-ea87-4ab8-a0bc-0c9457193756);}.b434270a-17e2-49b6-98e2-5c3f9c984838{fill:url(#b5673a2e-33fb-4576-aceb-589dccd7a953);}.b3ec0240-e5e0-4a16-b5ce-9e8fe91bd2ef{fill:url(#b90bb963-bae2-447e-8073-ea437c2a9127);}.fd2587d6-de39-453d-90cd-2709ad63bdf1{fill:url(#ae235db1-a14e-4f17-995e-9981cde4f00e);}.a3d519a5-daae-40a0-b2c9-cbf3fc44547f,.aace5f9f-10b3-4d62-9c44-2a0246b37a44,.b40f017d-e955-4df3-a444-45e3b7f7565e,.b5e5b63f-4ef0-450a-abf0-37c2ba0e00c9,.b696e6d6-3ed0-48c9-9f9f-2b388c79c128,.bbbbbe35-d1c2-4f4c-81e2-eb9a65a43240,.f105fdd1-7857-4aa5-bbe4-94906c69495a,.f271b22f-4b00-4f4d-8147-5ef8785bc5f8{opacity:0.1;}.b5e5b63f-4ef0-450a-abf0-37c2ba0e00c9{fill:url(#b26d92b7-baf2-4a82-b4b6-c9cb7fa58929);}.a0c3bf29-22e6-48ce-b1f3-e6bcb6b894dc,.a2f2b752-a8ea-4ed3-a2ae-92b4e51a4806,.a5fb8083-187c-46a6-b983-8c7b880e1741,.ae5fd03d-b92a-47c0-ba18-3f4c8a1d89ad,.b1116714-838b-480f-8136-dff58e9c16de,.b61b077b-4513-48d6-bd4f-1deffcead96c,.b6a36f65-449f-41d7-8c11-832d490fa514,.b6d7050e-bd66-480d-9a18-6f01f6259ec0,.bb2ebec3-cb1a-485e-8d37-e9b137cf5169,.bc68f3ef-969f-4a45-af4c-7f519995c9cc,.e598fb2a-f730-4a45-b88f-50d34ae77e50,.fcef7e40-614f-49ed-b7b1-cf48caaafb14,.fe8d58b7-4086-4bad-a225-2e1fd283cee1{opacity:0.4;}.b6d7050e-bd66-480d-9a18-6f01f6259ec0{fill:url(#be25cd21-63c6-4d6f-aa11-dc9bdb986a3e);}.b6ca8f7f-f6ea-4b8f-9255-1fadb7a356b8{fill:url(#ec1ea38b-4f58-4a40-9a8f-c2924abee249);}.a5fb8083-187c-46a6-b983-8c7b880e1741{fill:url(#b37a28b6-56a7-467a-9287-74099c09a278);}.b7dbedce-8c3f-4c64-acbb-5fea77601703{fill:url(#aa843e43-abb6-483b-acf0-8fbf591ae1b0);}.a9764660-7785-464d-85be-48f26450828d{fill:url(#bfe684fc-2e05-451f-8ad2-dfb047686a19);}.a69e4244-9b2c-48dc-ba5c-df0baa9d3cca{fill:url(#f8d74b2d-cfb8-47f8-9ae7-585edc47b397);}.b40f017d-e955-4df3-a444-45e3b7f7565e{fill:url(#a9d55ac0-88a1-4a4c-be13-3996efa9d5b6);}.ffc2f2d6-8772-411b-aa33-e2d6965eba47{fill:url(#f83fdfd8-021e-4996-9e87-3b3b2a3b0637);}.b0078ea9-17a8-4189-b92e-a2c45d626ec7{fill:url(#a3674ea7-4a66-4540-a91a-fb3f984c68c9);}.fa09c477-907b-413f-bf59-2d9f25065b6a{fill:url(#b1b64906-d42c-4b13-90e1-07f8c5afe09b);}.bca8d936-f525-4a0d-b2ef-583e7f5cf333{fill:url(#a781ba51-48a1-449c-a8fe-214fe0142849);}.e609de26-961b-4788-8d4b-c3781a4ad0bf{fill:url(#b99d1702-919e-4272-b7be-1bf240c87662);}.f2e432ef-4257-41be-8504-b60528f05abd{fill:url(#e232ffa4-fb07-4c16-a88b-bdbbc6170542);}.a3acc1dc-6a6b-4a98-829f-1ebe9ad868ed{fill:url(#e450a464-0dd7-454e-a946-680b2d10c985);}.fa9a59f2-f35a-4a52-8db7-db718a2f0b90{fill:url(#e24b6db3-36ce-474f-a547-7c869a14ac19);}.a4dc523e-6f0a-4e20-a2e0-351ecbb1e133{fill:url(#ae86544d-9497-4a2f-b3b3-76bfead8677f);}.ba74047a-0a9a-4849-9373-6a6ffdce5ce8{fill:url(#e1d7a7b7-1016-41df-b4f7-7da5ec71f2a4);}.a17e500a-c618-46d0-92d7-b2ed682c1b1b{fill:url(#ef0186d9-4637-4fd0-92e7-915969bf6822);}.b348a47b-dffc-487f-8b83-819352908ad7{fill:url(#bd78ddd3-9921-4f8d-9fc8-6e5158764acb);}.f105fdd1-7857-4aa5-bbe4-94906c69495a{fill:url(#bb7c97fa-9e47-45be-a348-60d99a42ea56);}.e598fb2a-f730-4a45-b88f-50d34ae77e50{fill:url(#e0b1d58b-a76d-462b-ab1e-4bb787929a94);}.ae5fd03d-b92a-47c0-ba18-3f4c8a1d89ad{fill:url(#a537d814-4970-45f7-816e-f356ff4ebef2);}.a59fc467-ab40-40c9-a897-e8b49707177b{fill:url(#e772a30a-60e8-46de-8cc2-9165002796d9);}.fd072510-363c-4b82-b004-f62b3d3cab67{fill:url(#a2c527e4-a86d-4d8b-8c78-216baa768f90);}.ee073fab-9f0c-499e-bcec-127193f3930c{fill:url(#b3f7b179-d304-49e2-88f5-cdbd429bc182);}.b6a36f65-449f-41d7-8c11-832d490fa514{fill:url(#afe9b3a0-5512-4801-a6c1-118ced41688a);}.bc68f3ef-969f-4a45-af4c-7f519995c9cc{fill:url(#e6bcea7d-d175-4fff-b4fa-3f15a4139826);}.b696e6d6-3ed0-48c9-9f9f-2b388c79c128{fill:url(#e4355fdd-e688-4191-ab2a-e5313544ddc1);}.f1f5fd18-82a5-40df-9c62-e4dd55f92759{fill:url(#a853ddff-f12c-46aa-bd91-9ff6ed6a6c67);}.b207799b-0288-45d1-a4ec-da68e497127e{fill:url(#f322d701-4ccd-42be-bfb4-35853fbed2dc);}.f67f015b-282b-4f7b-b92b-16c8dd8bf470{fill:url(#ba4237fe-8382-4245-89fc-1ad25973cd8f);}.a0c3bf29-22e6-48ce-b1f3-e6bcb6b894dc{fill:url(#e08967b5-43dc-44cd-bc40-d0c200951e7a);}.b071d001-f9d3-4bc8-bae9-c4bab433132f{fill:url(#b69b04d6-0930-4e9b-9776-734c9b36356e);}.aadee5f0-ee70-4986-8c66-dc6285c72f17{fill:url(#a6eb224c-01d7-4b6e-8a19-92224f8da1c9);}.b21f039d-ec56-4bf1-b1ca-2fc68b3af70a{fill:url(#a71efe52-4ab9-43f0-9c91-c1f26cb3156a);}.e83553c0-d2a9-4ca9-a266-86ecbd8c21c2{fill:url(#ba71c748-1406-4ab6-b11a-0a9cfe40b86e);}.f5002906-cc82-4c18-81e2-0a7d7d29b273{fill:url(#e43f75fd-3592-40cb-a2c9-fab28df0c188);}.e34dadb5-5698-4628-9d53-34085c9cac16{fill:url(#e78617f1-2c76-4350-a8c3-9945d2e2d91e);}.e0dd8205-7cbc-4890-8703-9b301b7b138c{fill:url(#f17be22f-a5be-45c9-be19-6259615bbd9e);}.f6e28d40-f319-4931-8c5a-1ec2232a6c5b{fill:url(#f9fde83e-e811-414b-a09e-acc55bd91cb9);}.ebc9712f-72cf-47c6-8e75-65ea33bf73cc{fill:url(#fb6a2e8f-e549-463a-b0e3-dd7dbe776eb2);}.a14f0149-077b-452f-b589-092491bea526{fill:url(#ea2189f0-df19-4355-bd28-e9d7f46397d8);}.b31729b0-7fa4-4f60-90f9-44c6b2deac42{fill:url(#b20df292-b800-400a-a653-a4c94914ba86);}.f1277f0a-4975-47a2-bd35-16fdbc7c09bf{fill:url(#eb265416-39ee-4c33-b2e2-a4105cdbf461);}.a0395250-0e24-44c2-8e83-520a1972f56b{fill:url(#a8fe00d5-04c4-4842-8b6e-4ed133bc0317);}.fcef7e40-614f-49ed-b7b1-cf48caaafb14{fill:url(#a81d02d6-7ef3-4d80-ae6a-ddf079d2d884);}.fb53eb55-66f4-4c9b-8ec2-f82bb67e4cb2{fill:url(#f9928cca-ad56-4dd8-aefe-82ab85973476);}.f271b22f-4b00-4f4d-8147-5ef8785bc5f8{fill:url(#a47d92c2-3f80-47db-812f-5abdc28be290);}.ab7be568-4f8e-4108-bdff-61f6f5f7ce86{fill:url(#aafcc466-cd7e-4f47-835e-175dfa27e748);}.a89db6b9-4f43-4838-92b0-b0940dd188fd{fill:url(#ae40f473-b6c5-4208-a3c8-aeeaeea32b77);}.f478e789-f3fb-4e0c-9adf-e035c3cd80f0{fill:url(#e0ec7ae7-c34e-479b-8052-d0799cdf4af0);}.f3cc91f3-9407-438f-95aa-60009fbbc4c3{fill:url(#a0f97315-52c8-4620-bd33-75e9524e1692);}.be9356ca-143a-45b7-b72a-a0d72f5837e8{fill:url(#e0ed45dd-0d18-4082-819f-3301d50533c6);}.f9d84935-4fac-4221-ab0a-732ec01d3124{fill:url(#bbf4bac2-6311-41e6-b892-d3777ac41770);}.b61b077b-4513-48d6-bd4f-1deffcead96c{fill:url(#bc40c003-413f-4e05-99ad-68648c864cb2);}.a8640605-7b38-45a5-9572-44ec4bb59dcb{fill:url(#f1e45bf0-67c2-4b3b-b21a-1279e6092dc6);}.e6dff7e9-5079-4524-9cb8-aaa214d4bb05{fill:url(#a9a7be2e-5b9c-4923-97b9-de318ac94a7c);}.a3d519a5-daae-40a0-b2c9-cbf3fc44547f{fill:url(#bb4f3c4b-48c6-4501-bf47-b034ec7420d8);}.b1116714-838b-480f-8136-dff58e9c16de{fill:url(#a5a5b00a-1611-4843-8541-f0babd4a14dd);}.b11f731f-43a9-429e-9be1-38d36051373f{fill:url(#b1c39f72-b11b-4468-a686-6b2d49f858a0);}.bbbbbe35-d1c2-4f4c-81e2-eb9a65a43240{fill:url(#b45aab38-4826-4e25-a5cf-f491d2eb42fc);}.a5ef89ee-6cdc-4c4b-9456-21b20bf3f3d7{fill:url(#ba4b06af-bcf8-4477-9b49-d2ee233e1b3c);}.a2f2b752-a8ea-4ed3-a2ae-92b4e51a4806{fill:url(#b31d755b-88f1-4b2c-b1fc-e49cd8e1bc1f);}.b56b98ba-5478-4966-b783-7d2a889138a7{fill:url(#fd47f874-c1d5-465d-9c8d-b59f6ee580cb);}.a308641e-07ab-4bfa-8f3f-8085b39d70a4{fill:url(#a0106252-f5b7-4bc8-9689-a5b5413cde14);}.b4542c48-d74a-46ce-9634-8b54d8a5e268{fill:url(#a03dbb41-13f2-406b-9154-139b51d2e5fa);}.b6531a8c-8091-4caa-a4b4-14fbd27f42b4{fill:url(#e4f784c3-d00c-4dcf-bc1e-4370aae47151);}.b5df96b5-4d07-4b46-b50d-e40d7709abb3{fill:url(#f23aba43-b726-4dd0-9972-a94783c25e1a);}.fe8d58b7-4086-4bad-a225-2e1fd283cee1{fill:url(#a57f29d8-51c5-4440-93c6-91a18b1402a7);}.ad008cc4-c1f7-436a-b2dc-e0f824b050ec{fill:url(#bd55cb71-5015-4cf7-a972-22c325df3b36);}.a979f9d2-37b0-42fa-b278-0d9f06a36f4e{fill:url(#ea519b3d-64e4-4aea-a427-560bd58966be);}.aace5f9f-10b3-4d62-9c44-2a0246b37a44{fill:url(#e6bc6a36-f10e-46b2-8e7d-61fdbff9870a);}.f778fcdd-9f61-4207-87b6-ad68c1ffc904{fill:url(#ebdcbed2-140a-494a-bd4e-bede3dbd3ae8);}.fe83e3c9-d3f8-429e-b8e5-68b435314b64{fill:url(#bc695fbc-672c-458a-9d4e-ba953b927301);}.f0738c17-0466-4cdd-8796-862fa8dd0653{fill:url(#a1f29b69-b11c-41a0-9862-5030d1dbabd8);}.bdca7320-d777-48f0-95f7-9d2b9b07a6d8{fill:url(#b6fb0733-05e9-4c84-8995-22429243063d);}.bb2ebec3-cb1a-485e-8d37-e9b137cf5169{fill:url(#b69c2972-cd7e-4f9b-9ed0-286f930a7fa3);}.b1523b30-37c1-4d69-8c9a-f93d98bd9f3e{fill:url(#e8291824-972f-4dbe-a061-9c65f36ae909);}.ad24061a-fd01-4a37-a711-c098ae1970f5{fill:url(#a322c0b9-0d82-4fd2-8258-9fea593be50b);}.a3978b79-9bed-45ca-b0f8-ce7746c127ea{fill:url(#b4fc251b-6178-4e75-84f9-f93cfa83ddd9);}.b68f5f5a-90be-43ec-abf6-8f06c9acac8c{fill:url(#b471af5f-a88a-4bc1-9778-7feab8a8f101);}.b19c4d0d-605c-48ed-8cd7-8d97273279c4{fill:url(#a668d3ca-675f-459c-ac0d-4e6e23d9577a);}.a2a47f32-b40b-444b-b050-3c0fc161bc51{fill:url(#aff98ba4-9125-476e-9219-339906589bfc);}.b4ec769c-a4eb-460d-9a4b-ca5b5715fad8{fill:url(#b5a576ac-3aeb-4205-bdf6-29d0b2c4de14);}.ea08a319-7074-42af-82c6-91f93dc28d25{fill:url(#b3b32119-bc53-4bf9-9f63-61e5b2535976);}.e070e525-bf0b-4856-b465-1c4a60de0b5e{fill:url(#e70b6fc7-513b-42d7-aec3-59047b659576);}.a66dde0c-726f-430b-a03c-439d07141fa8{fill:#b3b3b3;}.a7aa99f5-0252-4980-9de2-a5b40dcdc9fe{fill:url(#b2265679-7028-4b58-a03c-b2b6cdd5ddb7);}.bb9477b3-2007-46b0-ae3e-7b48ee2c16f8{fill:none;}.eeaddc73-1203-4c68-aba6-3a1f8a93b71b{fill:url(#f139ba61-5065-4ba6-ae87-6357eec43f3d);}.bc4b13ed-fbe8-4162-846b-552299f99433{fill:#f4a856;}.a91d0310-9af8-4318-b35a-9a045c2e0591{fill:url(#bbbe9a86-7589-413d-84fd-bdd7b7c96c4a);}.a8997016-0d8a-4314-a2fa-e643858555fd{fill:url(#b504a823-18f8-475b-8c6a-6521059de6b2);}.a761ea7d-7057-47d1-9495-1c13d0f8ac94{fill:url(#b8024d89-7fc1-4ca8-8b0c-97e859caba50);}.fd5e320f-5217-4265-a176-20330f6023c6{fill:url(#a11a0e71-b3bb-49bb-b688-f021e69f1366);}.ef1b9e15-3df5-4a7a-b965-e9bb2b5680df{fill:url(#fe52b39c-c28d-4dda-8b43-b5bb1385de3c);}.a168b15f-62d8-4576-9881-6560f473ea55{fill:url(#f1dec8df-abb8-411a-958e-368eacfc5b76);}.bb1996e4-2a02-47e9-bf2d-25b6f383cd21{fill:url(#eeba365f-ba2c-41b6-9ad2-fc1f80ad58fa);}.b43bafba-196f-456f-8dfc-c7be5c96f1f4{fill:url(#a314cccd-db6c-4152-892b-c8b1fb9d60e1);}.ed9332a2-f212-4983-952c-ad57fa22b0a0{fill:url(#a58851e4-c777-4233-87d5-cc3b27b41fda);}.b3760aa7-5209-4f55-8a17-a807d7fed290{fill:url(#ee06389b-086e-4f1b-8dc4-00b36f88bab4);}.b2fae350-60ae-402b-a8b3-bfda13068224{fill:url(#b805b00a-7af9-4939-95ac-c6c5ef32be42);}.b457cff5-076b-45b4-8b46-646cee9728ba{fill:url(#f84b865a-9c2c-4d46-8c82-38c7f7cfff0c);}.bfd6cd38-d447-4dfe-8660-487ccf2d1da2{fill:url(#adf1f513-f677-411e-8a8a-989397702e55);}.b9f0b412-50b7-4784-a620-9ebe4f06d724{fill:url(#a161dc53-ccd7-4dad-901c-69e55e956c40);}.ae711708-35c6-4846-b1a7-f33e38da86d9{fill:url(#bb817c53-459c-4a36-a22d-e68a263cf611);}.ba4fdd2a-9ec1-475d-9501-3e67bb68e4d8{fill:url(#aa6f5768-810f-4ae9-93e9-05eb7d100e6d);}.a8e19793-5324-4e82-bdc0-a2fbb25fcf3d{fill:url(#b38b87f4-6fa5-4893-9ce3-9ce2c3cab5ed);}.b7fc5f91-eef8-4537-9529-93d054222d21{fill:url(#fdcbe968-834d-4b20-b298-be25c07430e0);}.e646ff74-b560-4a81-acb7-9f25be2945e9{fill:url(#ac1c9c77-09a5-4ff8-8c70-0c895d5b6e71);}.be0436ba-be58-4ebe-b9d3-b6b459c16dba{fill:url(#aa8465ef-27e2-4a8a-9603-4c008a058fb8);}.ed7546cd-3cfa-4f29-b978-27d6e13bc9a0{fill:url(#b9bb2d02-42ab-4ef0-a8ff-17cf9bb2fc0f);}.b98ac87f-c688-4f94-8d22-f64e948f49b9{fill:url(#b450b12b-4d8f-4e60-886d-87b1e5699308);}.fa1eecad-e059-4814-99c1-72dd1d80b73d{fill:url(#a49544bb-d94e-47c2-b33f-31bc44b4b193);}.ae36879c-3a39-42cd-9930-1572aa42a979{fill:url(#e60d77d2-8d12-4710-af3b-e1312f5a7bb1);}.b643cce5-b462-4487-b6c8-ba505af82624{fill:url(#e4c2dedf-dde1-4690-8c9b-6e7775081356);}</style><linearGradient id="ee854199-860a-4581-8f98-6b55dfe98deb" x1="204.02" y1="176.91" x2="201.52" y2="651.12" gradientUnits="userSpaceOnUse"><stop offset="0" stop-color="#5f5f6b"/><stop offset="0.28" stop-color="#5b5a66"/><stop offset="0.61" stop-color="#4e4d58"/><stop offset="0.96" stop-color="#393840"/><stop offset="1" stop-color="#36353d"/></linearGradient><linearGradient id="aa92f73b-76e2-4dd6-8fea-854097ab11b1" x1="198.7" y1="229.95" x2="209.99" y2="454.5" gradientUnits="userSpaceOnUse"><stop offset="0" stop-color="#e9c77d"/><stop offset="1" stop-color="#a37a29"/></linearGradient><linearGradient id="bde22dca-70f8-4c3e-a63d-eb41970c154d" x1="203.06" y1="480.24" x2="438.91" y2="323.84" xlink:href="#ee854199-860a-4581-8f98-6b55dfe98deb"/><linearGradient id="b240aa11-1a20-480b-81ce-068d704b8b3c" x1="-20.19" y1="364.3" x2="651.6" y2="393.79" xlink:href="#aa92f73b-76e2-4dd6-8fea-854097ab11b1"/><linearGradient id="f681df52-0d3e-4b92-b916-274581416487" x1="-1.68" y1="397.12" x2="177.09" y2="424.09" xlink:href="#ee854199-860a-4581-8f98-6b55dfe98deb"/><linearGradient id="b79362b9-a2cb-4706-8a76-0d3284cb3d54" x1="20.54" y1="382.7" x2="186.45" y2="451.39" xlink:href="#aa92f73b-76e2-4dd6-8fea-854097ab11b1"/><linearGradient id="bfef10c2-3ee1-484d-b737-b0b0e8873856" x1="22.18" y1="378.74" x2="188.09" y2="447.42" xlink:href="#aa92f73b-76e2-4dd6-8fea-854097ab11b1"/><linearGradient id="bafe3172-ea87-4ab8-a0bc-0c9457193756" x1="25.18" y1="371.5" x2="191.09" y2="440.18" xlink:href="#aa92f73b-76e2-4dd6-8fea-854097ab11b1"/><linearGradient id="b5673a2e-33fb-4576-aceb-589dccd7a953" x1="23.94" y1="374.49" x2="189.85" y2="443.18" xlink:href="#aa92f73b-76e2-4dd6-8fea-854097ab11b1"/><linearGradient id="b90bb963-bae2-447e-8073-ea437c2a9127" x1="23" y1="376.75" x2="188.91" y2="445.44" xlink:href="#aa92f73b-76e2-4dd6-8fea-854097ab11b1"/><linearGradient id="ae235db1-a14e-4f17-995e-9981cde4f00e" x1="252.33" y1="340.19" x2="414.17" y2="602.39" xlink:href="#aa92f73b-76e2-4dd6-8fea-854097ab11b1"/><linearGradient id="b26d92b7-baf2-4a82-b4b6-c9cb7fa58929" x1="258.35" y1="336.48" x2="420.18" y2="598.67" xlink:href="#aa92f73b-76e2-4dd6-8fea-854097ab11b1"/><linearGradient id="be25cd21-63c6-4d6f-aa11-dc9bdb986a3e" x1="264.37" y1="332.77" x2="426.2" y2="594.96" xlink:href="#aa92f73b-76e2-4dd6-8fea-854097ab11b1"/><linearGradient id="ec1ea38b-4f58-4a40-9a8f-c2924abee249" x1="270.38" y1="329.05" x2="432.22" y2="591.25" xlink:href="#aa92f73b-76e2-4dd6-8fea-854097ab11b1"/><linearGradient id="b37a28b6-56a7-467a-9287-74099c09a278" x1="276.4" y1="325.34" x2="438.23" y2="587.53" xlink:href="#aa92f73b-76e2-4dd6-8fea-854097ab11b1"/><linearGradient id="aa843e43-abb6-483b-acf0-8fbf591ae1b0" x1="282.42" y1="321.63" x2="444.25" y2="583.82" xlink:href="#aa92f73b-76e2-4dd6-8fea-854097ab11b1"/><linearGradient id="bfe684fc-2e05-451f-8ad2-dfb047686a19" x1="288.43" y1="317.91" x2="450.27" y2="580.1" xlink:href="#aa92f73b-76e2-4dd6-8fea-854097ab11b1"/><linearGradient id="f8d74b2d-cfb8-47f8-9ae7-585edc47b397" x1="294.45" y1="314.2" x2="456.28" y2="576.39" xlink:href="#aa92f73b-76e2-4dd6-8fea-854097ab11b1"/><linearGradient id="a9d55ac0-88a1-4a4c-be13-3996efa9d5b6" x1="300.47" y1="310.48" x2="462.3" y2="572.68" xlink:href="#aa92f73b-76e2-4dd6-8fea-854097ab11b1"/><linearGradient id="f83fdfd8-021e-4996-9e87-3b3b2a3b0637" x1="239.6" y1="348.05" x2="401.44" y2="610.24" xlink:href="#aa92f73b-76e2-4dd6-8fea-854097ab11b1"/><linearGradient id="a3674ea7-4a66-4540-a91a-fb3f984c68c9" x1="245.62" y1="344.34" x2="407.45" y2="606.53" xlink:href="#aa92f73b-76e2-4dd6-8fea-854097ab11b1"/><linearGradient id="b1b64906-d42c-4b13-90e1-07f8c5afe09b" x1="251.64" y1="340.62" x2="413.47" y2="602.82" xlink:href="#aa92f73b-76e2-4dd6-8fea-854097ab11b1"/><linearGradient id="a781ba51-48a1-449c-a8fe-214fe0142849" x1="257.65" y1="336.91" x2="419.49" y2="599.1" xlink:href="#aa92f73b-76e2-4dd6-8fea-854097ab11b1"/><linearGradient id="b99d1702-919e-4272-b7be-1bf240c87662" x1="263.67" y1="333.2" x2="425.5" y2="595.39" xlink:href="#aa92f73b-76e2-4dd6-8fea-854097ab11b1"/><linearGradient id="e232ffa4-fb07-4c16-a88b-bdbbc6170542" x1="269.69" y1="329.48" x2="431.52" y2="591.68" xlink:href="#aa92f73b-76e2-4dd6-8fea-854097ab11b1"/><linearGradient id="e450a464-0dd7-454e-a946-680b2d10c985" x1="275.7" y1="325.77" x2="437.54" y2="587.96" xlink:href="#aa92f73b-76e2-4dd6-8fea-854097ab11b1"/><linearGradient id="e24b6db3-36ce-474f-a547-7c869a14ac19" x1="281.72" y1="322.06" x2="443.55" y2="584.25" xlink:href="#aa92f73b-76e2-4dd6-8fea-854097ab11b1"/><linearGradient id="ae86544d-9497-4a2f-b3b3-76bfead8677f" x1="287.74" y1="318.34" x2="449.57" y2="580.53" xlink:href="#aa92f73b-76e2-4dd6-8fea-854097ab11b1"/><linearGradient id="e1d7a7b7-1016-41df-b4f7-7da5ec71f2a4" x1="226.87" y1="355.91" x2="388.71" y2="618.1" xlink:href="#aa92f73b-76e2-4dd6-8fea-854097ab11b1"/><linearGradient id="ef0186d9-4637-4fd0-92e7-915969bf6822" x1="232.89" y1="352.19" x2="394.72" y2="614.39" xlink:href="#aa92f73b-76e2-4dd6-8fea-854097ab11b1"/><linearGradient id="bd78ddd3-9921-4f8d-9fc8-6e5158764acb" x1="238.91" y1="348.48" x2="400.74" y2="610.67" xlink:href="#aa92f73b-76e2-4dd6-8fea-854097ab11b1"/><linearGradient id="bb7c97fa-9e47-45be-a348-60d99a42ea56" x1="244.92" y1="344.77" x2="406.76" y2="606.96" xlink:href="#aa92f73b-76e2-4dd6-8fea-854097ab11b1"/><linearGradient id="e0b1d58b-a76d-462b-ab1e-4bb787929a94" x1="250.94" y1="341.05" x2="412.77" y2="603.25" xlink:href="#aa92f73b-76e2-4dd6-8fea-854097ab11b1"/><linearGradient id="a537d814-4970-45f7-816e-f356ff4ebef2" x1="256.96" y1="337.34" x2="418.79" y2="599.53" xlink:href="#aa92f73b-76e2-4dd6-8fea-854097ab11b1"/><linearGradient id="e772a30a-60e8-46de-8cc2-9165002796d9" x1="262.97" y1="333.63" x2="424.81" y2="595.82" xlink:href="#aa92f73b-76e2-4dd6-8fea-854097ab11b1"/><linearGradient id="a2c527e4-a86d-4d8b-8c78-216baa768f90" x1="268.99" y1="329.91" x2="430.82" y2="592.11" xlink:href="#aa92f73b-76e2-4dd6-8fea-854097ab11b1"/><linearGradient id="b3f7b179-d304-49e2-88f5-cdbd429bc182" x1="275.01" y1="326.2" x2="436.84" y2="588.39" xlink:href="#aa92f73b-76e2-4dd6-8fea-854097ab11b1"/><linearGradient id="afe9b3a0-5512-4801-a6c1-118ced41688a" x1="214.14" y1="363.77" x2="375.98" y2="625.96" xlink:href="#aa92f73b-76e2-4dd6-8fea-854097ab11b1"/><linearGradient id="e6bcea7d-d175-4fff-b4fa-3f15a4139826" x1="220.16" y1="360.05" x2="381.99" y2="622.24" xlink:href="#aa92f73b-76e2-4dd6-8fea-854097ab11b1"/><linearGradient id="e4355fdd-e688-4191-ab2a-e5313544ddc1" x1="226.18" y1="356.34" x2="388.01" y2="618.53" xlink:href="#aa92f73b-76e2-4dd6-8fea-854097ab11b1"/><linearGradient id="a853ddff-f12c-46aa-bd91-9ff6ed6a6c67" x1="232.19" y1="352.63" x2="394.03" y2="614.82" xlink:href="#aa92f73b-76e2-4dd6-8fea-854097ab11b1"/><linearGradient id="f322d701-4ccd-42be-bfb4-35853fbed2dc" x1="238.21" y1="348.91" x2="400.04" y2="611.1" xlink:href="#aa92f73b-76e2-4dd6-8fea-854097ab11b1"/><linearGradient id="ba4237fe-8382-4245-89fc-1ad25973cd8f" x1="244.23" y1="345.2" x2="406.06" y2="607.39" xlink:href="#aa92f73b-76e2-4dd6-8fea-854097ab11b1"/><linearGradient id="e08967b5-43dc-44cd-bc40-d0c200951e7a" x1="250.24" y1="341.48" x2="412.08" y2="603.68" xlink:href="#aa92f73b-76e2-4dd6-8fea-854097ab11b1"/><linearGradient id="b69b04d6-0930-4e9b-9776-734c9b36356e" x1="256.26" y1="337.77" x2="418.09" y2="599.96" xlink:href="#aa92f73b-76e2-4dd6-8fea-854097ab11b1"/><linearGradient id="a6eb224c-01d7-4b6e-8a19-92224f8da1c9" x1="262.28" y1="334.06" x2="424.11" y2="596.25" xlink:href="#aa92f73b-76e2-4dd6-8fea-854097ab11b1"/><linearGradient id="a71efe52-4ab9-43f0-9c91-c1f26cb3156a" x1="201.41" y1="371.62" x2="363.25" y2="633.82" xlink:href="#aa92f73b-76e2-4dd6-8fea-854097ab11b1"/><linearGradient id="ba71c748-1406-4ab6-b11a-0a9cfe40b86e" x1="207.43" y1="367.91" x2="369.26" y2="630.1" xlink:href="#aa92f73b-76e2-4dd6-8fea-854097ab11b1"/><linearGradient id="e43f75fd-3592-40cb-a2c9-fab28df0c188" x1="213.45" y1="364.2" x2="375.28" y2="626.39" xlink:href="#aa92f73b-76e2-4dd6-8fea-854097ab11b1"/><linearGradient id="e78617f1-2c76-4350-a8c3-9945d2e2d91e" x1="219.46" y1="360.48" x2="381.3" y2="622.68" xlink:href="#aa92f73b-76e2-4dd6-8fea-854097ab11b1"/><linearGradient id="f17be22f-a5be-45c9-be19-6259615bbd9e" x1="225.48" y1="356.77" x2="387.31" y2="618.96" xlink:href="#aa92f73b-76e2-4dd6-8fea-854097ab11b1"/><linearGradient id="f9fde83e-e811-414b-a09e-acc55bd91cb9" x1="231.5" y1="353.06" x2="393.33" y2="615.25" xlink:href="#aa92f73b-76e2-4dd6-8fea-854097ab11b1"/><linearGradient id="fb6a2e8f-e549-463a-b0e3-dd7dbe776eb2" x1="237.51" y1="349.34" x2="399.35" y2="611.53" xlink:href="#aa92f73b-76e2-4dd6-8fea-854097ab11b1"/><linearGradient id="ea2189f0-df19-4355-bd28-e9d7f46397d8" x1="243.53" y1="345.63" x2="405.36" y2="607.82" xlink:href="#aa92f73b-76e2-4dd6-8fea-854097ab11b1"/><linearGradient id="b20df292-b800-400a-a653-a4c94914ba86" x1="249.55" y1="341.91" x2="411.38" y2="604.11" xlink:href="#aa92f73b-76e2-4dd6-8fea-854097ab11b1"/><linearGradient id="eb265416-39ee-4c33-b2e2-a4105cdbf461" x1="188.68" y1="379.48" x2="350.52" y2="641.67" xlink:href="#aa92f73b-76e2-4dd6-8fea-854097ab11b1"/><linearGradient id="a8fe00d5-04c4-4842-8b6e-4ed133bc0317" x1="194.7" y1="375.77" x2="356.53" y2="637.96" xlink:href="#aa92f73b-76e2-4dd6-8fea-854097ab11b1"/><linearGradient id="a81d02d6-7ef3-4d80-ae6a-ddf079d2d884" x1="200.72" y1="372.05" x2="362.55" y2="634.25" xlink:href="#aa92f73b-76e2-4dd6-8fea-854097ab11b1"/><linearGradient id="f9928cca-ad56-4dd8-aefe-82ab85973476" x1="206.73" y1="368.34" x2="368.57" y2="630.53" xlink:href="#aa92f73b-76e2-4dd6-8fea-854097ab11b1"/><linearGradient id="a47d92c2-3f80-47db-812f-5abdc28be290" x1="212.75" y1="364.63" x2="374.58" y2="626.82" xlink:href="#aa92f73b-76e2-4dd6-8fea-854097ab11b1"/><linearGradient id="aafcc466-cd7e-4f47-835e-175dfa27e748" x1="218.77" y1="360.91" x2="380.6" y2="623.11" xlink:href="#aa92f73b-76e2-4dd6-8fea-854097ab11b1"/><linearGradient id="ae40f473-b6c5-4208-a3c8-aeeaeea32b77" x1="224.78" y1="357.2" x2="386.61" y2="619.39" xlink:href="#aa92f73b-76e2-4dd6-8fea-854097ab11b1"/><linearGradient id="e0ec7ae7-c34e-479b-8052-d0799cdf4af0" x1="230.8" y1="353.49" x2="392.63" y2="615.68" xlink:href="#aa92f73b-76e2-4dd6-8fea-854097ab11b1"/><linearGradient id="a0f97315-52c8-4620-bd33-75e9524e1692" x1="236.82" y1="349.77" x2="398.65" y2="611.96" xlink:href="#aa92f73b-76e2-4dd6-8fea-854097ab11b1"/><linearGradient id="e0ed45dd-0d18-4082-819f-3301d50533c6" x1="175.95" y1="387.34" x2="337.78" y2="649.53" xlink:href="#aa92f73b-76e2-4dd6-8fea-854097ab11b1"/><linearGradient id="bbf4bac2-6311-41e6-b892-d3777ac41770" x1="181.97" y1="383.62" x2="343.8" y2="645.82" xlink:href="#aa92f73b-76e2-4dd6-8fea-854097ab11b1"/><linearGradient id="bc40c003-413f-4e05-99ad-68648c864cb2" x1="187.99" y1="379.91" x2="349.82" y2="642.1" xlink:href="#aa92f73b-76e2-4dd6-8fea-854097ab11b1"/><linearGradient id="f1e45bf0-67c2-4b3b-b21a-1279e6092dc6" x1="194" y1="376.2" x2="355.83" y2="638.39" xlink:href="#aa92f73b-76e2-4dd6-8fea-854097ab11b1"/><linearGradient id="a9a7be2e-5b9c-4923-97b9-de318ac94a7c" x1="200.02" y1="372.48" x2="361.85" y2="634.68" xlink:href="#aa92f73b-76e2-4dd6-8fea-854097ab11b1"/><linearGradient id="bb4f3c4b-48c6-4501-bf47-b034ec7420d8" x1="206.04" y1="368.77" x2="367.87" y2="630.96" xlink:href="#aa92f73b-76e2-4dd6-8fea-854097ab11b1"/><linearGradient id="a5a5b00a-1611-4843-8541-f0babd4a14dd" x1="212.05" y1="365.06" x2="373.88" y2="627.25" xlink:href="#aa92f73b-76e2-4dd6-8fea-854097ab11b1"/><linearGradient id="b1c39f72-b11b-4468-a686-6b2d49f858a0" x1="218.07" y1="361.34" x2="379.9" y2="623.54" xlink:href="#aa92f73b-76e2-4dd6-8fea-854097ab11b1"/><linearGradient id="b45aab38-4826-4e25-a5cf-f491d2eb42fc" x1="224.09" y1="357.63" x2="385.92" y2="619.82" xlink:href="#aa92f73b-76e2-4dd6-8fea-854097ab11b1"/><linearGradient id="ba4b06af-bcf8-4477-9b49-d2ee233e1b3c" x1="163.22" y1="395.2" x2="325.05" y2="657.39" xlink:href="#aa92f73b-76e2-4dd6-8fea-854097ab11b1"/><linearGradient id="b31d755b-88f1-4b2c-b1fc-e49cd8e1bc1f" x1="169.24" y1="391.48" x2="331.07" y2="653.67" xlink:href="#aa92f73b-76e2-4dd6-8fea-854097ab11b1"/><linearGradient id="fd47f874-c1d5-465d-9c8d-b59f6ee580cb" x1="175.26" y1="387.77" x2="337.09" y2="649.96" xlink:href="#aa92f73b-76e2-4dd6-8fea-854097ab11b1"/><linearGradient id="a0106252-f5b7-4bc8-9689-a5b5413cde14" x1="181.27" y1="384.05" x2="343.1" y2="646.25" xlink:href="#aa92f73b-76e2-4dd6-8fea-854097ab11b1"/><linearGradient id="a03dbb41-13f2-406b-9154-139b51d2e5fa" x1="187.29" y1="380.34" x2="349.12" y2="642.53" xlink:href="#aa92f73b-76e2-4dd6-8fea-854097ab11b1"/><linearGradient id="e4f784c3-d00c-4dcf-bc1e-4370aae47151" x1="193.31" y1="376.63" x2="355.14" y2="638.82" xlink:href="#aa92f73b-76e2-4dd6-8fea-854097ab11b1"/><linearGradient id="f23aba43-b726-4dd0-9972-a94783c25e1a" x1="199.32" y1="372.91" x2="361.15" y2="635.11" xlink:href="#aa92f73b-76e2-4dd6-8fea-854097ab11b1"/><linearGradient id="a57f29d8-51c5-4440-93c6-91a18b1402a7" x1="205.34" y1="369.2" x2="367.17" y2="631.39" xlink:href="#aa92f73b-76e2-4dd6-8fea-854097ab11b1"/><linearGradient id="bd55cb71-5015-4cf7-a972-22c325df3b36" x1="211.36" y1="365.49" x2="373.19" y2="627.68" xlink:href="#aa92f73b-76e2-4dd6-8fea-854097ab11b1"/><linearGradient id="ea519b3d-64e4-4aea-a427-560bd58966be" x1="150.49" y1="403.05" x2="312.32" y2="665.25" xlink:href="#aa92f73b-76e2-4dd6-8fea-854097ab11b1"/><linearGradient id="e6bc6a36-f10e-46b2-8e7d-61fdbff9870a" x1="156.51" y1="399.34" x2="318.34" y2="661.53" xlink:href="#aa92f73b-76e2-4dd6-8fea-854097ab11b1"/><linearGradient id="ebdcbed2-140a-494a-bd4e-bede3dbd3ae8" x1="162.53" y1="395.63" x2="324.36" y2="657.82" xlink:href="#aa92f73b-76e2-4dd6-8fea-854097ab11b1"/><linearGradient id="bc695fbc-672c-458a-9d4e-ba953b927301" x1="168.54" y1="391.91" x2="330.37" y2="654.1" xlink:href="#aa92f73b-76e2-4dd6-8fea-854097ab11b1"/><linearGradient id="a1f29b69-b11c-41a0-9862-5030d1dbabd8" x1="174.56" y1="388.2" x2="336.39" y2="650.39" xlink:href="#aa92f73b-76e2-4dd6-8fea-854097ab11b1"/><linearGradient id="b6fb0733-05e9-4c84-8995-22429243063d" x1="180.58" y1="384.48" x2="342.41" y2="646.68" xlink:href="#aa92f73b-76e2-4dd6-8fea-854097ab11b1"/><linearGradient id="b69c2972-cd7e-4f9b-9ed0-286f930a7fa3" x1="186.59" y1="380.77" x2="348.42" y2="642.96" xlink:href="#aa92f73b-76e2-4dd6-8fea-854097ab11b1"/><linearGradient id="e8291824-972f-4dbe-a061-9c65f36ae909" x1="192.61" y1="377.06" x2="354.44" y2="639.25" xlink:href="#aa92f73b-76e2-4dd6-8fea-854097ab11b1"/><linearGradient id="a322c0b9-0d82-4fd2-8258-9fea593be50b" x1="198.63" y1="373.34" x2="360.46" y2="635.54" xlink:href="#aa92f73b-76e2-4dd6-8fea-854097ab11b1"/><linearGradient id="b4fc251b-6178-4e75-84f9-f93cfa83ddd9" x1="364.01" y1="99.76" x2="41.1" y2="116.13" xlink:href="#aa92f73b-76e2-4dd6-8fea-854097ab11b1"/><linearGradient id="b471af5f-a88a-4bc1-9778-7feab8a8f101" x1="88.35" y1="84.1" x2="304.85" y2="84.1" xlink:href="#ee854199-860a-4581-8f98-6b55dfe98deb"/><linearGradient id="a668d3ca-675f-459c-ac0d-4e6e23d9577a" x1="311.01" y1="66.79" x2="102.79" y2="118.74" xlink:href="#aa92f73b-76e2-4dd6-8fea-854097ab11b1"/><linearGradient id="aff98ba4-9125-476e-9219-339906589bfc" x1="309.66" y1="61.38" x2="101.44" y2="113.34" xlink:href="#aa92f73b-76e2-4dd6-8fea-854097ab11b1"/><linearGradient id="b5a576ac-3aeb-4205-bdf6-29d0b2c4de14" x1="300.45" y1="24.46" x2="92.22" y2="76.41" xlink:href="#aa92f73b-76e2-4dd6-8fea-854097ab11b1"/><linearGradient id="b3b32119-bc53-4bf9-9f63-61e5b2535976" x1="-67.27" y1="114.22" x2="425.28" y2="119.13" gradientUnits="userSpaceOnUse"><stop offset="0" stop-color="#36353d"/><stop offset="0.48" stop-color="#44444d"/><stop offset="0.52" stop-color="#4d4d57"/><stop offset="0.59" stop-color="#575762"/><stop offset="0.7" stop-color="#5d5d69"/><stop offset="1" stop-color="#5f5f6b"/></linearGradient><linearGradient id="e70b6fc7-513b-42d7-aec3-59047b659576" x1="212.33" y1="113.69" x2="331.18" y2="113.69" xlink:href="#aa92f73b-76e2-4dd6-8fea-854097ab11b1"/><linearGradient id="b2265679-7028-4b58-a03c-b2b6cdd5ddb7" x1="64.23" y1="113.69" x2="183.08" y2="113.69" xlink:href="#aa92f73b-76e2-4dd6-8fea-854097ab11b1"/><linearGradient id="f139ba61-5065-4ba6-ae87-6357eec43f3d" x1="55.54" y1="135.35" x2="337.66" y2="135.35" xlink:href="#b3b32119-bc53-4bf9-9f63-61e5b2535976"/><radialGradient id="bbbe9a86-7589-413d-84fd-bdd7b7c96c4a" cx="148.2" cy="250.7" r="133.29" gradientUnits="userSpaceOnUse"><stop offset="0" stop-color="#fce586"/><stop offset="0.23" stop-color="#fcdb7b"/><stop offset="0.62" stop-color="#fcd06f"/><stop offset="1" stop-color="#fccc6b"/></radialGradient><radialGradient id="b504a823-18f8-475b-8c6a-6521059de6b2" cx="211.82" cy="224.09" r="97.6" xlink:href="#bbbe9a86-7589-413d-84fd-bdd7b7c96c4a"/><radialGradient id="b8024d89-7fc1-4ca8-8b0c-97e859caba50" cx="252.39" cy="264.2" r="0" xlink:href="#bbbe9a86-7589-413d-84fd-bdd7b7c96c4a"/><radialGradient id="a11a0e71-b3bb-49bb-b688-f021e69f1366" cx="211.77" cy="224.09" r="97.65" xlink:href="#bbbe9a86-7589-413d-84fd-bdd7b7c96c4a"/><radialGradient id="fe52b39c-c28d-4dda-8b43-b5bb1385de3c" cx="209.44" cy="223.75" r="32.83" xlink:href="#bbbe9a86-7589-413d-84fd-bdd7b7c96c4a"/><radialGradient id="f1dec8df-abb8-411a-958e-368eacfc5b76" cx="135.58" cy="226.72" r="133.29" xlink:href="#bbbe9a86-7589-413d-84fd-bdd7b7c96c4a"/><radialGradient id="eeba365f-ba2c-41b6-9ad2-fc1f80ad58fa" cx="199.2" cy="200.11" r="97.6" xlink:href="#bbbe9a86-7589-413d-84fd-bdd7b7c96c4a"/><radialGradient id="a314cccd-db6c-4152-892b-c8b1fb9d60e1" cx="239.77" cy="240.22" r="0" xlink:href="#bbbe9a86-7589-413d-84fd-bdd7b7c96c4a"/><radialGradient id="a58851e4-c777-4233-87d5-cc3b27b41fda" cx="199.15" cy="200.11" r="97.65" xlink:href="#bbbe9a86-7589-413d-84fd-bdd7b7c96c4a"/><radialGradient id="ee06389b-086e-4f1b-8dc4-00b36f88bab4" cx="196.82" cy="199.77" r="32.83" xlink:href="#bbbe9a86-7589-413d-84fd-bdd7b7c96c4a"/><radialGradient id="b805b00a-7af9-4939-95ac-c6c5ef32be42" cx="161.27" cy="206.08" r="133.29" xlink:href="#bbbe9a86-7589-413d-84fd-bdd7b7c96c4a"/><radialGradient id="f84b865a-9c2c-4d46-8c82-38c7f7cfff0c" cx="224.89" cy="179.47" r="97.6" xlink:href="#bbbe9a86-7589-413d-84fd-bdd7b7c96c4a"/><radialGradient id="adf1f513-f677-411e-8a8a-989397702e55" cx="265.46" cy="219.58" r="0" xlink:href="#bbbe9a86-7589-413d-84fd-bdd7b7c96c4a"/><radialGradient id="a161dc53-ccd7-4dad-901c-69e55e956c40" cx="224.84" cy="179.47" r="97.65" xlink:href="#bbbe9a86-7589-413d-84fd-bdd7b7c96c4a"/><radialGradient id="bb817c53-459c-4a36-a22d-e68a263cf611" cx="222.51" cy="179.13" r="32.83" xlink:href="#bbbe9a86-7589-413d-84fd-bdd7b7c96c4a"/><radialGradient id="aa6f5768-810f-4ae9-93e9-05eb7d100e6d" cx="161.27" cy="183.52" r="133.29" xlink:href="#bbbe9a86-7589-413d-84fd-bdd7b7c96c4a"/><radialGradient id="b38b87f4-6fa5-4893-9ce3-9ce2c3cab5ed" cx="224.89" cy="156.91" r="97.6" xlink:href="#bbbe9a86-7589-413d-84fd-bdd7b7c96c4a"/><radialGradient id="fdcbe968-834d-4b20-b298-be25c07430e0" cx="265.46" cy="197.02" r="0" xlink:href="#bbbe9a86-7589-413d-84fd-bdd7b7c96c4a"/><radialGradient id="ac1c9c77-09a5-4ff8-8c70-0c895d5b6e71" cx="224.84" cy="156.91" r="97.65" xlink:href="#bbbe9a86-7589-413d-84fd-bdd7b7c96c4a"/><linearGradient id="aa8465ef-27e2-4a8a-9603-4c008a058fb8" x1="182.3" y1="156.57" x2="262.72" y2="156.57" gradientUnits="userSpaceOnUse"><stop offset="0" stop-color="#fce57c"/><stop offset="0.27" stop-color="#fcd76e"/><stop offset="0.64" stop-color="#fccb62"/><stop offset="1" stop-color="#fcc75e"/></linearGradient><radialGradient id="b9bb2d02-42ab-4ef0-a8ff-17cf9bb2fc0f" cx="883.45" cy="3043.86" r="133.29" gradientTransform="translate(-2984.18 -430.61) rotate(-61.09)" xlink:href="#bbbe9a86-7589-413d-84fd-bdd7b7c96c4a"/><radialGradient id="b450b12b-4d8f-4e60-886d-87b1e5699308" cx="947.08" cy="3017.25" r="97.6" gradientTransform="translate(-2984.18 -430.61) rotate(-61.09)" xlink:href="#bbbe9a86-7589-413d-84fd-bdd7b7c96c4a"/><radialGradient id="a49544bb-d94e-47c2-b33f-31bc44b4b193" cx="987.65" cy="3057.36" r="0" gradientTransform="translate(-2984.18 -430.61) rotate(-61.09)" xlink:href="#bbbe9a86-7589-413d-84fd-bdd7b7c96c4a"/><radialGradient id="e60d77d2-8d12-4710-af3b-e1312f5a7bb1" cx="947.03" cy="3017.25" r="97.65" gradientTransform="translate(-2984.18 -430.61) rotate(-61.09)" xlink:href="#bbbe9a86-7589-413d-84fd-bdd7b7c96c4a"/><linearGradient id="e4c2dedf-dde1-4690-8c9b-6e7775081356" x1="904.48" y1="3016.9" x2="984.9" y2="3016.9" gradientTransform="translate(-2984.18 -430.61) rotate(-61.09)" xlink:href="#aa8465ef-27e2-4a8a-9603-4c008a058fb8"/></defs><title>product3</title><polygon class="ba60c4a4-157e-4e78-bc3a-fe07e03e9a43" points="203.27 438.13 0 320.77 203.26 203.42 406.53 320.77 203.27 438.13"/><polygon class="a214b1a7-71bd-4c3b-ba35-ceff04d4a15d" points="203.26 406.08 55.5 320.77 203.26 235.46 351.02 320.77 203.26 406.08"/><polygon class="bec1bbd0-a138-4034-a7f5-2b3fbd74085e" points="203.26 241.24 346.02 323.66 351.02 320.77 203.26 235.46 55.5 320.77 60.51 323.66 203.26 241.24"/><polygon class="fa51bed4-f0ca-4814-90ab-8604c161b3fd" points="406.53 320.77 406.53 387.3 203.27 504.65 203.27 438.13 406.53 320.77"/><polygon class="a017a571-a297-404d-8619-5d49f65b89cc" points="0 320.77 0 387.29 203.27 504.65 203.27 438.13 0 320.77"/><g class="b8338405-2944-4fe0-8a7b-98e7b826fecc"><polygon class="b9651de2-624f-4fb5-b725-0970354e59bf" points="13.77 350.66 13.77 371.61 189.5 473.06 189.5 452.12 13.77 350.66"/></g><polygon class="f4a7f0d6-8b93-4d2b-b468-e18e6f16aaea" points="203.27 434.31 3.3 318.87 0 320.77 203.27 438.13 406.53 320.77 403.22 318.87 203.27 434.31"/><polygon class="ffc8f233-d215-473b-8313-3c98c2f6b96b" points="376.04 367.39 376.04 379.3 233.75 461.44 233.75 449.54 376.04 367.39"/><polygon class="bfc041f4-8ec1-42ba-84fd-de48395bdfc5" points="0 320.77 0 387.29 203.27 504.65 203.27 438.13 0 320.77"/><polygon class="be64556a-83d6-48e5-907a-b28317dfb539" points="143.93 434.59 107.12 413.34 107.12 417.73 143.93 438.98 143.93 434.59"/><polygon class="ebc9eafb-56a2-4432-ba25-ee7ec9184117" points="101.81 410.32 91.84 404.56 91.84 408.95 101.81 414.71 101.81 410.32"/><polygon class="a5c1bb04-b37e-44cf-9f5b-038c668ca522" points="55.09 383.36 34.69 371.57 34.69 375.96 55.09 387.74 55.09 383.36"/><polygon class="b434270a-17e2-49b6-98e2-5c3f9c984838" points="73.72 394.11 58.96 385.59 58.95 389.98 73.71 398.5 73.72 394.11"/><polygon class="b3ec0240-e5e0-4a16-b5ce-9e8fe91bd2ef" points="87.55 402.1 77.58 396.34 77.58 400.73 87.55 406.49 87.55 402.1"/><polygon class="fd2587d6-de39-453d-90cd-2709ad63bdf1" points="203.47 264.75 197.02 261.03 203.47 257.3 209.93 261.03 203.47 264.75"/><polygon class="b5e5b63f-4ef0-450a-abf0-37c2ba0e00c9" points="216.38 272.21 209.93 268.48 216.38 264.76 222.84 268.48 216.38 272.21"/><polygon class="b6d7050e-bd66-480d-9a18-6f01f6259ec0" points="229.29 279.66 222.84 275.94 229.29 272.21 235.74 275.94 229.29 279.66"/><polygon class="b6ca8f7f-f6ea-4b8f-9255-1fadb7a356b8" points="242.2 287.12 235.75 283.39 242.2 279.66 248.65 283.39 242.2 287.12"/><polygon class="a5fb8083-187c-46a6-b983-8c7b880e1741" points="255.11 294.57 248.65 290.84 255.11 287.12 261.56 290.84 255.11 294.57"/><polygon class="b7dbedce-8c3f-4c64-acbb-5fea77601703" points="268.02 302.02 261.56 298.29 268.02 294.57 274.47 298.29 268.02 302.02"/><polygon class="a9764660-7785-464d-85be-48f26450828d" points="280.93 309.47 274.47 305.75 280.93 302.02 287.38 305.75 280.93 309.47"/><polygon class="a69e4244-9b2c-48dc-ba5c-df0baa9d3cca" points="293.83 316.93 287.38 313.2 293.83 309.47 300.29 313.2 293.83 316.93"/><polygon class="b40f017d-e955-4df3-a444-45e3b7f7565e" points="306.74 324.38 300.29 320.65 306.74 316.93 313.2 320.65 306.74 324.38"/><polygon class="ffc2f2d6-8772-411b-aa33-e2d6965eba47" points="190.51 272.24 184.06 268.51 190.51 264.79 196.97 268.51 190.51 272.24"/><polygon class="b0078ea9-17a8-4189-b92e-a2c45d626ec7" points="203.42 279.69 196.97 275.96 203.42 272.24 209.87 275.96 203.42 279.69"/><polygon class="fa09c477-907b-413f-bf59-2d9f25065b6a" points="216.33 287.14 209.87 283.42 216.33 279.69 222.78 283.42 216.33 287.14"/><polygon class="bca8d936-f525-4a0d-b2ef-583e7f5cf333" points="229.24 294.6 222.78 290.87 229.24 287.14 235.69 290.87 229.24 294.6"/><polygon class="e609de26-961b-4788-8d4b-c3781a4ad0bf" points="242.15 302.05 235.69 298.32 242.15 294.6 248.6 298.32 242.15 302.05"/><polygon class="f2e432ef-4257-41be-8504-b60528f05abd" points="255.06 309.5 248.6 305.78 255.06 302.05 261.51 305.78 255.06 309.5"/><polygon class="a3acc1dc-6a6b-4a98-829f-1ebe9ad868ed" points="267.96 316.96 261.51 313.23 267.96 309.5 274.42 313.23 267.96 316.96"/><polygon class="fa9a59f2-f35a-4a52-8db7-db718a2f0b90" points="280.87 324.41 274.42 320.68 280.87 316.96 287.33 320.68 280.87 324.41"/><polygon class="a4dc523e-6f0a-4e20-a2e0-351ecbb1e133" points="293.78 331.86 287.33 328.14 293.78 324.41 300.24 328.14 293.78 331.86"/><polygon class="ba74047a-0a9a-4849-9373-6a6ffdce5ce8" points="177.55 279.72 171.09 276 177.55 272.27 184 276 177.55 279.72"/><polygon class="a17e500a-c618-46d0-92d7-b2ed682c1b1b" points="190.46 287.18 184 283.45 190.46 279.72 196.91 283.45 190.46 287.18"/><polygon class="b348a47b-dffc-487f-8b83-819352908ad7" points="203.37 294.63 196.91 290.9 203.37 287.18 209.82 290.9 203.37 294.63"/><polygon class="f105fdd1-7857-4aa5-bbe4-94906c69495a" points="216.28 302.08 209.82 298.35 216.28 294.63 222.73 298.35 216.28 302.08"/><polygon class="e598fb2a-f730-4a45-b88f-50d34ae77e50" points="229.19 309.53 222.73 305.81 229.19 302.08 235.64 305.81 229.19 309.53"/><polygon class="ae5fd03d-b92a-47c0-ba18-3f4c8a1d89ad" points="242.09 316.99 235.64 313.26 242.09 309.53 248.55 313.26 242.09 316.99"/><polygon class="a59fc467-ab40-40c9-a897-e8b49707177b" points="255 324.44 248.55 320.71 255 316.99 261.46 320.71 255 324.44"/><polygon class="fd072510-363c-4b82-b004-f62b3d3cab67" points="267.91 331.89 261.46 328.17 267.91 324.44 274.37 328.17 267.91 331.89"/><polygon class="ee073fab-9f0c-499e-bcec-127193f3930c" points="280.82 339.35 274.37 335.62 280.82 331.89 287.28 335.62 280.82 339.35"/><polygon class="b6a36f65-449f-41d7-8c11-832d490fa514" points="164.59 287.2 158.13 283.48 164.59 279.75 171.04 283.48 164.59 287.2"/><polygon class="bc68f3ef-969f-4a45-af4c-7f519995c9cc" points="177.5 294.66 171.04 290.93 177.5 287.2 183.95 290.93 177.5 294.66"/><polygon class="b696e6d6-3ed0-48c9-9f9f-2b388c79c128" points="190.41 302.11 183.95 298.38 190.41 294.66 196.86 298.38 190.41 302.11"/><polygon class="f1f5fd18-82a5-40df-9c62-e4dd55f92759" points="203.31 309.56 196.86 305.84 203.31 302.11 209.77 305.84 203.31 309.56"/><polygon class="b207799b-0288-45d1-a4ec-da68e497127e" points="216.22 317.02 209.77 313.29 216.22 309.56 222.68 313.29 216.22 317.02"/><polygon class="f67f015b-282b-4f7b-b92b-16c8dd8bf470" points="229.13 324.47 222.68 320.74 229.13 317.02 235.59 320.74 229.13 324.47"/><polygon class="a0c3bf29-22e6-48ce-b1f3-e6bcb6b894dc" points="242.04 331.92 235.59 328.2 242.04 324.47 248.5 328.2 242.04 331.92"/><polygon class="b071d001-f9d3-4bc8-bae9-c4bab433132f" points="254.95 339.38 248.5 335.65 254.95 331.92 261.4 335.65 254.95 339.38"/><polygon class="aadee5f0-ee70-4986-8c66-dc6285c72f17" points="267.86 346.83 261.41 343.1 267.86 339.38 274.31 343.1 267.86 346.83"/><polygon class="b21f039d-ec56-4bf1-b1ca-2fc68b3af70a" points="151.63 294.69 145.17 290.96 151.63 287.24 158.08 290.96 151.63 294.69"/><polygon class="e83553c0-d2a9-4ca9-a266-86ecbd8c21c2" points="164.54 302.14 158.08 298.42 164.54 294.69 170.99 298.42 164.54 302.14"/><polygon class="f5002906-cc82-4c18-81e2-0a7d7d29b273" points="177.44 309.59 170.99 305.87 177.44 302.14 183.9 305.87 177.44 309.59"/><polygon class="e34dadb5-5698-4628-9d53-34085c9cac16" points="190.35 317.05 183.9 313.32 190.35 309.59 196.81 313.32 190.35 317.05"/><polygon class="e0dd8205-7cbc-4890-8703-9b301b7b138c" points="203.26 324.5 196.81 320.77 203.26 317.05 209.72 320.77 203.26 324.5"/><polygon class="f6e28d40-f319-4931-8c5a-1ec2232a6c5b" points="216.17 331.95 209.72 328.23 216.17 324.5 222.63 328.23 216.17 331.95"/><polygon class="ebc9712f-72cf-47c6-8e75-65ea33bf73cc" points="229.08 339.41 222.63 335.68 229.08 331.95 235.53 335.68 229.08 339.41"/><polygon class="a14f0149-077b-452f-b589-092491bea526" points="241.99 346.86 235.53 343.13 241.99 339.41 248.44 343.13 241.99 346.86"/><polygon class="b31729b0-7fa4-4f60-90f9-44c6b2deac42" points="254.9 354.31 248.44 350.58 254.9 346.86 261.35 350.59 254.9 354.31"/><polygon class="f1277f0a-4975-47a2-bd35-16fdbc7c09bf" points="138.67 302.17 132.21 298.44 138.67 294.72 145.12 298.44 138.67 302.17"/><polygon class="a0395250-0e24-44c2-8e83-520a1972f56b" points="151.57 309.62 145.12 305.9 151.57 302.17 158.03 305.9 151.57 309.62"/><polygon class="fcef7e40-614f-49ed-b7b1-cf48caaafb14" points="164.48 317.08 158.03 313.35 164.48 309.62 170.94 313.35 164.48 317.08"/><polygon class="fb53eb55-66f4-4c9b-8ec2-f82bb67e4cb2" points="177.39 324.53 170.94 320.8 177.39 317.08 183.85 320.8 177.39 324.53"/><polygon class="f271b22f-4b00-4f4d-8147-5ef8785bc5f8" points="190.3 331.98 183.85 328.26 190.3 324.53 196.76 328.26 190.3 331.98"/><polygon class="ab7be568-4f8e-4108-bdff-61f6f5f7ce86" points="203.21 339.44 196.76 335.71 203.21 331.98 209.66 335.71 203.21 339.44"/><polygon class="a89db6b9-4f43-4838-92b0-b0940dd188fd" points="216.12 346.89 209.66 343.16 216.12 339.44 222.57 343.16 216.12 346.89"/><polygon class="f478e789-f3fb-4e0c-9adf-e035c3cd80f0" points="229.03 354.34 222.57 350.62 229.03 346.89 235.48 350.62 229.03 354.34"/><polygon class="f3cc91f3-9407-438f-95aa-60009fbbc4c3" points="241.94 361.8 235.48 358.07 241.94 354.34 248.39 358.07 241.94 361.8"/><polygon class="be9356ca-143a-45b7-b72a-a0d72f5837e8" points="125.7 309.65 119.25 305.93 125.7 302.2 132.16 305.93 125.7 309.65"/><polygon class="f9d84935-4fac-4221-ab0a-732ec01d3124" points="138.61 317.11 132.16 313.38 138.61 309.65 145.07 313.38 138.61 317.11"/><polygon class="b61b077b-4513-48d6-bd4f-1deffcead96c" points="151.52 324.56 145.07 320.83 151.52 317.11 157.98 320.83 151.52 324.56"/><polygon class="a8640605-7b38-45a5-9572-44ec4bb59dcb" points="164.43 332.01 157.98 328.29 164.43 324.56 170.89 328.29 164.43 332.01"/><polygon class="e6dff7e9-5079-4524-9cb8-aaa214d4bb05" points="177.34 339.47 170.89 335.74 177.34 332.01 183.79 335.74 177.34 339.47"/><polygon class="a3d519a5-daae-40a0-b2c9-cbf3fc44547f" points="190.25 346.92 183.79 343.19 190.25 339.47 196.7 343.19 190.25 346.92"/><polygon class="b1116714-838b-480f-8136-dff58e9c16de" points="203.16 354.37 196.7 350.65 203.16 346.92 209.61 350.65 203.16 354.37"/><polygon class="b11f731f-43a9-429e-9be1-38d36051373f" points="216.07 361.82 209.61 358.1 216.07 354.37 222.52 358.1 216.07 361.82"/><polygon class="bbbbbe35-d1c2-4f4c-81e2-eb9a65a43240" points="228.98 369.28 222.52 365.55 228.98 361.83 235.43 365.55 228.98 369.28"/><polygon class="a5ef89ee-6cdc-4c4b-9456-21b20bf3f3d7" points="112.74 317.14 106.29 313.41 112.74 309.69 119.2 313.41 112.74 317.14"/><polygon class="a2f2b752-a8ea-4ed3-a2ae-92b4e51a4806" points="125.65 324.59 119.2 320.86 125.65 317.14 132.11 320.86 125.65 324.59"/><polygon class="b56b98ba-5478-4966-b783-7d2a889138a7" points="138.56 332.04 132.11 328.32 138.56 324.59 145.02 328.32 138.56 332.04"/><polygon class="a308641e-07ab-4bfa-8f3f-8085b39d70a4" points="151.47 339.5 145.02 335.77 151.47 332.04 157.93 335.77 151.47 339.5"/><polygon class="b4542c48-d74a-46ce-9634-8b54d8a5e268" points="164.38 346.95 157.93 343.22 164.38 339.5 170.83 343.22 164.38 346.95"/><polygon class="b6531a8c-8091-4caa-a4b4-14fbd27f42b4" points="177.29 354.4 170.83 350.68 177.29 346.95 183.74 350.68 177.29 354.4"/><polygon class="b5df96b5-4d07-4b46-b50d-e40d7709abb3" points="190.2 361.86 183.74 358.13 190.2 354.4 196.65 358.13 190.2 361.86"/><polygon class="fe8d58b7-4086-4bad-a225-2e1fd283cee1" points="203.11 369.31 196.65 365.58 203.11 361.86 209.56 365.58 203.11 369.31"/><polygon class="ad008cc4-c1f7-436a-b2dc-e0f824b050ec" points="216.01 376.76 209.56 373.04 216.01 369.31 222.47 373.04 216.01 376.76"/><polygon class="a979f9d2-37b0-42fa-b278-0d9f06a36f4e" points="99.78 324.62 93.33 320.89 99.78 317.17 106.24 320.89 99.78 324.62"/><polygon class="aace5f9f-10b3-4d62-9c44-2a0246b37a44" points="112.69 332.07 106.24 328.35 112.69 324.62 119.15 328.35 112.69 332.07"/><polygon class="f778fcdd-9f61-4207-87b6-ad68c1ffc904" points="125.6 339.53 119.15 335.8 125.6 332.07 132.06 335.8 125.6 339.53"/><polygon class="fe83e3c9-d3f8-429e-b8e5-68b435314b64" points="138.51 346.98 132.06 343.25 138.51 339.53 144.96 343.25 138.51 346.98"/><polygon class="f0738c17-0466-4cdd-8796-862fa8dd0653" points="151.42 354.43 144.96 350.71 151.42 346.98 157.87 350.71 151.42 354.43"/><polygon class="bdca7320-d777-48f0-95f7-9d2b9b07a6d8" points="164.33 361.89 157.87 358.16 164.33 354.43 170.78 358.16 164.33 361.89"/><polygon class="bb2ebec3-cb1a-485e-8d37-e9b137cf5169" points="177.24 369.34 170.78 365.61 177.24 361.89 183.69 365.61 177.24 369.34"/><polygon class="b1523b30-37c1-4d69-8c9a-f93d98bd9f3e" points="190.15 376.79 183.69 373.06 190.15 369.34 196.6 373.06 190.15 376.79"/><polygon class="ad24061a-fd01-4a37-a711-c098ae1970f5" points="203.05 384.25 196.6 380.52 203.05 376.79 209.51 380.52 203.05 384.25"/><path class="a3978b79-9bed-45ca-b0f8-ce7746c127ea" d="M350.71,62.27l0,136.13a9.2,9.2,0,0,1-2.61,6.49,15.51,15.51,0,0,1-2.25,1.87,15.72,15.72,0,0,1-7.42,2.6h0L196.6,152.55,54.8,209.35a15.67,15.67,0,0,1-7.29-2.59,16.09,16.09,0,0,1-2.44-2.07,9.28,9.28,0,0,1-2.56-6.44l0-136A5.62,5.62,0,0,1,46,57.06L180.94,3a42.08,42.08,0,0,1,31.32,0l134.92,54A5.62,5.62,0,0,1,350.71,62.27Z"/><path class="ffc8f233-d215-473b-8313-3c98c2f6b96b" d="M341.3,60.75l-129-51.68a42.2,42.2,0,0,0-31.33,0L51.9,60.75A5.63,5.63,0,0,0,48.37,66l0,137.75a5.62,5.62,0,0,0,7.71,5.21l124.83-50a42.2,42.2,0,0,1,31.33,0l124.84,50a5.61,5.61,0,0,0,7.7-5.21l0-137.75A5.62,5.62,0,0,0,341.3,60.75Z"/><path class="b68f5f5a-90be-43ec-abf6-8f06c9acac8c" d="M302.27,49.81,208,12.07a30.78,30.78,0,0,0-22.88,0L90.92,49.81a4.12,4.12,0,0,0-2.57,3.81v100.6A4.1,4.1,0,0,0,94,158l91.17-36.51a30.68,30.68,0,0,1,22.88,0L299.21,158a4.1,4.1,0,0,0,5.62-3.81l0-100.6A4.12,4.12,0,0,0,302.27,49.81Z"/><path class="b19c4d0d-605c-48ed-8cd7-8d97273279c4" d="M296.88,148.52,211,114.13a38.68,38.68,0,0,0-28.8,0L96.32,148.52l0-92.29.3-.12,91.52-36.65a22.91,22.91,0,0,1,17,0l91.81,36.77ZM97.24,56.86v90.28l84.6-33.88a39.7,39.7,0,0,1,29.49,0l84.6,33.88,0-90.28L204.73,20.33a22,22,0,0,0-16.26,0Z"/><path class="a2a47f32-b40b-444b-b050-3c0fc161bc51" d="M295.66,90.07c-9.11-1.52-17.45-7.58-22.33-16.21a41.52,41.52,0,0,1-4.25-27.55l.92.16a40.57,40.57,0,0,0,4.15,26.93c4.73,8.39,12.83,14.27,21.67,15.75Z"/><path class="b4ec769c-a4eb-460d-9a4b-ca5b5715fad8" d="M96.88,99.15l-.26-.9a48.95,48.95,0,0,0,34.27-55.38l.93-.17A49.9,49.9,0,0,1,96.88,99.15Z"/><path class="ea08a319-7074-42af-82c6-91f93dc28d25" d="M339.19,207.21a1.94,1.94,0,0,1-.7-.14l-124.84-50a45.85,45.85,0,0,0-34.11,0l-124.83,50a2,2,0,0,1-.7.14,1.88,1.88,0,0,1-1.87-1.88l0-124.09a1.85,1.85,0,0,1,1.17-1.73l129-51.68a38.27,38.27,0,0,1,28.54,0l129,51.68a1.84,1.84,0,0,1,1.18,1.73l0,124.09a1.88,1.88,0,0,1-1.87,1.88Z"/><path class="e070e525-bf0b-4856-b465-1c4a60de0b5e" d="M331.18,100.29l0,72.9a1.86,1.86,0,0,1-1.86,1.87,1.75,1.75,0,0,1-.7-.14L213.51,128.84a1.89,1.89,0,0,1-1.18-1.74V54.2a1.87,1.87,0,0,1,2.57-1.74L330,98.56A1.86,1.86,0,0,1,331.18,100.29Z"/><path class="a66dde0c-726f-430b-a03c-439d07141fa8" d="M325,108.34v15.35a.39.39,0,0,1-.39.4.4.4,0,0,1-.15,0l-24.24-9.71A.4.4,0,0,1,300,114V98.63a.4.4,0,0,1,.55-.37L324.78,108A.4.4,0,0,1,325,108.34Z"/><path class="a7aa99f5-0252-4980-9de2-a5b40dcdc9fe" d="M64.23,100.29l0,72.9a1.87,1.87,0,0,0,1.87,1.87,1.75,1.75,0,0,0,.7-.14L181.9,128.84a1.89,1.89,0,0,0,1.18-1.74V54.2a1.87,1.87,0,0,0-2.57-1.74L65.41,98.56A1.84,1.84,0,0,0,64.23,100.29Z"/><path class="a66dde0c-726f-430b-a03c-439d07141fa8" d="M70.38,108.34v15.35a.39.39,0,0,0,.39.4.4.4,0,0,0,.15,0l24.24-9.71a.39.39,0,0,0,.24-.37V98.63a.4.4,0,0,0-.54-.37L70.63,108A.4.4,0,0,0,70.38,108.34Z"/><path class="bb9477b3-2007-46b0-ae3e-7b48ee2c16f8" d="M341.08,81.25v42.68H52.12V81.25a1.84,1.84,0,0,1,1.18-1.74l129-51.68a38.43,38.43,0,0,1,28.55,0l129,51.68A1.85,1.85,0,0,1,341.08,81.25Z"/><path class="eeaddc73-1203-4c68-aba6-3a1f8a93b71b" d="M337.66,122.58l0,79.47a1.82,1.82,0,0,1-1.82,1.83,1.87,1.87,0,0,1-.69-.13L213.25,154.94a44.66,44.66,0,0,0-33.3,0L58.07,203.75a1.87,1.87,0,0,1-.69.13,1.83,1.83,0,0,1-1.83-1.83V122.58L180.4,70a41.18,41.18,0,0,1,31.86,0Z"/><path class="bc4b13ed-fbe8-4162-846b-552299f99433" d="M286.67,227.05l-.23,3.14c-.06.56-.09,1.12-.19,1.67s-.16.85-.26,1.28a26.3,26.3,0,0,1-.81,2.81c-.12.36-.22.72-.36,1.08a29,29,0,0,1-1.66,3.6v0c-.07.15-.14.3-.22.45s-.26.42-.39.63c-.38.64-.79,1.27-1.23,1.91-.2.29-.42.58-.64.87-.39.52-.79,1-1.21,1.55s-.68.81-1,1.21-.84.92-1.28,1.38-.77.78-1.18,1.17-.76.7-1.15,1a55.67,55.67,0,0,1-6.14,4.71c-.69.46-1.35.93-2.07,1.38-.53.35-1.07.69-1.64,1a78.44,78.44,0,0,1-7.21,3.65l-1.26.56c-1.8.77-3.69,1.45-5.58,2.11-1.59.57-3.19,1.12-4.84,1.61-1.41.41-2.8.85-4.25,1.21l-.41.11c-.77.19-1.57.33-2.35.5-1.76.39-3.52.78-5.32,1.09-2.95.52-5.93.95-8.94,1.25h-.2c-2.22.22-4.46.35-6.7.45-1.38.06-2.77.09-4.15.11s-2.58,0-3.87,0l-2.67-.08c-1.43,0-2.87-.13-4.3-.23-.9-.06-1.79-.13-2.69-.21-1.56-.14-3.11-.32-4.65-.52-.9-.12-1.8-.24-2.7-.38-1.52-.23-3-.5-4.53-.79-.79-.15-1.57-.29-2.35-.45-2.4-.51-4.77-1.08-7.08-1.74l-.31-.09q-2.09-.62-4.14-1.29c-1.41-.48-2.8-1-4.17-1.52-.74-.29-1.46-.6-2.19-.9-1-.43-2.05-.86-3-1.32-.78-.37-1.54-.75-2.3-1.14-1-.49-2-1-2.89-1.52h0c-.29-.17-.64-.32-.93-.49l-.88-.51-.07-.05c-1.12-.67-2.2-1.36-3.22-2.06h0c-1.19-.81-2.27-1.65-3.34-2.49-.71-.56-1.4-1.14-2.05-1.72l-.56-.5c-.73-.66-1.44-1.32-2.1-2v.06c-1-1-1.95-2.06-2.8-3.11l-.36-.47A32.14,32.14,0,0,1,138.09,235c-.12-.36-.21-.72-.31-1.07a26.25,26.25,0,0,1-.95-6.89l-.05,14.57a25.72,25.72,0,0,0,.63,5.36v.32c.08.39.22.79.33,1.19s.19.71.3,1.07c.07.2.11.41.18.62V250a31.53,31.53,0,0,0,4,7.87V258c.4.57.84,1.13,1.28,1.69l.35.46c.68.84,1.39,1.66,2.16,2.48v-.08c.85.91,1.78,1.79,2.75,2.66l.55.5c.67.58,1.34,1.16,2.06,1.72A57,57,0,0,0,158,272l.07.05.88.51c.65.38,1.35.71,2,1.07v.06c.57.31,1.19.58,1.78.88.76.38,1.53.77,2.31,1.13,1,.47,2,.9,3,1.33.55.23,1.08.49,1.64.71l.55.19,1,.4v-.07h0c.64.24,1.29.46,1.93.69V279c.54.19,1.1.34,1.65.52,1.31.45,2.64.88,4,1.26l.07,0c2.32.66,4.68,1.23,7.08,1.74l.66.16c.56.12,1.13.19,1.69.29,1.5.29,3,.56,4.53.79.41.06.81.16,1.22.21s1,.11,1.48.17c.64.08,1.27.19,1.91.27v-.06l1.23.14v.05l1.5.12c.39,0,.78.1,1.17.13s1,0,1.53.08c1.43.1,2.87.18,4.3.23.52,0,1,.07,1.55.08s.75,0,1.12,0,1,0,1.51,0c.78,0,1.56-.05,2.35-.06s1.8,0,2.7,0c.49,0,1-.08,1.46-.1s1,0,1.55,0c1.72-.1,3.44-.24,5.15-.41h.25c3-.3,6-.72,8.89-1.24.19,0,.4,0,.59-.08,1.6-.29,3.16-.66,4.72-1,.66-.15,1.34-.25,2-.41l.37-.09.41-.11c.8-.2,1.6-.4,2.39-.62V281l.45-.13v.07c.48-.14.93-.33,1.41-.47.82-.24,1.66-.44,2.46-.7s1.57-.62,2.38-.9,1.71-.53,2.52-.84v-.12c.6-.23,1.21-.44,1.8-.68v.08c.43-.18.84-.38,1.26-.56l1.25-.56c2.24-1,4.43-2.06,6.5-3.24v-.05c.23-.13.49-.23.72-.36l.92-.54c1-.6,1.86-1.24,2.79-1.86.58-.4,1.24-.76,1.79-1.17.11-.07.19-.15.29-.22.29-.21.54-.43.82-.65.74-.56,1.5-1.12,2.19-1.71.37-.31.7-.64,1-1,.17-.15.38-.3.55-.45l.6-.6,1.18-1.17c.44-.46.87-.92,1.28-1.38s.7-.8,1-1.21c.17-.21.38-.42.55-.64s.44-.61.66-.91l.64-.87q.66-1,1.23-1.92c.11-.17.23-.34.33-.51a1.17,1.17,0,0,0,.05-.11s.07-.1.1-.16.17-.39.28-.58c.5-.94.93-1.89,1.33-2.84,0,0,0-.08,0-.12a2.4,2.4,0,0,0,.11-.23c.07-.17.17-.33.23-.49s.14-.55.24-.82c.15-.45.35-.9.48-1.35v0c.12-.43.18-.86.28-1.29.05-.24.15-.48.2-.72s0-.34.06-.51a26.47,26.47,0,0,0,.38-3.3c0-.17.05-.33.06-.5v-.24c0-.13,0-.26,0-.38v0S286.82,228.18,286.67,227.05Z"/><path class="a91d0310-9af8-4318-b35a-9a045c2e0591" d="M276.16,264.15c.32-.31.64-.62.95-.94L278.2,262V247.53c-.34.38-.69.76-1.05,1.13l-1,1Z"/><path class="a91d0310-9af8-4318-b35a-9a045c2e0591" d="M243.15,281.33l1-.27V281l.45-.13v.07l.56-.19V266.18l-2,.59Z"/><path class="a91d0310-9af8-4318-b35a-9a045c2e0591" d="M254.15,277.63c.36-.13.71-.26,1-.4v.08c.34-.14.67-.29,1-.44V262.33q-1,.42-2,.81Z"/><path class="a91d0310-9af8-4318-b35a-9a045c2e0591" d="M221.15,284.93l2-.16V270.21l-2,.16Z"/><path class="a91d0310-9af8-4318-b35a-9a045c2e0591" d="M144.13,260.46c.6.73,1.23,1.45,1.9,2.17v-.08l.14.15V248.15c-.72-.76-1.4-1.52-2-2.29Z"/><path class="a91d0310-9af8-4318-b35a-9a045c2e0591" d="M155.13,270.18c.66.45,1.35.89,2.05,1.33V256.93c-.7-.43-1.39-.87-2.05-1.32Z"/><path class="a91d0310-9af8-4318-b35a-9a045c2e0591" d="M188.14,283l.17,0,1.87.35V268.8l-1.83-.34-.21,0Z"/><path class="a91d0310-9af8-4318-b35a-9a045c2e0591" d="M265.15,272.41l.7-.41c.47-.28.91-.58,1.35-.87V256.58l-.59.39c-.48.31-.95.61-1.46.91Z"/><path class="a91d0310-9af8-4318-b35a-9a045c2e0591" d="M199.14,284.62l1,.08,1,.11V270.22l-1-.07-1.09-.11Z"/><path class="a91d0310-9af8-4318-b35a-9a045c2e0591" d="M166.14,276.19l1.93.83.11.05V262.5l-.07,0-2-.85Z"/><path class="a91d0310-9af8-4318-b35a-9a045c2e0591" d="M177.14,280.3l1.67.5.07,0,.3.08V266.34l-.26-.07-.31-.09-1.47-.45Z"/><path class="a91d0310-9af8-4318-b35a-9a045c2e0591" d="M232.15,283.64l1.56-.26.48-.06V268.75l-.44.08c-.53.1-1.07.18-1.6.27Z"/><path class="a91d0310-9af8-4318-b35a-9a045c2e0591" d="M210.14,285.23c.41,0,.81,0,1.22,0l.83,0V270.67h-2.05Z"/><path class="a8997016-0d8a-4314-a2fa-e643858555fd" d="M258.79,261.54l.1,0Z"/><path class="a8997016-0d8a-4314-a2fa-e643858555fd" d="M252.4,264.2c2.19-.82,4.33-1.7,6.39-2.66C256.72,262.5,254.59,263.38,252.4,264.2Z"/><polygon class="a761ea7d-7057-47d1-9495-1c13d0f8ac94" points="252.4 264.2 252.38 264.2 252.39 264.2 252.4 264.2"/><path class="a8997016-0d8a-4314-a2fa-e643858555fd" d="M258.89,261.5c2.1-1,4.13-2,6.08-3.15C263,259.48,261,260.52,258.89,261.5Z"/><path class="fd5e320f-5217-4265-a176-20330f6023c6" d="M268.51,256.07c6.76-4.53,11.65-9.66,14.63-15.08h0a26.65,26.65,0,0,0,3.3-16.49h0a29,29,0,0,0-5.05-12.84h0a45.4,45.4,0,0,0-9.28-9.61h0a62.93,62.93,0,0,0-7.47-5.1c-29.39-17-76.88-17-106.06,0a60.18,60.18,0,0,0-9.8,7h.06a39.82,39.82,0,0,0-9.3,12,26.76,26.76,0,0,0-2.19,16.57h0c1.5,7.44,6.28,14.7,14.39,21A59.75,59.75,0,0,0,158,257.8l.07,0,.88.52c25.45,14.69,64.5,16.63,93.48,5.84m0,0A82.3,82.3,0,0,0,265,258.35c1.24-.73,2.38-1.52,3.55-2.28"/><path class="bc4b13ed-fbe8-4162-846b-552299f99433" d="M282.9,224.29a28.53,28.53,0,0,0-5.53-12.87,44.75,44.75,0,0,0-10-9.65c-1.62-1.16-3.37-2.29-5.24-3.37-26.42-15.25-68.35-16.08-96.29-2.5-1.61.78-3.18,1.61-4.69,2.49a57.73,57.73,0,0,0-8.32,5.81,37.43,37.43,0,0,0-9.7,12A25,25,0,0,0,141,232.76c1.26,5.76,4.61,11.4,10,16.5a56.1,56.1,0,0,0,10.44,7.63c1.39.81,2.83,1.57,4.3,2.29,22.93,11.26,55.27,12.82,80.72,4.67a80.23,80.23,0,0,0,16-7c.61-.35,1.2-.71,1.77-1.07,7.13-4.44,12.24-9.58,15.34-15A25.46,25.46,0,0,0,282.9,224.29Zm-7,16.27c-3.22,5.43-8.55,10.53-16,14.86l-.23.13a80.1,80.1,0,0,1-19.85,7.92c-21.68,5.64-47.51,4.34-67.38-3.9a72,72,0,0,1-8.45-4.15,55.1,55.1,0,0,1-8.41-5.89c-5.89-5.06-9.53-10.74-10.93-16.56a23.73,23.73,0,0,1,2.1-16.57,36.75,36.75,0,0,1,10.17-12,58,58,0,0,1,6.75-4.58,71.77,71.77,0,0,1,7.28-3.67c26.48-11.53,64.43-10.31,88.64,3.67q1.36.79,2.64,1.62a45.69,45.69,0,0,1,11.05,9.7,27.73,27.73,0,0,1,6,12.9A24.24,24.24,0,0,1,275.91,240.56Z"/><polygon class="bc4b13ed-fbe8-4162-846b-552299f99433" points="178.18 209 178.18 212.52 181.23 210.76 178.18 209"/><polygon class="bc4b13ed-fbe8-4162-846b-552299f99433" points="187.32 203.72 187.32 207.24 190.4 205.5 187.32 203.72"/><path class="bc4b13ed-fbe8-4162-846b-552299f99433" d="M247.07,234.84a7.81,7.81,0,0,0,2.49-4.79,4.28,4.28,0,0,0,0-.62v-4.5l-1.54,1a20.08,20.08,0,0,0-5.6-4.46l-.34-.19a26.58,26.58,0,0,0-10.88-3.56,20.74,20.74,0,0,0-10.33,1.73c1.78-1.48,2.58-3,2.41-4.47l0,0v-4.19l-1.48,1.34a16,16,0,0,0-3.71-2.87l-.43-.24a24.87,24.87,0,0,0-6-2.6,23,23,0,0,0-6.14-.92,24.12,24.12,0,0,0-5.88.77c-1.08.27-2.1.58-3.08.92L192.82,205l-5.5,3.17L190.4,210l-1.66.92-2,1.17-3-1.76-5.5,3.17,3,1.76-3.8,2.19-1.49.86-.4.24-2.45,1.41-3.86-2.23v4.46l5.5,3.18,6.31-3.65,39.67,22.9L218.26,246l-3.86-2.23v4.46h0l3.36,1.94,2.14,1.24h0l6.31-3.65,1.89-1.09,3.8-2.19,3.1,1.79,5.5-3.18v-3.58l.54-.31,3.11,1.79,5.5-3.18v-4.46Zm-37.94-12.33L207,223.75l-12.75-7.36,1.78-1q6.57-3.78,12.56-.33,3.51,2,3.83,3.71C212.63,219.87,211.53,221.12,209.13,222.51Zm22.8,12.92-2.36,1.36L214.38,228l2.2-1.27a12.85,12.85,0,0,1,7-2,17.31,17.31,0,0,1,7.55,2.63c2.55,1.47,3.92,2.83,4.13,4.08S234.35,234,231.93,235.43Z"/><path class="ef1b9e15-3df5-4a7a-b965-e9bb2b5680df" d="M231.19,213.22A20.74,20.74,0,0,0,220.86,215q6-5-2.75-10.17l-.43-.24a24.87,24.87,0,0,0-6-2.6,23,23,0,0,0-6.14-.92,24.12,24.12,0,0,0-5.88.77c-1.08.27-2.1.58-3.08.92l-3.74-2.16-5.5,3.17,3.08,1.78-1.66.92-2,1.17-3-1.76-5.5,3.17,3,1.76-3.8,2.19-1.49.86-.4.24-6.31,3.64,5.5,3.18,6.31-3.65,39.67,22.9-6.31,3.65,5.5,3.18,6.31-3.65,1.89-1.09,3.8-2.19,3.1,1.79,5.5-3.18-2-1.13-1.13-.66,3.64-2.1,3.11,1.79,5.5-3.18-2-1.13-1.58-.91c2.17-1.9,3.33-3.8,3.46-5.72q.24-4.31-7.15-8.62l-.34-.19A26.58,26.58,0,0,0,231.19,213.22Zm-36.95-1.29,1.78-1q6.57-3.78,12.56-.33,3.51,2,3.83,3.71c.22,1.13-.88,2.38-3.28,3.77L207,219.29Zm35.33,20.4-15.19-8.77,2.2-1.27a12.85,12.85,0,0,1,7-2,17.31,17.31,0,0,1,7.55,2.63c2.55,1.47,3.92,2.83,4.13,4.08s-.91,2.57-3.33,4Z"/><path class="bc4b13ed-fbe8-4162-846b-552299f99433" d="M274,203.07l-.22,3.14c-.06.56-.1,1.12-.19,1.67s-.16.85-.26,1.28a26.3,26.3,0,0,1-.81,2.81c-.12.36-.22.72-.36,1.08a30.51,30.51,0,0,1-1.66,3.6v0a4.78,4.78,0,0,1-.23.45c-.12.21-.26.42-.38.63-.39.64-.79,1.27-1.23,1.91-.2.29-.42.58-.64.87-.39.52-.79,1-1.21,1.55s-.68.81-1,1.21-.84.92-1.28,1.38l-1.18,1.17c-.37.35-.76.7-1.15,1.05a55.67,55.67,0,0,1-6.14,4.71c-.69.46-1.35.93-2.07,1.38-.53.35-1.07.69-1.64,1a78.44,78.44,0,0,1-7.21,3.65l-1.26.56c-1.8.78-3.69,1.45-5.58,2.12-1.59.56-3.19,1.11-4.84,1.6-1.41.42-2.8.85-4.25,1.21l-.41.11c-.78.19-1.57.33-2.35.5-1.76.39-3.53.78-5.32,1.09-2.95.52-5.93,1-8.94,1.25H212c-2.22.22-4.46.35-6.7.45-1.39.06-2.77.09-4.15.11s-2.58,0-3.87,0l-2.67-.08c-1.43-.05-2.87-.13-4.3-.23-.9-.06-1.8-.13-2.69-.21-1.56-.14-3.11-.32-4.65-.52-.9-.12-1.8-.24-2.7-.38-1.52-.23-3-.5-4.53-.79-.79-.15-1.57-.29-2.35-.45-2.4-.51-4.77-1.08-7.08-1.74l-.31-.09q-2.09-.62-4.14-1.29c-1.41-.48-2.8-1-4.17-1.52-.74-.29-1.47-.6-2.19-.9-1-.43-2.05-.86-3-1.32-.78-.37-1.54-.75-2.3-1.14-1-.49-2-1-2.89-1.51h0c-.3-.17-.64-.32-.93-.49l-.88-.51-.07,0c-1.12-.67-2.2-1.36-3.22-2.06h0c-1.18-.81-2.26-1.65-3.33-2.49-.71-.56-1.4-1.13-2.05-1.72-.2-.16-.38-.33-.56-.5-.73-.66-1.44-1.32-2.1-2v.06c-1-1-1.95-2.06-2.8-3.11l-.36-.47A32.14,32.14,0,0,1,125.47,211c-.12-.36-.21-.72-.31-1.07a26.25,26.25,0,0,1-1-6.89l0,14.57a25.72,25.72,0,0,0,.63,5.36c0,.1,0,.21,0,.32.09.4.23.79.34,1.19s.19.71.3,1.07c.07.2.11.41.18.62V226a31.53,31.53,0,0,0,4,7.87V234c.4.57.84,1.13,1.28,1.69l.35.46c.68.84,1.39,1.66,2.16,2.48v-.07c.85.9,1.78,1.78,2.75,2.65l.55.5c.67.58,1.34,1.16,2.06,1.72a57,57,0,0,0,6.57,4.56l.07.05.88.51c.65.38,1.35.71,2,1.07v.06c.57.31,1.19.58,1.78.88.76.39,1.52.77,2.31,1.14,1,.46,2,.89,3,1.32.55.23,1.08.49,1.64.71l.55.19,1,.4v-.07h0c.64.24,1.29.46,1.93.69V255c.54.19,1.1.34,1.65.52,1.31.45,2.64.88,4,1.27h.07c2.32.66,4.68,1.23,7.08,1.74l.66.16c.56.12,1.13.19,1.69.29,1.5.29,3,.56,4.53.79.41.06.81.16,1.22.21s1,.11,1.48.17c.64.08,1.27.19,1.91.27v-.06l1.23.14v.05l1.5.12c.39,0,.78.1,1.17.13s1,0,1.53.08c1.43.1,2.87.18,4.3.23.52,0,1,.07,1.55.08h1.12c.5,0,1,0,1.51,0,.78,0,1.56,0,2.35-.06s1.8,0,2.7,0c.49,0,1-.08,1.46-.1s1,0,1.55,0c1.72-.1,3.44-.24,5.15-.41h.25c3-.3,6-.72,8.89-1.24.19,0,.4,0,.59-.08,1.6-.29,3.16-.66,4.72-1,.66-.15,1.34-.25,2-.41l.36-.09.42-.11c.8-.2,1.6-.4,2.39-.62V257l.45-.13V257c.48-.14.93-.33,1.41-.47.82-.24,1.66-.44,2.46-.7s1.57-.62,2.37-.9,1.72-.53,2.53-.84v-.12c.6-.23,1.21-.44,1.8-.68v.08c.43-.17.84-.38,1.26-.56l1.25-.56c2.24-1,4.43-2.06,6.5-3.24v0c.23-.14.49-.24.72-.37l.91-.54c1-.6,1.87-1.24,2.8-1.86.58-.4,1.24-.76,1.79-1.17l.29-.22c.29-.21.54-.43.82-.65.74-.56,1.5-1.12,2.19-1.71.37-.31.69-.64,1.05-1,.17-.15.38-.3.55-.45s.39-.4.6-.6l1.18-1.17c.44-.46.87-.91,1.28-1.38s.7-.8,1-1.21c.18-.21.39-.42.56-.64s.44-.61.66-.91l.64-.87q.66-1,1.23-1.92c.11-.17.23-.34.33-.51a1.17,1.17,0,0,0,0-.11c0-.05.07-.1.1-.16s.17-.39.27-.58c.51-.94.94-1.89,1.34-2.84,0,0,0-.08,0-.12s.08-.15.11-.23.17-.33.23-.49.14-.55.24-.82c.15-.45.35-.9.48-1.35v0c.12-.43.18-.86.28-1.29.05-.24.15-.48.2-.72s0-.34.06-.51a26.47,26.47,0,0,0,.38-3.3c0-.17.05-.33.05-.5a1.55,1.55,0,0,0,0-.22v-.44S274.19,204.2,274,203.07Z"/><path class="a168b15f-62d8-4576-9881-6560f473ea55" d="M263.54,240.17c.32-.31.64-.62.95-.94l1.09-1.17V223.55c-.34.38-.69.76-1.05,1.13l-1,1Z"/><path class="a168b15f-62d8-4576-9881-6560f473ea55" d="M230.53,257.35l1-.27V257l.45-.13V257l.56-.19V242.2l-2,.59Z"/><path class="a168b15f-62d8-4576-9881-6560f473ea55" d="M241.53,253.65c.35-.13.71-.26,1.05-.4v.08c.34-.14.66-.29,1-.44V238.35q-1,.42-2,.81Z"/><path class="a168b15f-62d8-4576-9881-6560f473ea55" d="M208.53,261l2-.16V246.23l-2,.16Z"/><path class="a168b15f-62d8-4576-9881-6560f473ea55" d="M131.51,236.48c.6.73,1.23,1.45,1.9,2.17v-.07a.93.93,0,0,1,.14.14V224.17c-.72-.76-1.4-1.52-2-2.29Z"/><path class="a168b15f-62d8-4576-9881-6560f473ea55" d="M142.51,246.2c.66.45,1.35.89,2.05,1.33V233c-.7-.43-1.39-.87-2.05-1.32Z"/><path class="a168b15f-62d8-4576-9881-6560f473ea55" d="M175.52,259l.17,0,1.87.35V244.82l-1.83-.34-.21,0Z"/><path class="a168b15f-62d8-4576-9881-6560f473ea55" d="M252.53,248.43l.69-.41c.48-.28.92-.58,1.36-.87V232.6L254,233c-.48.31-1,.61-1.46.91Z"/><path class="a168b15f-62d8-4576-9881-6560f473ea55" d="M186.52,260.64l1,.08,1,.11V246.24l-.95-.07-1.09-.11Z"/><path class="a168b15f-62d8-4576-9881-6560f473ea55" d="M153.52,252.21l1.93.83.11.05V238.52l-.07,0-2-.85Z"/><path class="a168b15f-62d8-4576-9881-6560f473ea55" d="M164.52,256.32l1.67.51h.07l.3.08V242.36l-.26-.07-.31-.09-1.47-.45Z"/><path class="a168b15f-62d8-4576-9881-6560f473ea55" d="M219.53,259.66l1.56-.26.48-.06V244.77l-.44.08c-.53.1-1.07.18-1.6.27Z"/><path class="a168b15f-62d8-4576-9881-6560f473ea55" d="M197.52,261.25c.41,0,.81,0,1.22,0l.83,0V246.69h-2Z"/><path class="bb1996e4-2a02-47e9-bf2d-25b6f383cd21" d="M246.17,237.56l.1,0Z"/><path class="bb1996e4-2a02-47e9-bf2d-25b6f383cd21" d="M239.78,240.22c2.19-.82,4.33-1.7,6.39-2.66C244.1,238.52,242,239.4,239.78,240.22Z"/><polygon class="b43bafba-196f-456f-8dfc-c7be5c96f1f4" points="239.78 240.22 239.76 240.22 239.77 240.22 239.78 240.22"/><path class="bb1996e4-2a02-47e9-bf2d-25b6f383cd21" d="M246.27,237.52c2.1-1,4.13-2,6.08-3.15C250.4,235.5,248.37,236.54,246.27,237.52Z"/><path class="ed9332a2-f212-4983-952c-ad57fa22b0a0" d="M255.89,232.09c6.76-4.53,11.65-9.66,14.63-15.08h0a26.65,26.65,0,0,0,3.3-16.49h0a28.84,28.84,0,0,0-5-12.84h0a45.65,45.65,0,0,0-9.28-9.61h0A62.93,62.93,0,0,0,252,173c-29.39-17-76.88-17-106.06,0a60.18,60.18,0,0,0-9.8,7h.06a39.66,39.66,0,0,0-9.3,12,26.76,26.76,0,0,0-2.19,16.57h0c1.5,7.44,6.28,14.7,14.39,21a61.31,61.31,0,0,0,6.21,4.25l.07,0,.88.52c25.45,14.69,64.5,16.63,93.47,5.84m0,0a82.3,82.3,0,0,0,12.58-5.85c1.24-.73,2.37-1.52,3.55-2.28"/><path class="bc4b13ed-fbe8-4162-846b-552299f99433" d="M270.28,200.31a28.53,28.53,0,0,0-5.53-12.87,45,45,0,0,0-10-9.65c-1.62-1.16-3.37-2.29-5.24-3.37-26.42-15.25-68.36-16.08-96.29-2.5q-2.43,1.17-4.69,2.49a57.73,57.73,0,0,0-8.32,5.81,37.43,37.43,0,0,0-9.7,12,25,25,0,0,0-2.13,16.57c1.26,5.76,4.61,11.4,10,16.5a56.1,56.1,0,0,0,10.44,7.63c1.39.81,2.83,1.57,4.3,2.29,22.93,11.26,55.27,12.82,80.72,4.67a80.23,80.23,0,0,0,16-7c.61-.35,1.19-.71,1.77-1.07,7.13-4.44,12.24-9.58,15.34-15A25.46,25.46,0,0,0,270.28,200.31Zm-7,16.27c-3.22,5.43-8.55,10.53-16,14.86l-.23.13a80.1,80.1,0,0,1-19.85,7.92c-21.68,5.64-47.52,4.34-67.38-3.9a72,72,0,0,1-8.45-4.15,55.1,55.1,0,0,1-8.41-5.89c-5.89-5.06-9.53-10.74-10.93-16.56a23.73,23.73,0,0,1,2.1-16.57,36.75,36.75,0,0,1,10.17-12,58,58,0,0,1,6.75-4.58,71.77,71.77,0,0,1,7.28-3.67c26.48-11.53,64.43-10.31,88.64,3.67q1.36.8,2.64,1.62a45.69,45.69,0,0,1,11.05,9.7,27.73,27.73,0,0,1,6,12.9A24.24,24.24,0,0,1,263.29,216.58Z"/><polygon class="bc4b13ed-fbe8-4162-846b-552299f99433" points="165.56 185.02 165.56 188.54 168.6 186.78 165.56 185.02"/><polygon class="bc4b13ed-fbe8-4162-846b-552299f99433" points="174.7 179.74 174.7 183.26 177.78 181.52 174.7 179.74"/><path class="bc4b13ed-fbe8-4162-846b-552299f99433" d="M234.45,210.86a7.81,7.81,0,0,0,2.49-4.79,4.28,4.28,0,0,0,0-.62V201l-1.54,1a19.89,19.89,0,0,0-5.6-4.45l-.34-.2a26.62,26.62,0,0,0-10.88-3.56,20.74,20.74,0,0,0-10.33,1.73c1.78-1.48,2.58-3,2.41-4.46h0v-4.19l-1.48,1.34a16,16,0,0,0-3.71-2.87l-.43-.24a24.87,24.87,0,0,0-6-2.6,23,23,0,0,0-6.14-.92,24.06,24.06,0,0,0-5.88.77c-1.08.27-2.1.58-3.08.92L180.2,181l-5.5,3.17,3.08,1.78-1.66.92-2,1.17-3.05-1.76-5.5,3.17,3.05,1.76-3.8,2.19-1.49.86-.4.24-2.45,1.41-3.86-2.23v4.46l5.5,3.18,6.31-3.65,39.67,22.91L205.64,222l-3.86-2.23v4.46h0l3.36,1.94,2.14,1.24h0l6.31-3.65,1.89-1.09,3.8-2.19,3.1,1.79,5.5-3.18v-3.58l.54-.31,3.11,1.79,5.5-3.18v-4.46Zm-37.94-12.33-2.14,1.24-12.75-7.36,1.78-1q6.57-3.78,12.56-.33,3.51,2,3.83,3.71C200,195.89,198.91,197.14,196.51,198.53Zm22.8,12.92L217,212.81,201.76,204l2.2-1.27a12.85,12.85,0,0,1,7-2,17.31,17.31,0,0,1,7.55,2.63c2.55,1.47,3.92,2.83,4.13,4.08S221.73,210.05,219.31,211.45Z"/><path class="b3760aa7-5209-4f55-8a17-a807d7fed290" d="M218.57,189.24A20.74,20.74,0,0,0,208.24,191q6-5-2.75-10.17l-.43-.24a24.87,24.87,0,0,0-6-2.6,23,23,0,0,0-6.14-.92,24.06,24.06,0,0,0-5.88.77c-1.08.27-2.1.58-3.08.92l-3.74-2.16-5.5,3.17,3.08,1.78-1.66.92-2,1.17-3.05-1.76-5.5,3.17,3.05,1.76-3.8,2.19-1.49.86-.4.24-6.31,3.64,5.5,3.18,6.31-3.65,39.67,22.91-6.31,3.64,5.5,3.18,6.31-3.65,1.89-1.09,3.8-2.19,3.1,1.79,5.5-3.18-2-1.13-1.13-.66,3.64-2.1,3.11,1.79,5.5-3.18-2-1.13-1.58-.91c2.17-1.9,3.33-3.8,3.46-5.72q.24-4.31-7.15-8.61l-.34-.2A26.62,26.62,0,0,0,218.57,189.24ZM181.62,188l1.78-1q6.57-3.8,12.56-.34,3.51,2,3.83,3.71c.22,1.13-.88,2.38-3.28,3.77l-2.14,1.24ZM217,208.35l-15.19-8.77,2.2-1.27a12.85,12.85,0,0,1,7-2,17.31,17.31,0,0,1,7.55,2.63c2.55,1.47,3.92,2.83,4.13,4.08s-.91,2.57-3.33,4Z"/><path class="bc4b13ed-fbe8-4162-846b-552299f99433" d="M299.74,182.43l-.23,3.14c-.06.56-.09,1.12-.19,1.68s-.16.84-.26,1.27a26.3,26.3,0,0,1-.81,2.81c-.12.36-.22.72-.36,1.08a30.51,30.51,0,0,1-1.66,3.6v0a4.78,4.78,0,0,1-.23.45c-.11.21-.25.42-.38.63-.39.64-.79,1.27-1.23,1.91-.2.29-.42.58-.64.88-.39.51-.79,1-1.21,1.54s-.68.81-1,1.21-.84.92-1.28,1.38-.77.78-1.18,1.17-.76.7-1.15,1a55.67,55.67,0,0,1-6.14,4.71c-.69.46-1.35.93-2.07,1.38-.53.35-1.07.69-1.64,1a78.44,78.44,0,0,1-7.21,3.65l-1.26.56c-1.8.78-3.69,1.45-5.58,2.12-1.59.56-3.19,1.11-4.84,1.6-1.41.42-2.8.85-4.25,1.21l-.41.11c-.77.19-1.57.33-2.35.5-1.76.4-3.52.78-5.32,1.09-2.95.52-5.93.95-8.94,1.25l-.2,0c-2.22.21-4.46.34-6.7.44-1.39.06-2.77.09-4.15.11s-2.58,0-3.87,0l-2.67-.08c-1.43-.05-2.87-.13-4.3-.23-.9-.06-1.79-.13-2.69-.21-1.56-.14-3.11-.32-4.65-.52-.9-.12-1.8-.24-2.7-.38-1.52-.23-3-.5-4.53-.79-.79-.15-1.57-.29-2.35-.45-2.4-.51-4.77-1.08-7.08-1.74l-.31-.09q-2.09-.62-4.14-1.29c-1.41-.48-2.8-1-4.17-1.52-.74-.29-1.47-.6-2.19-.9-1-.43-2.05-.86-3-1.32-.78-.37-1.54-.75-2.3-1.14-1-.49-2-1-2.89-1.51h0c-.29-.17-.64-.31-.93-.49l-.88-.51-.07,0c-1.12-.68-2.2-1.37-3.22-2.07h0c-1.19-.81-2.27-1.64-3.34-2.49-.71-.56-1.4-1.13-2.05-1.71l-.56-.51c-.73-.66-1.44-1.32-2.1-2v.06c-1-1-1.95-2.06-2.8-3.11l-.36-.47a32.14,32.14,0,0,1-5.47-10.13c-.12-.36-.21-.72-.31-1.07a26.25,26.25,0,0,1-.95-6.89L149.85,197a25.72,25.72,0,0,0,.63,5.36v.32c.08.4.22.79.33,1.19s.19.71.3,1.07c.07.2.11.41.18.62v-.16a31.53,31.53,0,0,0,4,7.87v.11c.4.57.84,1.13,1.28,1.69l.35.47c.68.83,1.39,1.65,2.16,2.47v-.07c.85.9,1.78,1.78,2.75,2.65l.55.5c.67.58,1.34,1.16,2.06,1.72a57,57,0,0,0,6.57,4.56l.07,0,.88.51c.65.38,1.35.71,2,1.07v.06c.57.31,1.19.58,1.78.88q1.14.59,2.31,1.14c1,.46,2,.89,3,1.32.55.23,1.08.49,1.64.71l.55.19c.33.13.64.28,1,.4v-.07h0c.64.24,1.29.46,1.93.69v.08c.54.19,1.1.34,1.65.52,1.31.45,2.64.88,4,1.27H192c2.32.66,4.68,1.23,7.08,1.74l.66.16c.56.12,1.13.19,1.69.29,1.5.29,3,.56,4.53.79.41.06.81.16,1.22.21s1,.11,1.48.17,1.27.19,1.91.27v-.06l1.23.14V240c.5,0,1,.07,1.5.12s.78.1,1.17.13,1,0,1.53.08c1.43.1,2.87.18,4.3.23.52,0,1,.07,1.55.08s.75,0,1.12,0,1,0,1.51,0c.78,0,1.56,0,2.35-.06s1.8,0,2.7,0c.49,0,1-.08,1.46-.1s1,0,1.55,0c1.72-.1,3.44-.24,5.15-.41h.25q4.5-.47,8.89-1.25c.19,0,.4,0,.59-.08,1.6-.29,3.16-.66,4.72-1,.66-.15,1.34-.25,2-.41l.37-.09.41-.11c.8-.2,1.6-.4,2.39-.62v-.06l.45-.13v.07c.48-.14.93-.33,1.41-.47.82-.24,1.66-.44,2.46-.7s1.57-.62,2.38-.9,1.71-.53,2.52-.84v-.12c.6-.23,1.21-.44,1.8-.68v.08c.43-.17.84-.38,1.26-.56l1.25-.56c2.24-1,4.43-2.06,6.5-3.24v0c.23-.13.49-.24.72-.37l.92-.54c1-.6,1.86-1.24,2.79-1.86.58-.4,1.24-.76,1.79-1.17.11-.07.19-.15.29-.22.29-.21.54-.43.82-.64.74-.57,1.5-1.13,2.19-1.72.37-.31.7-.64,1.05-1,.17-.15.38-.3.55-.45s.39-.4.6-.6l1.18-1.17c.44-.46.87-.91,1.28-1.38s.7-.8,1-1.21c.17-.21.38-.42.55-.64s.44-.61.66-.91l.64-.87q.66-1,1.23-1.92c.11-.17.23-.34.33-.51a1.17,1.17,0,0,0,0-.11s.07-.1.1-.16.17-.38.28-.58c.5-.94.93-1.89,1.33-2.84,0,0,0-.08.05-.12s.08-.15.11-.23.17-.33.23-.49.14-.55.24-.82c.15-.45.35-.9.48-1.35v0c.12-.44.18-.87.28-1.3.05-.24.15-.48.2-.72s0-.34.06-.51a26.47,26.47,0,0,0,.38-3.3c0-.16.05-.33.05-.5a1.55,1.55,0,0,0,0-.22v-.44S299.89,183.56,299.74,182.43Z"/><path class="b2fae350-60ae-402b-a8b3-bfda13068224" d="M289.23,219.54l.95-.95,1.09-1.17V202.91c-.34.38-.69.76-1,1.13l-1,1Z"/><path class="b2fae350-60ae-402b-a8b3-bfda13068224" d="M256.22,236.71c.34-.09.69-.17,1-.27v-.06l.45-.13v.07l.56-.19V221.56l-2,.59Z"/><path class="b2fae350-60ae-402b-a8b3-bfda13068224" d="M267.22,233c.36-.13.71-.26,1-.4v.08c.34-.14.66-.29,1-.44V217.71q-1,.42-2,.81Z"/><path class="b2fae350-60ae-402b-a8b3-bfda13068224" d="M234.22,240.31l2-.16V225.59c-.68,0-1.36.12-2,.16Z"/><path class="b2fae350-60ae-402b-a8b3-bfda13068224" d="M157.2,215.84c.6.73,1.23,1.45,1.9,2.17v-.07a.93.93,0,0,1,.14.14V203.53c-.72-.76-1.4-1.52-2-2.29Z"/><path class="b2fae350-60ae-402b-a8b3-bfda13068224" d="M168.2,225.56c.66.45,1.35.89,2.05,1.33V212.32c-.7-.44-1.39-.88-2.05-1.33Z"/><path class="b2fae350-60ae-402b-a8b3-bfda13068224" d="M201.21,238.37l.17,0,1.87.35V224.18l-1.83-.34-.21,0Z"/><path class="b2fae350-60ae-402b-a8b3-bfda13068224" d="M278.22,227.79l.7-.41c.47-.28.91-.58,1.35-.87V212l-.59.39c-.48.31-.95.61-1.46.91Z"/><path class="b2fae350-60ae-402b-a8b3-bfda13068224" d="M212.21,240l1,.08,1,.11V225.6l-.95-.07-1.09-.11Z"/><path class="b2fae350-60ae-402b-a8b3-bfda13068224" d="M179.21,231.57l1.93.83.11,0V217.88l-.07,0-2-.85Z"/><path class="b2fae350-60ae-402b-a8b3-bfda13068224" d="M190.21,235.68c.55.17,1.11.35,1.67.51H192l.3.08V221.72l-.26-.07-.31-.09-1.47-.45Z"/><path class="b2fae350-60ae-402b-a8b3-bfda13068224" d="M245.22,239c.52-.09,1-.17,1.56-.27l.48-.06V224.13l-.44.08c-.53.1-1.07.18-1.6.27Z"/><path class="b2fae350-60ae-402b-a8b3-bfda13068224" d="M223.21,240.61c.41,0,.81,0,1.22,0l.83,0V226.05h-2Z"/><path class="b457cff5-076b-45b4-8b46-646cee9728ba" d="M271.86,216.92l.1,0Z"/><path class="b457cff5-076b-45b4-8b46-646cee9728ba" d="M265.47,219.58c2.19-.82,4.33-1.7,6.39-2.66C269.79,217.88,267.66,218.76,265.47,219.58Z"/><polygon class="bfd6cd38-d447-4dfe-8660-487ccf2d1da2" points="265.47 219.58 265.45 219.58 265.46 219.58 265.47 219.58"/><path class="b457cff5-076b-45b4-8b46-646cee9728ba" d="M272,216.88c2.1-1,4.13-2,6.08-3.15Q275.11,215.43,272,216.88Z"/><path class="b9f0b412-50b7-4784-a620-9ebe4f06d724" d="M281.58,211.45c6.76-4.52,11.65-9.66,14.63-15.08h0a26.65,26.65,0,0,0,3.3-16.49h0A29,29,0,0,0,294.45,167h0a45.4,45.4,0,0,0-9.28-9.61h0a62.93,62.93,0,0,0-7.47-5.1c-29.39-17-76.88-17-106.06,0a60.18,60.18,0,0,0-9.8,7h.06a39.82,39.82,0,0,0-9.3,12,26.76,26.76,0,0,0-2.19,16.57h0c1.5,7.44,6.28,14.7,14.39,21a61.31,61.31,0,0,0,6.21,4.25l.07,0,.88.52c25.45,14.69,64.5,16.63,93.48,5.84m0,0A82.3,82.3,0,0,0,278,213.73c1.24-.73,2.37-1.51,3.55-2.28"/><path class="bc4b13ed-fbe8-4162-846b-552299f99433" d="M296,179.67a28.53,28.53,0,0,0-5.53-12.87,44.75,44.75,0,0,0-10-9.65c-1.62-1.16-3.37-2.29-5.24-3.37-26.42-15.25-68.35-16.08-96.29-2.5q-2.43,1.17-4.69,2.49a57.73,57.73,0,0,0-8.32,5.81,37.54,37.54,0,0,0-9.7,12,25,25,0,0,0-2.13,16.57c1.26,5.76,4.61,11.4,10,16.5a56.1,56.1,0,0,0,10.44,7.63c1.39.81,2.83,1.57,4.3,2.29,22.93,11.26,55.27,12.82,80.72,4.68a80.84,80.84,0,0,0,16-7c.61-.35,1.19-.7,1.77-1.06,7.13-4.45,12.24-9.59,15.34-15A25.5,25.5,0,0,0,296,179.67ZM289,196c-3.22,5.42-8.55,10.52-16,14.85a1.71,1.71,0,0,1-.23.13,80.1,80.1,0,0,1-19.85,7.92c-21.68,5.64-47.51,4.34-67.38-3.9a72,72,0,0,1-8.45-4.15,55.1,55.1,0,0,1-8.41-5.89c-5.89-5.06-9.53-10.74-10.93-16.56a23.73,23.73,0,0,1,2.1-16.57,36.75,36.75,0,0,1,10.17-12,58,58,0,0,1,6.75-4.58,71.77,71.77,0,0,1,7.28-3.67c26.48-11.53,64.43-10.31,88.64,3.67q1.36.8,2.64,1.62a45.69,45.69,0,0,1,11.05,9.7,27.73,27.73,0,0,1,6,12.9A24.28,24.28,0,0,1,289,196Z"/><polygon class="bc4b13ed-fbe8-4162-846b-552299f99433" points="191.25 164.38 191.25 167.9 194.3 166.14 191.25 164.38"/><polygon class="bc4b13ed-fbe8-4162-846b-552299f99433" points="200.39 159.1 200.39 162.62 203.47 160.88 200.39 159.1"/><path class="bc4b13ed-fbe8-4162-846b-552299f99433" d="M260.14,190.22a7.78,7.78,0,0,0,2.49-4.79,4.28,4.28,0,0,0,0-.62v-4.5l-1.54,1a19.89,19.89,0,0,0-5.6-4.45l-.34-.2a26.58,26.58,0,0,0-10.88-3.56,20.74,20.74,0,0,0-10.33,1.73c1.78-1.48,2.58-3,2.41-4.46h0v-4.19l-1.48,1.34a16,16,0,0,0-3.71-2.87l-.43-.24a24.87,24.87,0,0,0-6-2.6,23,23,0,0,0-6.14-.92,24.06,24.06,0,0,0-5.88.77c-1.08.27-2.1.58-3.08.92l-3.74-2.16-5.5,3.17,3.08,1.78-1.66.92-2,1.17-3.05-1.76-5.5,3.17,3.05,1.76-3.8,2.2-1.49.85-.4.24-2.45,1.41-3.86-2.23v4.46l5.5,3.18,6.31-3.65L233.78,200l-2.45,1.41-3.86-2.23v4.46h0l3.36,1.94,2.14,1.24h0l6.31-3.65,1.89-1.09,3.8-2.19,3.1,1.79,5.5-3.18v-3.58l.54-.31,3.11,1.79,5.5-3.18v-4.46ZM222.2,177.89l-2.14,1.24-12.75-7.36,1.78-1q6.57-3.8,12.56-.34,3.51,2,3.83,3.71C225.7,175.25,224.6,176.5,222.2,177.89ZM245,190.81l-2.36,1.36-15.19-8.77,2.2-1.27a12.85,12.85,0,0,1,7-2,17.44,17.44,0,0,1,7.55,2.63c2.55,1.47,3.92,2.83,4.13,4.08S247.42,189.41,245,190.81Z"/><path class="ae711708-35c6-4846-b1a7-f33e38da86d9" d="M244.26,168.6a20.74,20.74,0,0,0-10.33,1.73q6-5-2.75-10.17l-.43-.24a24.87,24.87,0,0,0-6-2.6,23,23,0,0,0-6.14-.92,24.06,24.06,0,0,0-5.88.77c-1.08.27-2.1.58-3.08.92l-3.74-2.16-5.5,3.17,3.08,1.78-1.66.92-2,1.17-3.05-1.76-5.5,3.17,3.05,1.76-3.8,2.2-1.49.85-.4.24-6.31,3.64,5.5,3.18,6.31-3.65,39.67,22.91-6.31,3.64,5.5,3.18,6.31-3.65,1.89-1.09,3.8-2.19,3.1,1.79,5.5-3.18-2-1.13-1.13-.66,3.64-2.1,3.11,1.79,5.5-3.18-2-1.13-1.58-.91c2.17-1.9,3.33-3.8,3.46-5.72q.24-4.31-7.15-8.61l-.34-.2A26.58,26.58,0,0,0,244.26,168.6Zm-36.95-1.29,1.78-1q6.57-3.79,12.56-.34,3.51,2,3.83,3.71c.22,1.13-.88,2.38-3.28,3.77l-2.14,1.24Zm35.33,20.4-15.19-8.77,2.2-1.27a12.85,12.85,0,0,1,7-2,17.44,17.44,0,0,1,7.55,2.63c2.55,1.47,3.92,2.83,4.13,4.08s-.91,2.57-3.33,4Z"/><path class="bc4b13ed-fbe8-4162-846b-552299f99433" d="M299.74,159.87l-.23,3.14c-.06.56-.09,1.12-.19,1.68s-.16.84-.26,1.27a26.3,26.3,0,0,1-.81,2.81c-.12.36-.22.72-.36,1.08a30.51,30.51,0,0,1-1.66,3.6v0c-.07.15-.14.3-.23.46s-.25.41-.38.62c-.39.64-.79,1.28-1.23,1.91-.2.29-.42.58-.64.88-.39.52-.79,1-1.21,1.54s-.68.81-1,1.21-.84.93-1.28,1.38-.77.78-1.18,1.17-.76.7-1.15,1a55.67,55.67,0,0,1-6.14,4.71c-.69.46-1.35.93-2.07,1.38-.53.35-1.07.69-1.64,1a78.44,78.44,0,0,1-7.21,3.65l-1.26.56c-1.8.78-3.69,1.45-5.58,2.12-1.59.56-3.19,1.11-4.84,1.6-1.41.42-2.8.85-4.25,1.21l-.41.11c-.77.19-1.57.33-2.35.5-1.76.4-3.52.78-5.32,1.09-2.95.52-5.93.95-8.94,1.25l-.2,0c-2.22.21-4.46.34-6.7.44-1.39.07-2.77.09-4.15.11s-2.58,0-3.87,0c-.89,0-1.78-.05-2.67-.08-1.43,0-2.87-.13-4.3-.23-.9-.06-1.79-.13-2.69-.21-1.56-.14-3.11-.32-4.65-.52-.9-.12-1.8-.24-2.7-.38-1.52-.23-3-.5-4.53-.78-.79-.15-1.57-.29-2.35-.46-2.4-.51-4.77-1.08-7.08-1.74l-.31-.09c-1.39-.4-2.77-.84-4.14-1.29s-2.8-1-4.17-1.52c-.74-.29-1.47-.6-2.19-.9-1-.43-2.05-.86-3-1.32-.78-.37-1.54-.75-2.3-1.14-1-.49-2-1-2.89-1.51h0c-.29-.17-.64-.31-.93-.48l-.88-.52-.07,0c-1.12-.68-2.2-1.37-3.22-2.07h0c-1.19-.81-2.27-1.64-3.34-2.49-.71-.56-1.4-1.13-2.05-1.71l-.56-.51c-.73-.66-1.44-1.32-2.1-2v.06c-1-1-1.95-2.06-2.8-3.11l-.36-.47a32.14,32.14,0,0,1-5.47-10.13c-.12-.36-.21-.72-.31-1.07a26.25,26.25,0,0,1-.95-6.89l-.05,14.57a25.72,25.72,0,0,0,.63,5.36v.32c.08.4.22.79.33,1.19s.19.71.3,1.07c.07.2.11.41.18.62v-.16a31.53,31.53,0,0,0,4,7.87v.11c.4.57.84,1.13,1.28,1.69l.35.47c.68.83,1.39,1.65,2.16,2.47v-.07c.85.9,1.78,1.78,2.75,2.65l.55.51c.67.58,1.34,1.15,2.06,1.71a58.33,58.33,0,0,0,6.57,4.57l.07,0,.88.51c.65.38,1.35.71,2,1.07v.07c.57.3,1.19.57,1.78.87q1.14.59,2.31,1.14c1,.46,2,.89,3,1.32.55.23,1.08.49,1.64.71l.55.19c.33.13.64.28,1,.4v-.07h0c.64.24,1.29.46,1.93.69v.08c.54.19,1.1.34,1.65.52,1.31.45,2.64.88,4,1.27l.07,0c2.32.65,4.68,1.22,7.08,1.73.22.05.44.12.66.16.56.12,1.13.19,1.69.3,1.5.28,3,.55,4.53.78.41.07.81.16,1.22.22l1.48.16c.64.08,1.27.2,1.91.27v-.06l1.23.14v.05c.5,0,1,.07,1.5.12s.78.1,1.17.13,1,0,1.53.08c1.43.1,2.87.18,4.3.23.52,0,1,.07,1.55.09s.75,0,1.12,0,1,0,1.51,0c.78,0,1.56-.05,2.35-.06s1.8,0,2.7,0c.49,0,1-.08,1.46-.1s1,0,1.55,0c1.72-.1,3.44-.24,5.15-.4h.25c3-.3,6-.73,8.89-1.24.19,0,.4-.05.59-.09,1.6-.29,3.16-.66,4.72-1,.66-.14,1.34-.25,2-.41l.37-.09.41-.11c.8-.2,1.6-.4,2.39-.62v-.06l.45-.13v.07c.48-.14.93-.33,1.41-.47.82-.24,1.66-.44,2.46-.7s1.57-.62,2.38-.9,1.71-.53,2.52-.84v-.12c.6-.23,1.21-.44,1.8-.68v.08c.43-.17.84-.38,1.26-.56l1.25-.56c2.24-1,4.43-2.06,6.5-3.23v-.05c.23-.13.49-.23.72-.37l.92-.54c1-.6,1.86-1.24,2.79-1.86.58-.4,1.24-.76,1.79-1.17.11-.07.19-.15.29-.22.29-.21.54-.43.82-.64.74-.57,1.5-1.13,2.19-1.71.37-.32.7-.65,1.05-1,.17-.15.38-.3.55-.45s.39-.4.6-.6c.4-.38.79-.78,1.18-1.17s.87-.91,1.28-1.38.7-.8,1-1.2c.17-.22.38-.43.55-.65s.44-.6.66-.91l.64-.87q.66-1,1.23-1.92c.11-.17.23-.34.33-.51a1.17,1.17,0,0,0,0-.11s.07-.1.1-.16.17-.38.28-.57c.5-.95.93-1.9,1.33-2.85,0,0,0-.08.05-.12s.08-.15.11-.23.17-.33.23-.49.14-.55.24-.82c.15-.45.35-.9.48-1.35v0c.12-.43.18-.87.28-1.3.05-.24.15-.48.2-.72s0-.34.06-.51a26.47,26.47,0,0,0,.38-3.3c0-.16.05-.33.05-.5a1.48,1.48,0,0,0,0-.21v-.44S299.89,161,299.74,159.87Z"/><path class="ba4fdd2a-9ec1-475d-9501-3e67bb68e4d8" d="M289.23,197l.95-.95,1.09-1.17V180.35c-.34.38-.69.76-1,1.13l-1,1Z"/><path class="ba4fdd2a-9ec1-475d-9501-3e67bb68e4d8" d="M256.22,214.15c.34-.09.69-.17,1-.27v-.06l.45-.13v.07l.56-.19V199c-.67.21-1.36.4-2,.59Z"/><path class="ba4fdd2a-9ec1-475d-9501-3e67bb68e4d8" d="M267.22,210.45c.36-.13.71-.26,1-.4v.08c.34-.14.66-.29,1-.44V195.15q-1,.42-2,.81Z"/><path class="ba4fdd2a-9ec1-475d-9501-3e67bb68e4d8" d="M234.22,217.75l2-.16V203c-.68.06-1.36.12-2,.16Z"/><path class="ba4fdd2a-9ec1-475d-9501-3e67bb68e4d8" d="M157.2,193.28c.6.73,1.23,1.46,1.9,2.17v-.07l.14.14V181c-.72-.76-1.4-1.52-2-2.29Z"/><path class="ba4fdd2a-9ec1-475d-9501-3e67bb68e4d8" d="M168.2,203c.66.44,1.35.88,2.05,1.32V189.76c-.7-.44-1.39-.88-2.05-1.32Z"/><path class="ba4fdd2a-9ec1-475d-9501-3e67bb68e4d8" d="M201.21,215.81l.17,0,1.87.34V201.62l-1.83-.33-.21,0Z"/><path class="ba4fdd2a-9ec1-475d-9501-3e67bb68e4d8" d="M278.22,205.23l.7-.41c.47-.28.91-.58,1.35-.87V189.41l-.59.38c-.48.31-.95.61-1.46.91Z"/><path class="ba4fdd2a-9ec1-475d-9501-3e67bb68e4d8" d="M212.21,217.44l1,.08,1,.11V203.05l-.95-.08-1.09-.11Z"/><path class="ba4fdd2a-9ec1-475d-9501-3e67bb68e4d8" d="M179.21,209l1.93.83.11,0V195.32l-.07,0-2-.85Z"/><path class="ba4fdd2a-9ec1-475d-9501-3e67bb68e4d8" d="M190.21,213.12c.55.17,1.11.35,1.67.51l.07,0,.3.07V199.16l-.26-.07-.31-.09-1.47-.45Z"/><path class="ba4fdd2a-9ec1-475d-9501-3e67bb68e4d8" d="M245.22,216.47l1.56-.26.48-.07V201.57l-.44.08c-.53.1-1.07.18-1.6.27Z"/><path class="ba4fdd2a-9ec1-475d-9501-3e67bb68e4d8" d="M223.21,218.05c.41,0,.81,0,1.22,0h.83V203.49h-2Z"/><path class="a8e19793-5324-4e82-bdc0-a2fbb25fcf3d" d="M271.86,194.36l.1,0Z"/><path class="a8e19793-5324-4e82-bdc0-a2fbb25fcf3d" d="M265.47,197c2.19-.82,4.33-1.7,6.39-2.66C269.79,195.32,267.66,196.2,265.47,197Z"/><polygon class="b7fc5f91-eef8-4537-9529-93d054222d21" points="265.47 197.02 265.45 197.03 265.46 197.03 265.47 197.02"/><path class="a8e19793-5324-4e82-bdc0-a2fbb25fcf3d" d="M272,194.32c2.1-1,4.13-2,6.08-3.15Q275.11,192.87,272,194.32Z"/><path class="e646ff74-b560-4a81-acb7-9f25be2945e9" d="M281.58,188.89c6.76-4.52,11.65-9.66,14.63-15.08h0a26.65,26.65,0,0,0,3.3-16.49h0a29,29,0,0,0-5.05-12.84h0a45.4,45.4,0,0,0-9.28-9.61h0a62.93,62.93,0,0,0-7.47-5.1c-29.39-17-76.88-17-106.06,0a59,59,0,0,0-9.8,7h.06a39.82,39.82,0,0,0-9.3,12,26.76,26.76,0,0,0-2.19,16.57h0c1.5,7.44,6.28,14.7,14.39,21a61.31,61.31,0,0,0,6.21,4.25l.07,0,.88.51c25.45,14.69,64.5,16.63,93.48,5.84m0,0A82.3,82.3,0,0,0,278,191.17c1.24-.72,2.37-1.51,3.55-2.28"/><path class="bc4b13ed-fbe8-4162-846b-552299f99433" d="M296,157.11a28.53,28.53,0,0,0-5.53-12.87,44.75,44.75,0,0,0-10-9.65c-1.62-1.16-3.37-2.29-5.24-3.37-26.42-15.25-68.35-16.08-96.29-2.5q-2.43,1.17-4.69,2.49a57.73,57.73,0,0,0-8.32,5.81,37.54,37.54,0,0,0-9.7,12,25,25,0,0,0-2.13,16.57c1.26,5.76,4.61,11.4,10,16.5a56.58,56.58,0,0,0,10.44,7.64c1.39.8,2.83,1.56,4.3,2.28,22.93,11.26,55.27,12.82,80.72,4.68a80.84,80.84,0,0,0,16-7c.61-.35,1.19-.7,1.77-1.06,7.13-4.45,12.24-9.59,15.34-15A25.5,25.5,0,0,0,296,157.11Zm-7,16.28c-3.22,5.42-8.55,10.52-16,14.85a1.71,1.71,0,0,1-.23.13,80.1,80.1,0,0,1-19.85,7.92c-21.68,5.64-47.51,4.34-67.38-3.9a72,72,0,0,1-8.45-4.15,55.1,55.1,0,0,1-8.41-5.89c-5.89-5.06-9.53-10.74-10.93-16.56a23.73,23.73,0,0,1,2.1-16.57,36.75,36.75,0,0,1,10.17-12,58,58,0,0,1,6.75-4.58A69.71,69.71,0,0,1,184,129c26.48-11.54,64.43-10.31,88.64,3.66q1.36.8,2.64,1.62a45.69,45.69,0,0,1,11.05,9.7,27.73,27.73,0,0,1,6,12.9A24.26,24.26,0,0,1,289,173.39Z"/><polygon class="bc4b13ed-fbe8-4162-846b-552299f99433" points="191.25 141.82 191.25 145.34 194.3 143.59 191.25 141.82"/><polygon class="bc4b13ed-fbe8-4162-846b-552299f99433" points="200.39 136.54 200.39 140.06 203.47 138.32 200.39 136.54"/><path class="bc4b13ed-fbe8-4162-846b-552299f99433" d="M260.14,167.66a7.78,7.78,0,0,0,2.49-4.79,4.28,4.28,0,0,0,0-.62v-4.5l-1.54,1a19.89,19.89,0,0,0-5.6-4.45l-.34-.2a26.58,26.58,0,0,0-10.88-3.56,20.74,20.74,0,0,0-10.33,1.73c1.78-1.48,2.58-3,2.41-4.46h0v-4.19l-1.48,1.34a16,16,0,0,0-3.71-2.87l-.43-.24a24.87,24.87,0,0,0-6-2.6,23,23,0,0,0-6.14-.91,24,24,0,0,0-5.88.76c-1.08.27-2.1.58-3.08.92l-3.74-2.16-5.5,3.17,3.08,1.78-1.66.92-2,1.17-3.05-1.76-5.5,3.17L194.3,148l-3.8,2.2-1.49.86-.4.23-2.45,1.41-3.86-2.23V155l5.5,3.18,6.31-3.65,39.67,22.91-2.45,1.41-3.86-2.23v4.46h0l3.36,1.94,2.14,1.24h0l6.31-3.65,1.89-1.09,3.8-2.19,3.1,1.79,5.5-3.17v-3.59l.54-.31,3.11,1.79,5.5-3.18v-4.46ZM222.2,155.33l-2.14,1.24-12.75-7.36,1.78-1q6.57-3.8,12.56-.34,3.51,2,3.83,3.72C225.7,152.69,224.6,153.94,222.2,155.33ZM245,168.25l-2.36,1.36-15.19-8.77,2.2-1.27a12.85,12.85,0,0,1,7-2,17.44,17.44,0,0,1,7.55,2.63c2.55,1.47,3.92,2.83,4.13,4.08S247.42,166.85,245,168.25Z"/><path class="be0436ba-be58-4ebe-b9d3-b6b459c16dba" d="M244.26,146a20.74,20.74,0,0,0-10.33,1.73q6-5-2.75-10.17l-.43-.24a24.87,24.87,0,0,0-6-2.6,23,23,0,0,0-6.14-.91,24,24,0,0,0-5.88.76c-1.08.27-2.1.58-3.08.92l-3.74-2.16-5.5,3.17,3.08,1.78-1.66.92-2,1.17-3.05-1.76-5.5,3.17,3.05,1.76-3.8,2.2-1.49.86-.4.23-6.31,3.64,5.5,3.18,6.31-3.65L233.78,173l-6.31,3.64,5.5,3.18,6.31-3.65,1.89-1.09,3.8-2.19,3.1,1.79,5.5-3.17-2-1.14-1.13-.66,3.64-2.1,3.11,1.79,5.5-3.18-2-1.13-1.58-.91c2.17-1.89,3.33-3.8,3.46-5.72q.24-4.31-7.15-8.61l-.34-.2A26.58,26.58,0,0,0,244.26,146Zm-36.95-1.29,1.78-1q6.57-3.79,12.56-.34,3.51,2,3.83,3.72c.22,1.12-.88,2.37-3.28,3.76l-2.14,1.24Zm35.33,20.4-15.19-8.77,2.2-1.27a12.85,12.85,0,0,1,7-2,17.44,17.44,0,0,1,7.55,2.63c2.55,1.47,3.92,2.83,4.13,4.08s-.91,2.57-3.33,4Z"/><path class="bc4b13ed-fbe8-4162-846b-552299f99433" d="M153.66,135.06l2.63,1.72c.46.32.94.62,1.38,1s.66.55,1,.84a27,27,0,0,1,2.07,2.07c.25.28.52.54.77.84a30.9,30.9,0,0,1,2.35,3.19h0c.1.14.2.28.29.43s.24.42.36.63c.37.65.74,1.31,1.08,2,.16.32.31.66.46,1,.27.59.52,1.19.77,1.81s.38,1,.55,1.49.4,1.18.59,1.79.31,1,.45,1.6.25,1,.37,1.51a56.51,56.51,0,0,1,1.15,7.66c.07.82.16,1.62.21,2.48,0,.63.09,1.26.1,1.92a78.73,78.73,0,0,1-.29,8.08l-.12,1.37c-.19,1.95-.52,3.93-.85,5.91-.27,1.66-.57,3.33-.93,5-.32,1.43-.62,2.86-1,4.3,0,.14-.07.28-.1.42-.21.77-.48,1.53-.7,2.3-.5,1.73-1,3.46-1.61,5.18-1,2.83-2,5.65-3.24,8.43a1.42,1.42,0,0,1-.08.18c-.88,2.05-1.85,4.07-2.85,6.09-.61,1.24-1.26,2.46-1.91,3.68s-1.21,2.28-1.85,3.39c-.45.78-.9,1.54-1.36,2.3q-1.11,1.84-2.28,3.66c-.49.75-1,1.51-1.49,2.25-.88,1.29-1.78,2.57-2.7,3.82-.54.73-1.09,1.46-1.64,2.18-.94,1.22-1.9,2.41-2.88,3.59-.51.61-1,1.23-1.53,1.83-1.61,1.85-3.25,3.65-4.94,5.36l-.24.22q-1.54,1.55-3.13,3t-3.35,2.92c-.61.51-1.23,1-1.84,1.48-.87.69-1.74,1.38-2.63,2-.7.51-1.4,1-2.11,1.47-.9.62-1.8,1.23-2.72,1.79h0c-.29.18-.59.41-.88.58l-.88.52-.07.05c-1.13.65-2.25,1.26-3.36,1.81h0c-1.28.65-2.53,1.19-3.79,1.72-.83.35-1.67.67-2.49,1l-.71.24c-.93.32-1.86.62-2.77.87l0,0c-1.38.39-2.74.71-4.08.95l-.58.08a32.35,32.35,0,0,1-11.51-.1l-1.09-.26a25.58,25.58,0,0,1-6.49-2.49l12.73,7.08a25.41,25.41,0,0,0,5,2.05l.28.15c.39.12.81.19,1.21.29l1.08.25c.21,0,.41.11.63.15l-.14-.08a31.19,31.19,0,0,0,8.84.28l.09.06c.69-.08,1.4-.19,2.1-.31l.58-.08c1.05-.19,2.12-.41,3.2-.69l-.06,0c1.2-.31,2.42-.69,3.65-1.12l.71-.24c.83-.3,1.66-.62,2.5-1a59.38,59.38,0,0,0,7.17-3.54l.07,0,.88-.52c.64-.39,1.27-.85,1.91-1.27l.06,0c.55-.35,1.08-.76,1.63-1.13.7-.49,1.41-1,2.11-1.48.88-.64,1.75-1.33,2.62-2,.47-.37,1-.7,1.42-1.09.15-.12.29-.26.43-.39s.55-.43.82-.66l-.06,0h0c.52-.44,1-.9,1.54-1.35l.07,0c.42-.38.83-.8,1.25-1.19,1-.93,2-1.88,3-2.89l.06-.05c1.69-1.71,3.33-3.51,4.93-5.36.15-.17.32-.33.47-.5.37-.43.71-.9,1.07-1.33,1-1.18,1.94-2.37,2.88-3.59.25-.33.52-.63.77-1s.57-.82.86-1.22.79-1,1.16-1.55l0,0c.24-.34.48-.67.71-1l0,0c.28-.41.54-.84.82-1.26s.46-.62.68-.95.54-.88.82-1.31c.78-1.2,1.53-2.42,2.28-3.65.26-.44.56-.87.82-1.31s.35-.66.53-1,.53-.86.77-1.3c.38-.69.71-1.4,1.08-2.09s.89-1.57,1.3-2.38c.22-.43.4-.88.62-1.31s.49-.91.71-1.38q1.13-2.34,2.14-4.71s0-.1.07-.14v0a.08.08,0,0,0,0-.05c1.19-2.77,2.25-5.57,3.21-8.38l.22-.55c.52-1.54.95-3.09,1.4-4.63.19-.65.42-1.29.6-1.94l.09-.36c0-.14.07-.28.11-.42.21-.79.42-1.59.61-2.39l0,0c0-.15.07-.3.1-.45l.06,0c.11-.49.17-1,.27-1.46.18-.83.42-1.67.58-2.49s.22-1.68.36-2.52.37-1.75.49-2.61l-.11-.06c.09-.64.2-1.28.27-1.91l.08,0c.05-.46.07-.91.12-1.37s.07-.91.11-1.37c.2-2.44.33-4.87.31-7.25l0,0c0-.27,0-.55,0-.81l0-1.06c-.05-1.16-.19-2.24-.28-3.35-.07-.7-.07-1.45-.16-2.13,0-.13,0-.24-.05-.37,0-.35-.12-.68-.17-1-.14-.93-.26-1.86-.44-2.74-.1-.48-.23-.92-.34-1.39-.05-.23-.07-.48-.13-.7s-.16-.54-.23-.81c-.14-.54-.3-1.08-.46-1.6s-.37-1.2-.58-1.79-.36-1-.56-1.49c-.1-.26-.19-.54-.29-.79s-.32-.68-.48-1l-.45-1c-.35-.7-.71-1.36-1.09-2-.1-.17-.18-.36-.28-.52a.86.86,0,0,0-.07-.1,1,1,0,0,0-.1-.17c-.11-.19-.25-.33-.37-.52-.58-.89-1.2-1.73-1.85-2.54l-.07-.1c-.06-.07-.1-.15-.15-.21s-.21-.31-.32-.44-.41-.39-.61-.6-.61-.74-.95-1.07l0,0c-.32-.31-.67-.57-1-.87-.18-.17-.34-.37-.53-.53s-.28-.19-.42-.3a25.41,25.41,0,0,0-2.7-1.92c-.14-.09-.27-.21-.41-.29l-.19-.11s0,0,0,0l-.33-.18,0,0S154.72,135.48,153.66,135.06Z"/><path class="ed7546cd-3cfa-4f29-b978-27d6e13bc9a0" d="M181.05,162.2c-.12-.43-.24-.87-.37-1.29s-.32-1-.49-1.52l-12.7-7c.16.49.33,1,.48,1.47s.26.89.38,1.34Z"/><path class="ed7546cd-3cfa-4f29-b978-27d6e13bc9a0" d="M180.13,199.39c.09-.34.18-.68.26-1l0,0c0-.15.07-.3.1-.45l.06,0c.05-.19.08-.39.11-.58l-12.75-7.05c-.15.69-.31,1.38-.48,2.08Z"/><path class="ed7546cd-3cfa-4f29-b978-27d6e13bc9a0" d="M182.21,188q.09-.56.15-1.11l.08,0c0-.36.06-.72.09-1.08l-12.73-7c-.08.72-.17,1.45-.27,2.18Z"/><path class="ed7546cd-3cfa-4f29-b978-27d6e13bc9a0" d="M172.64,220.4c.29-.62.57-1.25.85-1.87l-12.75-7c-.28.62-.55,1.25-.84,1.87Z"/><path class="ed7546cd-3cfa-4f29-b978-27d6e13bc9a0" d="M114,276c.93-.17,1.86-.37,2.81-.61l-.06,0,.2-.05-12.74-7c-1,.27-2,.5-3,.68Z"/><path class="ed7546cd-3cfa-4f29-b978-27d6e13bc9a0" d="M127.82,271.05c.71-.36,1.43-.74,2.15-1.15l-12.76-7c-.72.4-1.43.78-2.15,1.15Z"/><path class="ed7546cd-3cfa-4f29-b978-27d6e13bc9a0" d="M155,248.35l.11-.13c.4-.49.81-1,1.21-1.48l-12.75-7c-.39.49-.78,1-1.18,1.45,0,0-.09.1-.13.16Z"/><path class="ed7546cd-3cfa-4f29-b978-27d6e13bc9a0" d="M183,175.82c0-.27,0-.54,0-.8,0-.55-.07-1.08-.12-1.61l-12.73-7,.06.71c0,.56.07,1.12.09,1.71Z"/><path class="ed7546cd-3cfa-4f29-b978-27d6e13bc9a0" d="M161.73,239.51l.57-.88c.19-.27.4-.54.59-.82l-12.77-7.05c-.18.27-.35.54-.53.8l-.62.9Z"/><path class="ed7546cd-3cfa-4f29-b978-27d6e13bc9a0" d="M138.4,264.32q.82-.63,1.65-1.29l.1-.07-12.75-7-.06,0c-.56.45-1.13.89-1.7,1.32Z"/><path class="ed7546cd-3cfa-4f29-b978-27d6e13bc9a0" d="M147.31,256.68c.42-.4.84-.8,1.25-1.22l.06-.05.21-.23-12.75-7-.18.2-.24.22c-.36.37-.73.72-1.1,1.08Z"/><path class="ed7546cd-3cfa-4f29-b978-27d6e13bc9a0" d="M176.84,210.14c.17-.49.35-1,.52-1.49,0-.15.12-.3.18-.45l-12.76-7c0,.15-.09.29-.13.43l-.54,1.53Z"/><path class="ed7546cd-3cfa-4f29-b978-27d6e13bc9a0" d="M167.58,230.17c.21-.35.42-.69.62-1s.26-.49.39-.74l-12.76-7c-.33.59-.65,1.19-1,1.78Z"/><path class="b98ac87f-c688-4f94-8d22-f64e948f49b9" d="M170.37,176.13s0-.07,0-.1S170.37,176.1,170.37,176.13Z"/><path class="b98ac87f-c688-4f94-8d22-f64e948f49b9" d="M169.6,183q.53-3.47.77-6.89C170.2,178.41,170,180.71,169.6,183Z"/><path class="fa1eecad-e059-4814-99c1-72dd1d80b73d" d="M169.6,183h0Z"/><path class="b98ac87f-c688-4f94-8d22-f64e948f49b9" d="M170.38,176c.16-2.31.23-4.6.18-6.84C170.61,171.44,170.54,173.72,170.38,176Z"/><path class="ae36879c-3a39-42cd-9930-1572aa42a979" d="M170.28,165c-.69-8.11-2.82-14.87-6.13-20.11h0A26.61,26.61,0,0,0,151.32,134v0a28.87,28.87,0,0,0-13.68-1.79h0a45.75,45.75,0,0,0-12.9,3.48h0a63.83,63.83,0,0,0-8.09,4.07c-29,17.53-52,59.1-51.28,92.84a59.43,59.43,0,0,0,1.42,12l0-.05a39.81,39.81,0,0,0,6,13.95,26.76,26.76,0,0,0,13.44,9.92l0,0c7.24,2.29,15.9,1.61,25.33-2.45a60.5,60.5,0,0,0,6.73-3.38l.07,0,.87-.52c25.17-15.17,45.74-48.42,50.31-79m0,0a81.87,81.87,0,0,0,1-13.84c0-1.44-.17-2.82-.27-4.22"/><path class="bc4b13ed-fbe8-4162-846b-552299f99433" d="M149.42,137a28.48,28.48,0,0,0-13.94-1.38,44.68,44.68,0,0,0-13.29,4.11,60.15,60.15,0,0,0-5.48,2.95C90.58,158.45,69.58,194.76,68,225.78q-.15,2.68-.09,5.31a57.08,57.08,0,0,0,1.07,10.09,37.52,37.52,0,0,0,5.8,14.29,25.07,25.07,0,0,0,13.47,9.88c5.66,1.68,12.21,1.47,19.3-.81a56.06,56.06,0,0,0,11.73-5.45q2.07-1.24,4.08-2.66c20.94-14.63,37.94-42.18,43.12-68.4a80.67,80.67,0,0,0,1.62-17.34c0-.7-.05-1.39-.08-2.07-.45-8.38-2.48-15.35-5.75-20.7A25.49,25.49,0,0,0,149.42,137Zm10.87,14c3.19,5.44,5.08,12.57,5.26,21.18a2.44,2.44,0,0,1,0,.27,80.66,80.66,0,0,1-2.67,21.21c-5.54,21.7-19.17,43.69-36,57.09a73.16,73.16,0,0,1-7.72,5.4,56.56,56.56,0,0,1-9.22,4.51c-7.28,2.7-14,3.15-19.78,1.56a23.76,23.76,0,0,1-13.49-9.85,36.78,36.78,0,0,1-5.55-14.69,55.65,55.65,0,0,1-.74-8.12,70.11,70.11,0,0,1,.3-8.15c2.71-28.75,22.13-61.38,46.07-75.81.9-.55,1.8-1.06,2.69-1.54a45.84,45.84,0,0,1,13.84-5,27.71,27.71,0,0,1,14.19,1A24.32,24.32,0,0,1,160.29,151Z"/><polygon class="bc4b13ed-fbe8-4162-846b-552299f99433" points="85.41 221.3 88.49 223 88.42 219.48 85.41 221.3"/><polygon class="bc4b13ed-fbe8-4162-846b-552299f99433" points="85.2 210.74 88.29 212.44 88.25 208.91 85.2 210.74"/><path class="bc4b13ed-fbe8-4162-846b-552299f99433" d="M141.33,173.49a7.81,7.81,0,0,0-3-4.5,4.14,4.14,0,0,0-.55-.29l-3.93-2.18.09,1.82a19.83,19.83,0,0,0-6.61,2.75l-.33.2a26.68,26.68,0,0,0-8.38,7.8,20.8,20.8,0,0,0-3.48,9.88c-.43-2.27-1.35-3.69-2.74-4.27h0l-3.67-2,.46,1.94a16.35,16.35,0,0,0-4.3,1.86l-.42.25a25,25,0,0,0-5.18,4,23.36,23.36,0,0,0-3.78,4.93,24.24,24.24,0,0,0-2.17,5.52c-.28,1.08-.51,2.12-.68,3.14L89,206.55l.12,6.35,3-1.84c0,.62,0,1.25,0,1.9l0,2.33-3,1.82.12,6.35,3-1.82.09,4.38,0,1.72v.46l0,2.83-3.82,2.31,3.91,2.15L98,232.21l-.14-7.29,39.23-23.65,0,2.83-3.82,2.3,3.9,2.16h0l3.33-2,2.11-1.27h0l-.13-7.29-.05-2.18-.08-4.38,3.07-1.85-.12-6.35-3.14-1.73v-.63L145.3,179l-.12-6.35-3.91-2.16Zm-29.14,27.25,0,2.47-12.6,7.6,0-2.05q-.15-7.59,5.78-11.16,3.48-2.08,5.1-1.56C111.57,196.4,112.14,198,112.19,200.74ZM134.52,187l0,2.71-15,9.06,0-2.54a12.83,12.83,0,0,1,1.63-7.09,17.3,17.3,0,0,1,6-5.34c2.52-1.52,4.38-2.06,5.57-1.64S134.47,184.23,134.52,187Z"/><path class="b643cce5-b462-4487-b6c8-ba505af82624" d="M114.73,176.93a20.71,20.71,0,0,0-3.49,9.88q-1.45-7.65-10.22-2.51l-.43.26a25.24,25.24,0,0,0-5.18,4,23.09,23.09,0,0,0-3.77,4.94A23.78,23.78,0,0,0,89.47,199c-.28,1.07-.51,2.11-.69,3.13l-3.7,2.23.12,6.35,3-1.83q0,.92,0,1.89l0,2.33-3,1.82.12,6.35,3-1.82.08,4.39,0,1.71v.47l.14,7.29,5.44-3.28L94,222.77l39.23-23.66.14,7.29,5.44-3.28-.14-7.28,0-2.19-.08-4.38,3.06-1.85-.12-6.35-1.94,1.18-1.12.67-.08-4.21,3.06-1.85-.12-6.35-1.94,1.18-1.56.94q-.92-4.23-3.34-5.8-3.65-2.29-11,2.1l-.33.2A26.68,26.68,0,0,0,114.73,176.93Zm-19,31.72,0-2.05q-.14-7.57,5.78-11.15,3.48-2.1,5.11-1.56c1.09.35,1.66,1.92,1.71,4.69l0,2.47Zm34.94-21.06-15,9-.05-2.54a12.83,12.83,0,0,1,1.64-7.09,17.38,17.38,0,0,1,6-5.33q3.78-2.28,5.56-1.64t1.87,4.83Z"/></svg>