<svg id="b5304e3f-610e-46f3-99c9-af38da30006e" data-name="Слой 1" xmlns="http://www.w3.org/2000/svg" viewBox="0 0 592.98 146.77"><defs><style>.a3e9bf8a-7516-4828-8ffe-4d68f4039cd4,.b33510ef-6000-48bf-a1a9-8f37853e906e,.b417582b-8bd9-4b7b-93bd-1d5db271e2e7,.e230af19-2479-4e60-9202-bfcdb5542f16,.f9ce2157-a6d8-4b3f-bf25-012aed6e3101{fill:#fff;}.f9ce2157-a6d8-4b3f-bf25-012aed6e3101{opacity:0.17;}.a3e9bf8a-7516-4828-8ffe-4d68f4039cd4{opacity:0.28;}.e230af19-2479-4e60-9202-bfcdb5542f16{opacity:0.08;}.b33510ef-6000-48bf-a1a9-8f37853e906e{opacity:0.64;}</style></defs><title>right lines</title><path class="f9ce2157-a6d8-4b3f-bf25-012aed6e3101" d="M593,142.77H329.59c-11.55,0-22.48-10.72-33-21.08-11.17-11-22.72-22.28-36-22.28H98a9.82,9.82,0,1,0,0,4H260.59c11.6,0,22.56,10.74,33.15,21.13,11.14,10.93,22.67,22.23,35.85,22.23H593Z"/><path class="a3e9bf8a-7516-4828-8ffe-4d68f4039cd4" d="M593,122.45H251.05c-11.55,0-22.49-10.72-33.06-21.08-11.16-11-22.71-22.28-35.94-22.28H19.43a9.82,9.82,0,1,0,0,4H182.05c11.6,0,22.55,10.74,33.14,21.13,11.15,10.93,22.67,22.23,35.86,22.23H593Z"/><path class="b417582b-8bd9-4b7b-93bd-1d5db271e2e7" d="M593,95.24H329.59c-11.55,0-22.48-10.72-33-21.09-11.17-11-22.72-22.27-36-22.27H98a9.81,9.81,0,1,0,0,4H260.59c11.6,0,22.56,10.74,33.15,21.13,11.14,10.93,22.67,22.23,35.85,22.23H593Z"/><path class="e230af19-2479-4e60-9202-bfcdb5542f16" d="M593,104.05h-5.44c-11.55,0-22.48-10.72-33-21.09-11.16-10.95-22.71-22.28-36-22.28H355.93a9.82,9.82,0,1,0,0,4H518.54c11.6,0,22.56,10.75,33.15,21.13,11.15,10.93,22.67,22.24,35.85,22.24H593Z"/><path class="b33510ef-6000-48bf-a1a9-8f37853e906e" d="M593,49.93c-9-3.12-17.64-11.58-26.05-19.84C555.76,19.14,544.21,7.82,531,7.82H368.36a9.82,9.82,0,1,0,0,4H531c11.6,0,22.55,10.74,33.15,21.13C573.26,41.9,582.64,51.1,593,54.14Z"/></svg>