<svg id="a697cc81-6ae4-4d07-8727-084762e45431" data-name="Слой 1" xmlns="http://www.w3.org/2000/svg" viewBox="0 0 62.39 62.39"><defs><style>.bb69a657-bc96-406a-b6ea-914df9863a92{fill:#e5a85e;}</style></defs><title>loading</title><path class="bb69a657-bc96-406a-b6ea-914df9863a92" d="M31.2,3A28.21,28.21,0,1,1,3,31.2,28.24,28.24,0,0,1,31.2,3m0-3A31.2,31.2,0,1,0,62.39,31.2,31.2,31.2,0,0,0,31.2,0Z"/><path class="bb69a657-bc96-406a-b6ea-914df9863a92" d="M29.52,37.86h-1a6.26,6.26,0,0,1-5.25-6.18A6.09,6.09,0,0,1,24,28.8l.77,1.06a1.14,1.14,0,0,0,2-.36l.61-2.2.85-3a1.14,1.14,0,0,0-1.1-1.44H21.87A1.14,1.14,0,0,0,21,24.63l1.41,2a8.77,8.77,0,0,0,5.79,13.76,1.29,1.29,0,0,0,.34,0h1a1.24,1.24,0,0,0,1.24-1.23v0A1.25,1.25,0,0,0,29.52,37.86Z"/><path class="bb69a657-bc96-406a-b6ea-914df9863a92" d="M39.15,36.59a8.77,8.77,0,0,0-5.79-13.76,1.22,1.22,0,0,0-.33,0H32a1.23,1.23,0,0,0-1.23,1.23v0A1.24,1.24,0,0,0,32,25.32h1a6.27,6.27,0,0,1,5.25,6.18,6.21,6.21,0,0,1-.72,2.88l-.77-1.06a1.14,1.14,0,0,0-2,.36l-.61,2.2-.84,3a1.13,1.13,0,0,0,1.1,1.44h5.23a1.15,1.15,0,0,0,.93-1.81Z"/></svg>