<svg id="b5da89e8-fa07-4dfe-b8fb-f34384f65eab" data-name="Слой 1" xmlns="http://www.w3.org/2000/svg" viewBox="0 0 477.04 141.81"><defs><style>.aeac54cb-37c2-47a4-941b-6467804d22fc{fill:#fff;}</style></defs><title>text_logo_header</title><polygon class="aeac54cb-37c2-47a4-941b-6467804d22fc" points="35.23 0 28.36 0 28.36 51.17 9.83 0.04 6.9 0.04 6.88 0 1.43 0 1.43 81.99 4.38 81.99 4.38 82.03 11.24 82.03 11.24 29.8 30.2 81.99 33.13 81.99 33.14 82.03 38.17 82.03 38.17 0.04 35.23 0.04 35.23 0"/><polygon class="aeac54cb-37c2-47a4-941b-6467804d22fc" points="136.08 0 103.33 0 103.33 6.44 106.28 6.44 106.28 6.48 116.12 6.48 116.12 81.99 119.06 81.99 119.06 82.03 126.34 82.03 126.34 6.48 139.02 6.48 139.02 0.04 136.08 0.04 136.08 0"/><path class="aeac54cb-37c2-47a4-941b-6467804d22fc" d="M149.65,82H152c.19,0,.36,0,.55,0h16.76c3.91,0,5.87-2,5.87-5.92V66.89h-2.94v0h-6.76v9.33h-12V57.77h19.38l2.36-2.46V37c0-3.94-2-5.92-5.87-5.92H167c-.19,0-.36,0-.55,0H149.65c-3.92,0-5.87,2-5.87,5.93V76.07C143.78,80,145.73,82,149.65,82Zm15.87-29.81h-12V36.87h12Z"/><path class="aeac54cb-37c2-47a4-941b-6467804d22fc" d="M189.67,82h2.4c.18,0,.35,0,.54,0h16.56c3.91,0,5.87-2,5.87-5.92V64.53h-2.95v0h-6.86V75.86H193.71V37.18h11.52V47.1h2.94v0H215V37c0-3.94-2-5.92-5.87-5.92h-2.4c-.18,0-.35,0-.54,0H189.67q-5.86,0-5.87,5.93V76.07Q183.8,82,189.67,82Z"/><path class="aeac54cb-37c2-47a4-941b-6467804d22fc" d="M372.55,82c.19,0,.35,0,.55,0h17.5c3.94,0,5.92-2,5.92-5.92V37c0-3.94-2-5.92-5.92-5.92h-2.4c-.18,0-.35,0-.55,0h-17.5q-5.86,0-5.86,5.93V76.07q0,5.93,5.86,5.92Zm14.06-6.13H374.2V37.18h12.41Z"/><path class="aeac54cb-37c2-47a4-941b-6467804d22fc" d="M433.91,31H427v1c-5.62-.85-8.79-1.28-9.48-1.28a11.53,11.53,0,0,0-1.33.12c-.81-.1-1.37-.16-1.61-.16a9.22,9.22,0,0,0-7.18,3,10.83,10.83,0,0,0-2.72,7.52V71a10.66,10.66,0,0,0,3.09,7.83A10.47,10.47,0,0,0,415.52,82h2.53c.14,0,.27,0,.42,0H427V95.4H415.38V88.68h-2.95v0h-6.86c0,.53,0,1.37-.08,2.55s-.08,2-.08,2.64q0,7.5,6,7.49h2.5c.15,0,.28,0,.44,0h16.56c3.94,0,5.92-2,5.92-5.92V31.05h-2.95ZM414.54,70V42.73c0-3.64,1.69-5.57,5-5.81,1.65.08,4.11.23,7.42.43V75.86h-7.24C416.29,75.68,414.54,73.75,414.54,70Z"/><path class="aeac54cb-37c2-47a4-941b-6467804d22fc" d="M77.88,66.47a6.75,6.75,0,0,0-2.57-5.56L56.92,46v-8.9H68.07v10h3v0h6.76V37c0-3.94-2-5.92-5.92-5.92h-2.4c-.18,0-.35,0-.55,0H53.14c-3.94,0-5.92,2-5.92,5.93v8.48a6.67,6.67,0,0,0,2.62,5.45L68.07,65.8V76H56.92V64.53H54v0H47.12V76.07Q47.12,82,53,82h2.39c.19,0,.36,0,.55,0H72c4,0,5.92-2,5.92-5.92Z"/><path class="aeac54cb-37c2-47a4-941b-6467804d22fc" d="M226.35,82h7V37.71l12.41-.34V82h2.94v0h7V36.45q0-5.72-5.82-5.71c-.51,0-1.07,0-1.68,0a9.89,9.89,0,0,0-1.26-.08,68.53,68.53,0,0,0-8.22.68l-5.34.68V0h-2.94V0h-7V82h2.94Z"/><path class="aeac54cb-37c2-47a4-941b-6467804d22fc" d="M266.9,82h7V37.71l12.41-.34V82h2.94v0h7V36.45q0-5.72-5.82-5.71c-.54,0-1.13,0-1.76,0a8.76,8.76,0,0,0-1.18-.08,69.33,69.33,0,0,0-8.28.63c-1.77.25-3.52.47-5.28.71v-1h-2.94v0h-7V82h2.94Z"/><path class="aeac54cb-37c2-47a4-941b-6467804d22fc" d="M330.82,82c3.95,0,5.92-2,5.92-5.92V37c0-3.94-2-5.92-5.92-5.92h-2.39c-.19,0-.36,0-.55,0h-17.5q-5.86,0-5.87,5.93V76.07q0,5.93,5.87,5.92h2.39c.19,0,.36,0,.55,0Zm-16.4-44.85h12.41V75.86H314.42Z"/><polygon class="aeac54cb-37c2-47a4-941b-6467804d22fc" points="348.53 82.03 355.39 82.03 355.39 0.04 352.45 0.04 352.45 0 345.58 0 345.58 81.99 348.53 81.99 348.53 82.03"/><polygon class="aeac54cb-37c2-47a4-941b-6467804d22fc" points="474.09 31.05 474.1 31.02 467.13 31.02 459.8 64.42 452.57 31.05 449.64 31.05 449.63 31.02 442.45 31.02 455.03 81.57 449.89 101.32 452.85 101.32 452.83 101.36 459.7 101.36 464.78 81.61 477.04 31.05 474.09 31.05"/><path class="aeac54cb-37c2-47a4-941b-6467804d22fc" d="M6.47,111.8a15.28,15.28,0,0,0-6.08,1.39l.75,2.4a12.56,12.56,0,0,1,5.16-1.22c5,0,7.87,3.69,8.26,8.34H3.33v2.5H14.6c-.22,5-3.4,8.88-8.73,8.88A13.35,13.35,0,0,1,.68,133L0,135.44a15.27,15.27,0,0,0,6.3,1.26c6.4,0,11.62-4.51,11.62-12.42C17.92,117.27,14.06,111.8,6.47,111.8Z"/><path class="aeac54cb-37c2-47a4-941b-6467804d22fc" d="M31.37,127.11V127c2-.43,3.61-1.75,3.61-3.9,0-3.87-4.79-4.33-7.69-4.33a37.64,37.64,0,0,0-5.51.39v17.1c.93.08,2.93.22,4.87.22,3.39,0,9.12-.57,9.12-5.12C35.77,128.9,33.91,127.47,31.37,127.11Zm-6.58-6a22.65,22.65,0,0,1,2.43-.14c3.15,0,4.65.83,4.65,2.54,0,2-2.4,2.72-4.72,2.72H24.79Zm2.5,13.24a18.62,18.62,0,0,1-2.54-.14v-5.9H27c3,0,5.51.53,5.51,3S29.4,134.37,27.29,134.37Z"/><path class="aeac54cb-37c2-47a4-941b-6467804d22fc" d="M47.07,118.6c-4.79,0-8.59,3.39-8.59,9.19,0,5.47,3.62,8.91,8.3,8.91,4.19,0,8.62-2.79,8.62-9.2C55.4,122.21,52,118.6,47.07,118.6Zm-.14,15.74c-3.08,0-5.26-2.87-5.26-6.66,0-3.29,1.61-6.72,5.33-6.72s5.18,3.72,5.18,6.65C52.18,131.51,49.93,134.34,46.93,134.34Z"/><path class="aeac54cb-37c2-47a4-941b-6467804d22fc" d="M60.48,126c0,3.86-.18,6.29-1.79,7.47a3.91,3.91,0,0,1-1.72.72l.33,2.46a5.06,5.06,0,0,0,3.43-1.07c2.25-1.46,2.72-4.72,2.72-9.58v-4.51h5.94V136.3H72.5V119h-12Z"/><path class="aeac54cb-37c2-47a4-941b-6467804d22fc" d="M91.31,118.6c-4.15,0-7.15,3.11-7.69,7.69h-3V119H77.57V136.3h3.08v-7.62h2.9c.36,4.94,3.4,8,7.55,8,4.36,0,7.79-3.58,7.79-9.2C98.89,122.17,95.82,118.6,91.31,118.6Zm-.18,15.77c-3,0-4.58-3.25-4.58-6.62S88.16,121,91.2,121s4.55,3.36,4.55,6.62S94.32,134.37,91.13,134.37Z"/><polygon class="aeac54cb-37c2-47a4-941b-6467804d22fc" points="116.99 118.99 113.88 118.99 113.88 133.83 105.9 133.83 105.9 118.99 102.79 118.99 102.79 136.3 116.02 136.3 116.17 141.81 118.6 141.81 118.78 133.98 116.99 133.94 116.99 118.99"/><path class="aeac54cb-37c2-47a4-941b-6467804d22fc" d="M128.15,127.93c-1.15,2-1.76,3.22-2.8,5.33l-.1,0c.14-2.47.18-4.19.18-6.94V119h-3V136.3h3.61c1.86-3,3.76-6.36,5.4-9.05,1-1.75,1.75-3.14,2.86-5.36h.11c-.14,2.79-.21,4.25-.21,7.08v7.33h3V119h-3.68Z"/><path class="aeac54cb-37c2-47a4-941b-6467804d22fc" d="M143.74,120a4.17,4.17,0,0,0-2.29,3.76c0,2.65,2.32,4,4.58,4.29v.11a4.15,4.15,0,0,0-2,1c-1.54,1.29-2,3.54-2.72,5.23a11.26,11.26,0,0,1-1.07,2h3.36a10,10,0,0,0,.71-1.43c.68-1.68,1.15-3.82,2.44-4.86a4.07,4.07,0,0,1,2.89-1H152v7.26h3.11V119.13a47.8,47.8,0,0,0-5.58-.36A12.14,12.14,0,0,0,143.74,120Zm8.26,6.94h-2.68c-1.86,0-4.62-.78-4.62-3,0-2.4,2.54-3,4.69-3a18.78,18.78,0,0,1,2.61.17Z"/><path class="aeac54cb-37c2-47a4-941b-6467804d22fc" d="M174.28,112.19l-8.19,24.11h3.22l2.5-7.58h8.55l2.58,7.58h3.33L178,112.19Zm-1.82,14.1,2.36-7c.46-1.47.86-2.93,1.21-4.36h.08c.35,1.39.71,2.82,1.25,4.4l2.36,6.94Z"/><path class="aeac54cb-37c2-47a4-941b-6467804d22fc" d="M199.21,127.11V127c2-.43,3.61-1.75,3.61-3.9,0-3.87-4.79-4.33-7.69-4.33a37.64,37.64,0,0,0-5.51.39v17.1c.93.08,2.94.22,4.87.22,3.4,0,9.12-.57,9.12-5.12C203.61,128.9,201.75,127.47,199.21,127.11Zm-6.58-6a22.65,22.65,0,0,1,2.43-.14c3.15,0,4.65.83,4.65,2.54,0,2-2.39,2.72-4.72,2.72h-2.36Zm2.5,13.24a18.71,18.71,0,0,1-2.54-.14v-5.9h2.29c3,0,5.51.53,5.51,3S197.24,134.37,195.13,134.37Z"/><polygon class="aeac54cb-37c2-47a4-941b-6467804d22fc" points="205 121.49 210.4 121.49 210.4 136.3 213.52 136.3 213.52 121.49 218.92 121.49 218.92 118.99 205 118.99 205 121.49"/><path class="aeac54cb-37c2-47a4-941b-6467804d22fc" d="M228.54,118.6c-4.8,0-8.59,3.39-8.59,9.19,0,5.47,3.61,8.91,8.3,8.91,4.19,0,8.62-2.79,8.62-9.2C236.87,122.21,233.51,118.6,228.54,118.6Zm-.15,15.74c-3.07,0-5.25-2.87-5.25-6.66,0-3.29,1.61-6.72,5.33-6.72s5.18,3.72,5.18,6.65C233.65,131.51,231.4,134.34,228.39,134.34Z"/><path class="aeac54cb-37c2-47a4-941b-6467804d22fc" d="M254.5,119l-2.79,7.55c-.68,1.89-1.64,4.65-2,5.94h-.07c-.39-1.36-1.14-3.47-1.57-4.76L244.88,119H241l-1.29,17.31h2.9l.43-8.19c.1-1.9.21-4.18.28-6.22h.15c.42,1.61,1.18,4.11,1.71,5.76l3.08,8.55h2.29l3.33-8.73c1-2.65,1.43-4,1.89-5.62h.11c.07,2.11.21,4.33.32,6.19l.39,8.26h3L258.4,119Z"/><path class="aeac54cb-37c2-47a4-941b-6467804d22fc" d="M275.86,125.68c0-3.47-1.29-7.08-6.59-7.08a10.72,10.72,0,0,0-5.68,1.53l.71,2.08a8.62,8.62,0,0,1,4.51-1.29c3.54,0,3.93,2.58,3.93,4v.36c-6.69,0-10.41,2.25-10.41,6.43a4.94,4.94,0,0,0,5.3,5,6.43,6.43,0,0,0,5.29-2.58H273l.25,2.18h2.86a24.85,24.85,0,0,1-.28-4.15Zm-3.05,4.79a3.2,3.2,0,0,1-.18,1,4.29,4.29,0,0,1-4.18,2.9,2.78,2.78,0,0,1-3-3c0-3.37,3.9-4,7.33-3.9Z"/><polygon class="aeac54cb-37c2-47a4-941b-6467804d22fc" points="278.46 121.49 283.86 121.49 283.86 136.3 286.98 136.3 286.98 121.49 292.38 121.49 292.38 118.99 278.46 118.99 278.46 121.49"/><path class="aeac54cb-37c2-47a4-941b-6467804d22fc" d="M300.74,127.93c-1.14,2-1.75,3.22-2.78,5.33l-.11,0c.14-2.47.18-4.19.18-6.94V119h-3V136.3h3.61c1.86-3,3.76-6.36,5.4-9.05,1-1.75,1.75-3.14,2.86-5.36H307c-.14,2.79-.21,4.25-.21,7.08v7.33h3V119h-3.68Z"/><path class="aeac54cb-37c2-47a4-941b-6467804d22fc" d="M321.7,127.18v-.07c1.94-.39,3.9-1.79,3.9-3.94,0-3.36-3.22-4.54-5.86-4.54a10.92,10.92,0,0,0-5.76,1.58l.78,1.93a8.38,8.38,0,0,1,4.19-1.22c2,0,3.36,1,3.36,2.5s-1.79,2.83-4.43,2.83h-1.51v2.15H318c2.61,0,5,.64,5,3,0,1.71-1.64,3-4.26,3a10,10,0,0,1-4.57-1.19l-.83,2.12a12,12,0,0,0,5.62,1.39c3.65,0,7.48-1.39,7.48-5.15C326.43,129,324.28,127.4,321.7,127.18Z"/><path class="aeac54cb-37c2-47a4-941b-6467804d22fc" d="M342.52,125.68c0-3.47-1.29-7.08-6.58-7.08a10.76,10.76,0,0,0-5.69,1.53l.72,2.08a8.56,8.56,0,0,1,4.5-1.29c3.55,0,3.94,2.58,3.94,4v.36c-6.69,0-10.41,2.25-10.41,6.43a4.93,4.93,0,0,0,5.29,5,6.46,6.46,0,0,0,5.3-2.58h.1l.25,2.18h2.87a23.76,23.76,0,0,1-.29-4.15Zm-3,4.79a3.2,3.2,0,0,1-.18,1,4.3,4.3,0,0,1-4.18,2.9,2.78,2.78,0,0,1-3-3c0-3.37,3.89-4,7.33-3.9Z"/><polygon class="aeac54cb-37c2-47a4-941b-6467804d22fc" points="361.73 118.99 358.61 118.99 358.61 133.83 350.64 133.83 350.64 118.99 347.52 118.99 347.52 136.3 360.76 136.3 360.9 141.81 363.33 141.81 363.51 133.98 361.73 133.94 361.73 118.99"/><path class="aeac54cb-37c2-47a4-941b-6467804d22fc" d="M372.88,127.93c-1.14,2-1.75,3.22-2.79,5.33l-.11,0c.15-2.47.18-4.19.18-6.94V119h-3V136.3h3.62c1.86-3,3.75-6.36,5.4-9.05,1-1.75,1.75-3.14,2.86-5.36h.11c-.14,2.79-.22,4.25-.22,7.08v7.33h3V119h-3.69Z"/><path class="aeac54cb-37c2-47a4-941b-6467804d22fc" d="M392.7,127.93c-1.15,2-1.76,3.22-2.79,5.33l-.11,0c.14-2.47.18-4.19.18-6.94V119h-3V136.3h3.61c1.86-3,3.76-6.36,5.4-9.05,1-1.75,1.76-3.14,2.86-5.36H399c-.14,2.79-.21,4.25-.21,7.08v7.33h3V119H398.1Z"/></svg>