<svg id="fd54edfc-2570-42ff-bea3-b4dacf031e58" data-name="Слой 1" xmlns="http://www.w3.org/2000/svg" viewBox="0 0 141 141"><defs><style>.a2dea235-8080-4ea6-8ac0-f6b26cb68b90{fill:#e9c77d;}.f695f623-c175-464c-b9af-930bf7674afb{fill:#1a1d25;}</style></defs><title>icon 4</title><circle class="a2dea235-8080-4ea6-8ac0-f6b26cb68b90" cx="70.5" cy="70.5" r="70.5"/><path class="f695f623-c175-464c-b9af-930bf7674afb" d="M107.52,63.82c-2.82-1.88-7.94-2.06-12.89-2.24-1.72-.07-3.35-.12-4.79-.25s-3.47-.46-4.22-1.16A68.61,68.61,0,0,1,91,53.59c.49-.56,1-1.08,1.46-1.6,3-3.16,5.73-6.15,5.73-11.63,0-4,0-9.95-5.33-9.95-3,0-4,2-5.33,4.58a48.63,48.63,0,0,1-2.82,4.95c-3.42,5.18-9.79,9.11-14,11.7l-1.1.68a103.84,103.84,0,0,0-14,10.55,12.65,12.65,0,0,1-8.72,3.46,3.63,3.63,0,0,0-3.28-2.09H33.82a3.65,3.65,0,0,0-3.65,3.64V100.5a3.65,3.65,0,0,0,3.65,3.64h9.81a3.64,3.64,0,0,0,3.64-3.64V98c1.36-.06,3.34-.14,4.51-.14.69,0,2.76,1,4.43,1.86a55.5,55.5,0,0,0,6.71,3c5,1.7,12.13,1.69,19.07,1.69h2.58c6.57,0,13.12-.2,14.44-5.25a5.7,5.7,0,0,0,0-3,6.06,6.06,0,0,0,5.21-4.31l0-.12c.38-1.58.88-3.74-.7-5.81l0,0A7.61,7.61,0,0,0,106,84.52c1.4-1.15,2.89-3.32,2-7.14a4.57,4.57,0,0,0-.77-1.7,5.5,5.5,0,0,0,2.87-3.19C110.73,70.83,112.21,67,107.52,63.82ZM44.19,100.5a.56.56,0,0,1-.56.56H33.82a.56.56,0,0,1-.56-.56V67.88a.56.56,0,0,1,.56-.56h9.81a.56.56,0,0,1,.56.56Zm63-29.11a2.27,2.27,0,0,1-2.39,1.68A20.12,20.12,0,0,1,102,72.8l-.6-.09A1.53,1.53,0,0,0,99.74,74,1.55,1.55,0,0,0,101,75.76l.56.09c1.07.22,3.13.88,3.43,2.21.57,2.48-.28,3.51-1,4.07a6.4,6.4,0,0,1-3.74,1.15A5.76,5.76,0,0,1,98.86,83l-.45-.16a1.54,1.54,0,0,0-1.06,2.9l.51.18a9.26,9.26,0,0,1,3.25,1.83c.67.87.5,1.75.15,3.23l0,.12a3.15,3.15,0,0,1-3.14,2A13.7,13.7,0,0,1,95.74,93a7.25,7.25,0,0,0-1.69-.37,1.54,1.54,0,0,0-.64,3,10.61,10.61,0,0,0,1.53.38,2.19,2.19,0,0,1,1,.68c.11.15.43.61.13,1.76-.77,3-6.64,3-12.32,3H82c-6.38,0-13.6,0-18.07-1.53A55.66,55.66,0,0,1,57.58,97c-2.55-1.27-4.39-2.18-5.8-2.18-1.2,0-3.13.07-4.51.14V69.4A15.73,15.73,0,0,0,57.7,65.15,101,101,0,0,1,71.22,54.94l1.09-.67c4.45-2.74,11.17-6.88,15-12.64a48.8,48.8,0,0,0,3-5.24c1.34-2.62,1.58-2.89,2.59-2.89,1.32,0,2.25.49,2.25,6.86,0,4.26-2.06,6.47-4.91,9.53-.49.53-1,1.07-1.5,1.64-1.76,2-3.35,3.86-4.47,5.32-1.55,2-2.46,3.31-1.54,4.45l-.07-.09c.65,1.33,2,2.74,7,3.19,1.52.13,3.19.19,5,.26,4.31.16,9.19.33,11.28,1.73C108.27,68,108,69.43,107.22,71.39Z" transform="translate(0)"/></svg>