<svg id="ec5e9edb-8dd7-40a6-b303-ff195d44f435" data-name="Слой 1" xmlns="http://www.w3.org/2000/svg" viewBox="0 0 141 141"><defs><style>.ae6c6b4e-5a72-4cd4-9b26-40d2157e03a9{fill:#e9c77d;}.e4189390-dfad-48e8-843b-1c8b8143a538{fill:#1a1d25;}</style></defs><title>icon 2</title><circle class="ae6c6b4e-5a72-4cd4-9b26-40d2157e03a9" cx="70.5" cy="70.5" r="70.5"/><path class="e4189390-dfad-48e8-843b-1c8b8143a538" d="M104.49,102.22l-9.61-19.3a2.49,2.49,0,0,0-2.25-1.39h-5.1L72.72,56.36a2.48,2.48,0,0,0-2.26-1.23,2.51,2.51,0,0,0-2.17,1.4L57.09,79.22H49.77a2.5,2.5,0,0,0-2.24,1.38l-11,21.6a2.51,2.51,0,0,0,2.24,3.66h63.46a2.52,2.52,0,0,0,2.26-3.64Zm-19.72,0L78.3,90.36a1.81,1.81,0,1,0-3.17,1.73l5.53,10.15H40.56l9.89-19.4h7.33A2.48,2.48,0,0,0,60,81.44L70.63,60l8.06,13.68h-10a1.81,1.81,0,1,0,0,3.61H80.82l3.91,6.65a2.51,2.51,0,0,0,2.17,1.24h5l8.51,17.1Z" transform="translate(0 0)"/><path class="e4189390-dfad-48e8-843b-1c8b8143a538" d="M70.5,50.51a1.81,1.81,0,0,0,1.81-1.81v-1H91.68a2.08,2.08,0,0,0,1.48-3.54L89,40l4.12-4.14a2.08,2.08,0,0,0-1.48-3.54H72.31V32a1.81,1.81,0,1,0-3.62,0V48.7A1.81,1.81,0,0,0,70.5,50.51ZM88,35.93l-2.59,2.6a2.09,2.09,0,0,0,0,2.93L88,44.06H72.31V35.93Z" transform="translate(0 0)"/></svg>