<svg id="ab395906-2ec1-47f9-a6c6-8a48da1f363a" data-name="Слой 1" xmlns="http://www.w3.org/2000/svg" viewBox="0 0 141 141"><defs><style>.b1c8ac2d-c524-45f0-a58e-d2ff9313f4fe{fill:#e9c77d;}.fe9cf6eb-9be0-4415-8e45-44fc70da134b{fill:#1a1d25;}</style></defs><title>icon 3</title><circle class="b1c8ac2d-c524-45f0-a58e-d2ff9313f4fe" cx="70.5" cy="70.5" r="70.5"/><path class="fe9cf6eb-9be0-4415-8e45-44fc70da134b" d="M64,79.35A10.06,10.06,0,1,0,74,89.41,10.07,10.07,0,0,0,64,79.35Zm0,17a6.95,6.95,0,1,1,7-6.94A6.94,6.94,0,0,1,64,96.35Z" transform="translate(0 0)"/><path class="fe9cf6eb-9be0-4415-8e45-44fc70da134b" d="M109.55,38.67H31.45A6.46,6.46,0,0,0,25,45.12V99a6.46,6.46,0,0,0,6.45,6.45H44.87l4.35,4.35,6.16-4a18.86,18.86,0,0,0,3.15,1.31l1.49,7.2h7.92l1.49-7.2a19,19,0,0,0,3.16-1.31l6.15,4,4.35-4.35h26.46A6.46,6.46,0,0,0,116,99V45.12A6.46,6.46,0,0,0,109.55,38.67ZM81.68,84a18.69,18.69,0,0,0-1.33-3.24l4-6.08-5.59-5.59-6,4a18,18,0,0,0-3.28-1.36l-1.47-7.09H60l-1.47,7.09a18,18,0,0,0-3.28,1.36l-6.05-4-5.59,5.59,4,6.08A18,18,0,0,0,46.28,84l-7.13,1.48v7.92l7.17,1.48a17.63,17.63,0,0,0,1.15,2.81H34.88v-46h71.24v46H80.49a17.63,17.63,0,0,0,1.15-2.81l7.17-1.48V85.51Zm10-35.44v-6.8h5.66v6.8Zm-3.12,0H82.88v-6.8h5.67Zm17.57,0h-5.67v-6.8h5.67ZM28.12,99V45.12a3.34,3.34,0,0,1,3.33-3.33H79.76v6.8H34.15A2.39,2.39,0,0,0,31.76,51V98.46a2.39,2.39,0,0,0,2.39,2.38h11.7l-1,1.51H31.45A3.34,3.34,0,0,1,28.12,99Zm50.21,6.8-5.64-3.7-.84.5a15.54,15.54,0,0,1-4.13,1.71l-1,.23-1.37,6.62H62.56l-1.37-6.62-.95-.23a15.54,15.54,0,0,1-4.13-1.71l-.84-.5-5.64,3.7-2-2,3.69-5.63-.51-.84a15.22,15.22,0,0,1-1.74-4.16l-.24-.94-6.56-1.36V88.05l6.54-1.36.24-1a15,15,0,0,1,1.73-4.22l.5-.83-3.65-5.57,2-2,5.55,3.65.84-.51a15.16,15.16,0,0,1,4.24-1.76l1-.24,1.34-6.49H65.4l1.35,6.49,1,.24a15.16,15.16,0,0,1,4.24,1.76l.84.51,5.55-3.65,2,2-3.65,5.57.5.83a15,15,0,0,1,1.73,4.22l.24,1,6.54,1.36v2.84l-6.56,1.36-.24.94a15.22,15.22,0,0,1-1.74,4.16l-.51.84,3.69,5.63ZM112.88,99a3.34,3.34,0,0,1-3.33,3.33H83.1l-1-1.51h24.74a2.39,2.39,0,0,0,2.39-2.38V41.79h.31a3.34,3.34,0,0,1,3.33,3.33Z" transform="translate(0 0)"/></svg>