<svg id="b32cde63-3e66-4366-8b56-66cef11aa738" data-name="Слой 1" xmlns="http://www.w3.org/2000/svg" viewBox="0 0 141 141"><defs><style>.e33fb548-7550-442d-b0fc-5177447d8142{fill:#e9c77d;}.abe4cbd3-f713-4f59-a192-3d60ef0f1f87{fill:#1a1d25;}</style></defs><title>icon 1</title><circle class="e33fb548-7550-442d-b0fc-5177447d8142" cx="70.5" cy="70.5" r="70.5"/><path class="abe4cbd3-f713-4f59-a192-3d60ef0f1f87" d="M61.16,32.85H80.05v4H84V32.39a3.46,3.46,0,0,0-3.45-3.45H60.7a3.46,3.46,0,0,0-3.45,3.45v4.49h3.91Z"/><path class="abe4cbd3-f713-4f59-a192-3d60ef0f1f87" d="M105.94,43.33A3.57,3.57,0,0,0,102.38,40H39.15a3.54,3.54,0,0,0-3.55,3.25L32.92,73.8a3.58,3.58,0,0,0,3.56,3.88H37v23.87a3,3,0,0,0,3,3h61.11a3,3,0,0,0,3-3V77.68h.34a3.56,3.56,0,0,0,3.56-3.81Zm-5.67,57.33H40.93v-23H59.11V73.77H36.85l2.62-29.84h62.59l2.1,29.84H82.09v3.91h18.18Z"/><path class="abe4cbd3-f713-4f59-a192-3d60ef0f1f87" d="M73.89,67.5H67.32a3,3,0,0,0-3,3v10.6a3,3,0,0,0,3,3h6.57a3.06,3.06,0,0,0,3-3V70.55A3,3,0,0,0,73.89,67.5ZM73,80.29H68.18V71.4H73Z"/></svg>